M48
;DRILL file {KiCad no-vcs-found-7406~56~ubuntu16.10.1} date Thu Dec 22 10:55:09 2016
;FORMAT={-:-/ absolute / metric / decimal}
FMAT,2
METRIC,TZ
T1C0.635
T2C0.800
T3C1.016
T4C1.500
T5C3.200
%
G90
G05
M71
T1
X137.75Y-89.75
X137.75Y-94.
X144.25Y-89.75
X144.551Y-82.662
X154.75Y-95.25
X156.525Y-90.581
X159.75Y-88.5
T2
X138.079Y-79.07
X138.079Y-86.69
X140.619Y-79.07
X140.619Y-86.69
X143.159Y-79.07
X143.159Y-86.69
X145.699Y-79.07
X145.699Y-86.69
X148.239Y-79.07
X148.239Y-86.69
X150.779Y-79.07
X150.779Y-86.69
X153.319Y-79.07
X153.319Y-86.69
X155.859Y-79.07
X155.859Y-86.69
T3
X141.732Y-118.364
X141.732Y-120.904
X144.272Y-118.364
X144.272Y-120.904
X146.812Y-118.364
X146.812Y-120.904
X149.352Y-118.364
X149.352Y-120.904
X151.892Y-118.364
X151.892Y-120.904
T4
X138.672Y-101.914
X138.672Y-105.624
X140.272Y-108.964
X140.282Y-98.574
X143.182Y-96.264
X146.792Y-95.444
X146.792Y-112.104
X150.402Y-111.284
X150.412Y-96.274
X153.302Y-98.584
X153.302Y-108.964
X154.912Y-101.914
X154.912Y-105.634
T5
X132.Y-79.
X160.Y-120.5
T0
M30
