G04 #@! TF.FileFunction,Copper,L1,Top,Signal*
%FSLAX46Y46*%
G04 Gerber Fmt 4.6, Leading zero omitted, Abs format (unit mm)*
G04 Created by KiCad (PCBNEW 4.0.4-stable) date 12/20/16 14:15:17*
%MOMM*%
%LPD*%
G01*
G04 APERTURE LIST*
%ADD10C,0.100000*%
%ADD11C,2.500000*%
%ADD12O,1.600000X2.300000*%
%ADD13R,1.727200X1.727200*%
%ADD14O,1.727200X1.727200*%
%ADD15C,0.889000*%
%ADD16C,0.381000*%
G04 APERTURE END LIST*
D10*
D11*
X140271680Y-108964240D03*
X138671680Y-105624240D03*
X138671680Y-101914240D03*
X140281680Y-98574240D03*
X143181680Y-96264240D03*
X146791680Y-95444240D03*
X150411680Y-96274240D03*
X153301680Y-98584240D03*
X154911680Y-105634240D03*
X154911680Y-101914240D03*
X153301680Y-108964240D03*
X150401680Y-111284240D03*
X146791680Y-112104240D03*
D12*
X138079480Y-79070200D03*
X140619480Y-79070200D03*
X143159480Y-79070200D03*
X145699480Y-79070200D03*
X148239480Y-79070200D03*
X150779480Y-79070200D03*
X153319480Y-79070200D03*
X155859480Y-79070200D03*
X155859480Y-86690200D03*
X153319480Y-86690200D03*
X150779480Y-86690200D03*
X148239480Y-86690200D03*
X145699480Y-86690200D03*
X143159480Y-86690200D03*
X140619480Y-86690200D03*
X138079480Y-86690200D03*
D13*
X141777720Y-121554240D03*
D14*
X141777720Y-124094240D03*
X144317720Y-121554240D03*
X144317720Y-124094240D03*
X146857720Y-121554240D03*
X146857720Y-124094240D03*
X149397720Y-121554240D03*
X149397720Y-124094240D03*
X151937720Y-121554240D03*
X151937720Y-124094240D03*
D15*
X137750000Y-94000000D03*
X137750000Y-89750000D03*
X144250000Y-89750000D03*
X154750000Y-95250000D03*
X156524960Y-90581480D03*
X159750000Y-88500000D03*
X144551400Y-82661760D03*
D16*
X137750000Y-89750000D02*
X137750000Y-94000000D01*
X155859480Y-86690200D02*
X155859480Y-88879680D01*
X154762200Y-89976960D02*
X154750000Y-95250000D01*
X155859480Y-88879680D02*
X154762200Y-89976960D01*
X137750000Y-100992560D02*
X138671680Y-101914240D01*
X137750000Y-96250000D02*
X137750000Y-100992560D01*
X144251680Y-89748320D02*
X137750000Y-96250000D01*
X145699480Y-86690200D02*
X145699480Y-90535760D01*
X140281680Y-95953560D02*
X140281680Y-98574240D01*
X145699480Y-90535760D02*
X140281680Y-95953560D01*
X150779480Y-86690200D02*
X150779480Y-95906440D01*
X150779480Y-95906440D02*
X150411680Y-96274240D01*
X153319480Y-86690200D02*
X153319480Y-98566440D01*
X153319480Y-98566440D02*
X153301680Y-98584240D01*
X156443680Y-76931520D02*
X157431520Y-76931520D01*
X140619480Y-78328520D02*
X142016480Y-76931520D01*
X142016480Y-76931520D02*
X156443680Y-76931520D01*
X157750000Y-77250000D02*
X157750000Y-78238480D01*
X157431520Y-76931520D02*
X157750000Y-77250000D01*
X157750320Y-78238160D02*
X157750000Y-78238480D01*
X154911680Y-105634240D02*
X157500320Y-103045600D01*
X157750000Y-78238480D02*
X157750000Y-89500000D01*
X157750000Y-89500000D02*
X158750000Y-90500000D01*
X158750000Y-90500000D02*
X158750000Y-101795920D01*
X158750000Y-101795920D02*
X157500320Y-103045600D01*
X140619480Y-79070200D02*
X140619480Y-78328520D01*
X156524960Y-90581480D02*
X156524960Y-100300960D01*
X154911680Y-101914240D02*
X156524960Y-100300960D01*
X158329160Y-75829160D02*
X159750000Y-77250000D01*
X159750000Y-77250000D02*
X159750000Y-78749400D01*
X159750000Y-78749400D02*
X159750000Y-87198960D01*
X158329160Y-75829160D02*
X156750000Y-75829160D01*
X159750000Y-88500000D02*
X159750000Y-87198960D01*
X138079480Y-79070200D02*
X138079480Y-78902560D01*
X138079480Y-78902560D02*
X141152880Y-75829160D01*
X141152880Y-75829160D02*
X156750000Y-75829160D01*
X156750000Y-75829160D02*
X156829760Y-75829160D01*
X155402280Y-101423640D02*
X154911680Y-101914240D01*
X155402280Y-101423640D02*
X154911680Y-101914240D01*
X138079480Y-86690200D02*
X137276840Y-86690200D01*
X154147520Y-113436400D02*
X154147520Y-109810080D01*
X151353520Y-116230400D02*
X154147520Y-113436400D01*
X139730480Y-116230400D02*
X151353520Y-116230400D01*
X136291320Y-112791240D02*
X139730480Y-116230400D01*
X136291320Y-87675720D02*
X136291320Y-112791240D01*
X137276840Y-86690200D02*
X136291320Y-87675720D01*
X154147520Y-109810080D02*
X153301680Y-108964240D01*
X153151840Y-108814400D02*
X153301680Y-108964240D01*
X137586720Y-83596480D02*
X143616680Y-83596480D01*
X135026400Y-86156800D02*
X137586720Y-83596480D01*
X141777720Y-124094240D02*
X140634720Y-124094240D01*
X135026400Y-118485920D02*
X135026400Y-87228680D01*
X140634720Y-124094240D02*
X135026400Y-118485920D01*
X135026400Y-87228680D02*
X135026400Y-86156800D01*
X143616680Y-83596480D02*
X144551400Y-82661760D01*
X136743440Y-82753200D02*
X143271240Y-82753200D01*
X134167880Y-85328760D02*
X136743440Y-82753200D01*
X134167880Y-86573360D02*
X134167880Y-85328760D01*
X150596600Y-81793080D02*
X153319480Y-79070200D01*
X144231360Y-81793080D02*
X150596600Y-81793080D01*
X143271240Y-82753200D02*
X144231360Y-81793080D01*
X144317720Y-124094240D02*
X144302480Y-124094240D01*
X144302480Y-124094240D02*
X142976600Y-125420120D01*
X142976600Y-125420120D02*
X140644880Y-125420120D01*
X140644880Y-125420120D02*
X134167880Y-118943120D01*
X134167880Y-118943120D02*
X134167880Y-86573360D01*
X134167880Y-86573360D02*
X134172960Y-86568280D01*
X136138920Y-82036920D02*
X143012160Y-82036920D01*
X133192520Y-84983320D02*
X136138920Y-82036920D01*
X133192520Y-85973920D02*
X133192520Y-84983320D01*
X148798280Y-81051400D02*
X150779480Y-79070200D01*
X143997680Y-81051400D02*
X148798280Y-81051400D01*
X143012160Y-82036920D02*
X143997680Y-81051400D01*
X146857720Y-124094240D02*
X146857720Y-124109480D01*
X146857720Y-124109480D02*
X144886680Y-126080520D01*
X144886680Y-126080520D02*
X140390880Y-126080520D01*
X140390880Y-126080520D02*
X133192520Y-118882160D01*
X133192520Y-118882160D02*
X133192520Y-85973920D01*
X133192520Y-85973920D02*
X133192520Y-85938360D01*
X132222240Y-85338920D02*
X132222240Y-84653120D01*
X132222240Y-118872000D02*
X132222240Y-85338920D01*
X140192760Y-126842520D02*
X132222240Y-118872000D01*
X146654520Y-126842520D02*
X140192760Y-126842520D01*
X149397720Y-124099320D02*
X146654520Y-126842520D01*
X143159480Y-80477360D02*
X143159480Y-79070200D01*
X142412720Y-81224120D02*
X143159480Y-80477360D01*
X135651240Y-81224120D02*
X142412720Y-81224120D01*
X132222240Y-84653120D02*
X135651240Y-81224120D01*
X149397720Y-124094240D02*
X149397720Y-124099320D01*
M02*
