G04 #@! TF.FileFunction,Soldermask,Top*
%FSLAX46Y46*%
G04 Gerber Fmt 4.6, Leading zero omitted, Abs format (unit mm)*
G04 Created by KiCad (PCBNEW 4.0.4-stable) date 12/20/16 14:15:17*
%MOMM*%
%LPD*%
G01*
G04 APERTURE LIST*
%ADD10C,0.100000*%
%ADD11C,3.600000*%
%ADD12C,2.900000*%
%ADD13O,2.000000X2.700000*%
%ADD14R,2.127200X2.127200*%
%ADD15O,2.127200X2.127200*%
G04 APERTURE END LIST*
D10*
D11*
X160000000Y-124250000D03*
D12*
X140271680Y-108964240D03*
X138671680Y-105624240D03*
X138671680Y-101914240D03*
X140281680Y-98574240D03*
X143181680Y-96264240D03*
X146791680Y-95444240D03*
X150411680Y-96274240D03*
X153301680Y-98584240D03*
X154911680Y-105634240D03*
X154911680Y-101914240D03*
X153301680Y-108964240D03*
X150401680Y-111284240D03*
X146791680Y-112104240D03*
D13*
X138079480Y-79070200D03*
X140619480Y-79070200D03*
X143159480Y-79070200D03*
X145699480Y-79070200D03*
X148239480Y-79070200D03*
X150779480Y-79070200D03*
X153319480Y-79070200D03*
X155859480Y-79070200D03*
X155859480Y-86690200D03*
X153319480Y-86690200D03*
X150779480Y-86690200D03*
X148239480Y-86690200D03*
X145699480Y-86690200D03*
X143159480Y-86690200D03*
X140619480Y-86690200D03*
X138079480Y-86690200D03*
D14*
X141777720Y-121554240D03*
D15*
X141777720Y-124094240D03*
X144317720Y-121554240D03*
X144317720Y-124094240D03*
X146857720Y-121554240D03*
X146857720Y-124094240D03*
X149397720Y-121554240D03*
X149397720Y-124094240D03*
X151937720Y-121554240D03*
X151937720Y-124094240D03*
D11*
X132000000Y-76250000D03*
M02*
