G04 #@! TF.FileFunction,Legend,Bot*
%FSLAX46Y46*%
G04 Gerber Fmt 4.6, Leading zero omitted, Abs format (unit mm)*
G04 Created by KiCad (PCBNEW 4.0.4-stable) date 12/20/16 14:51:55*
%MOMM*%
%LPD*%
G01*
G04 APERTURE LIST*
%ADD10C,0.100000*%
%ADD11C,0.150000*%
G04 APERTURE END LIST*
D10*
D11*
X152191720Y-123078240D02*
X152191720Y-122570240D01*
X151683720Y-123078240D02*
X151683720Y-122570240D01*
X149651720Y-123078240D02*
X149651720Y-122570240D01*
X149143720Y-123078240D02*
X149143720Y-122570240D01*
X141523720Y-123078240D02*
X141523720Y-122570240D01*
X142031720Y-123078240D02*
X142031720Y-122570240D01*
X147111720Y-123078240D02*
X147111720Y-122570240D01*
X146603720Y-123078240D02*
X146603720Y-122570240D01*
X144571720Y-123078240D02*
X144571720Y-122570240D01*
X144063720Y-123078240D02*
X144063720Y-122570240D01*
X152191720Y-125618240D02*
X152191720Y-125110240D01*
X151683720Y-125618240D02*
X151683720Y-125110240D01*
X141523720Y-125618240D02*
X141523720Y-125110240D01*
X142031720Y-125618240D02*
X142031720Y-125110240D01*
X144063720Y-125618240D02*
X144063720Y-125110240D01*
X144571720Y-125618240D02*
X144571720Y-125110240D01*
X149651720Y-125618240D02*
X149651720Y-125110240D01*
X149143720Y-125618240D02*
X149143720Y-125110240D01*
X147111720Y-125618240D02*
X147111720Y-125110240D01*
X146603720Y-125618240D02*
X146603720Y-125110240D01*
X140227720Y-121554240D02*
X140227720Y-120404240D01*
X140227720Y-120404240D02*
X141777720Y-120404240D01*
X150667720Y-125618240D02*
X150667720Y-128158240D01*
X150667720Y-125618240D02*
X153207720Y-125618240D01*
X153207720Y-128158240D02*
X150667720Y-128158240D01*
X153207720Y-125618240D02*
X153207720Y-128158240D01*
X145587720Y-125618240D02*
X145587720Y-128158240D01*
X145587720Y-125618240D02*
X148127720Y-125618240D01*
X148127720Y-125618240D02*
X148127720Y-128158240D01*
X148127720Y-128158240D02*
X145587720Y-128158240D01*
X150667720Y-128158240D02*
X148127720Y-128158240D01*
X150667720Y-125618240D02*
X150667720Y-128158240D01*
X148127720Y-125618240D02*
X150667720Y-125618240D01*
X148127720Y-125618240D02*
X148127720Y-128158240D01*
X143047720Y-125618240D02*
X143047720Y-128158240D01*
X143047720Y-125618240D02*
X145587720Y-125618240D01*
X145587720Y-125618240D02*
X145587720Y-128158240D01*
X145587720Y-128158240D02*
X143047720Y-128158240D01*
X143047720Y-128158240D02*
X140507720Y-128158240D01*
X143047720Y-125618240D02*
X143047720Y-128158240D01*
X140507720Y-125618240D02*
X143047720Y-125618240D01*
X140507720Y-125618240D02*
X140507720Y-128158240D01*
X135784480Y-79205200D02*
X137054480Y-79205200D01*
X135784480Y-86555200D02*
X137054480Y-86555200D01*
X158154480Y-86555200D02*
X156884480Y-86555200D01*
X158154480Y-79205200D02*
X156884480Y-79205200D01*
X135784480Y-79205200D02*
X135784480Y-86555200D01*
X158154480Y-79205200D02*
X158154480Y-86555200D01*
X137054480Y-79205200D02*
X137054480Y-77920200D01*
X134432040Y-118760240D02*
X134432040Y-115305840D01*
X138191240Y-118760240D02*
X138191240Y-115305840D01*
X158651320Y-113038520D02*
X159651320Y-113038520D01*
X159651320Y-114738520D02*
X158651320Y-114738520D01*
X142084015Y-119994941D02*
X142084015Y-118994941D01*
X141703062Y-118994941D01*
X141607824Y-119042560D01*
X141560205Y-119090179D01*
X141512586Y-119185417D01*
X141512586Y-119328274D01*
X141560205Y-119423512D01*
X141607824Y-119471131D01*
X141703062Y-119518750D01*
X142084015Y-119518750D01*
X140560205Y-119994941D02*
X141131634Y-119994941D01*
X140845920Y-119994941D02*
X140845920Y-118994941D01*
X140941158Y-119137798D01*
X141036396Y-119233036D01*
X141131634Y-119280655D01*
X132311861Y-78308295D02*
X133121385Y-78308295D01*
X133216623Y-78355914D01*
X133264242Y-78403533D01*
X133311861Y-78498771D01*
X133311861Y-78689248D01*
X133264242Y-78784486D01*
X133216623Y-78832105D01*
X133121385Y-78879724D01*
X132311861Y-78879724D01*
X133311861Y-79879724D02*
X133311861Y-79308295D01*
X133311861Y-79594009D02*
X132311861Y-79594009D01*
X132454718Y-79498771D01*
X132549956Y-79403533D01*
X132597575Y-79308295D01*
X139939021Y-116866374D02*
X139462830Y-116533040D01*
X139939021Y-116294945D02*
X138939021Y-116294945D01*
X138939021Y-116675898D01*
X138986640Y-116771136D01*
X139034259Y-116818755D01*
X139129497Y-116866374D01*
X139272354Y-116866374D01*
X139367592Y-116818755D01*
X139415211Y-116771136D01*
X139462830Y-116675898D01*
X139462830Y-116294945D01*
X139939021Y-117818755D02*
X139939021Y-117247326D01*
X139939021Y-117533040D02*
X138939021Y-117533040D01*
X139081878Y-117437802D01*
X139177116Y-117342564D01*
X139224735Y-117247326D01*
X159317986Y-112145663D02*
X159365605Y-112193282D01*
X159508462Y-112240901D01*
X159603700Y-112240901D01*
X159746558Y-112193282D01*
X159841796Y-112098044D01*
X159889415Y-112002806D01*
X159937034Y-111812330D01*
X159937034Y-111669472D01*
X159889415Y-111478996D01*
X159841796Y-111383758D01*
X159746558Y-111288520D01*
X159603700Y-111240901D01*
X159508462Y-111240901D01*
X159365605Y-111288520D01*
X159317986Y-111336139D01*
X158365605Y-112240901D02*
X158937034Y-112240901D01*
X158651320Y-112240901D02*
X158651320Y-111240901D01*
X158746558Y-111383758D01*
X158841796Y-111478996D01*
X158937034Y-111526615D01*
M02*
