G04 #@! TF.FileFunction,Copper,L2,Bot,Signal*
%FSLAX46Y46*%
G04 Gerber Fmt 4.6, Leading zero omitted, Abs format (unit mm)*
G04 Created by KiCad (PCBNEW 4.0.4-stable) date 12/20/16 14:51:55*
%MOMM*%
%LPD*%
G01*
G04 APERTURE LIST*
%ADD10C,0.100000*%
%ADD11R,1.727200X1.727200*%
%ADD12O,1.727200X1.727200*%
%ADD13O,1.600000X2.300000*%
%ADD14R,3.500000X3.500000*%
%ADD15C,2.500000*%
%ADD16R,1.500000X1.250000*%
%ADD17C,0.889000*%
%ADD18C,1.524000*%
%ADD19C,0.381000*%
%ADD20C,1.016000*%
%ADD21C,0.508000*%
G04 APERTURE END LIST*
D10*
D11*
X141777720Y-121554240D03*
D12*
X141777720Y-124094240D03*
X144317720Y-121554240D03*
X144317720Y-124094240D03*
X146857720Y-121554240D03*
X146857720Y-124094240D03*
X149397720Y-121554240D03*
X149397720Y-124094240D03*
X151937720Y-121554240D03*
X151937720Y-124094240D03*
D13*
X138079480Y-79070200D03*
X140619480Y-79070200D03*
X143159480Y-79070200D03*
X145699480Y-79070200D03*
X148239480Y-79070200D03*
X150779480Y-79070200D03*
X153319480Y-79070200D03*
X155859480Y-79070200D03*
X155859480Y-86690200D03*
X153319480Y-86690200D03*
X150779480Y-86690200D03*
X148239480Y-86690200D03*
X145699480Y-86690200D03*
X143159480Y-86690200D03*
X140619480Y-86690200D03*
X138079480Y-86690200D03*
D14*
X136311640Y-120436640D03*
X136311640Y-113629440D03*
D15*
X140271680Y-108964240D03*
X138671680Y-105624240D03*
X138671680Y-101914240D03*
X140281680Y-98574240D03*
X143181680Y-96264240D03*
X146791680Y-95444240D03*
X150411680Y-96274240D03*
X153301680Y-98584240D03*
X154911680Y-105634240D03*
X154911680Y-101914240D03*
X153301680Y-108964240D03*
X150401680Y-111284240D03*
X146791680Y-112104240D03*
D16*
X160401320Y-113888520D03*
X157901320Y-113888520D03*
D17*
X137750000Y-94000000D03*
X137750000Y-89750000D03*
X144250000Y-89750000D03*
X154750000Y-95250000D03*
X156524960Y-90581480D03*
X159750000Y-88500000D03*
X144551400Y-82661760D03*
D18*
X160401320Y-113888520D02*
X160401320Y-92098680D01*
X160401320Y-78374560D02*
X157998160Y-75971400D01*
X157998160Y-75971400D02*
X149600920Y-75971400D01*
X149600920Y-75971400D02*
X148239480Y-77332840D01*
X148239480Y-77332840D02*
X148239480Y-79070200D01*
X162000000Y-79973240D02*
X160401320Y-78374560D01*
X162000000Y-90500000D02*
X162000000Y-79973240D01*
X160401320Y-92098680D02*
X162000000Y-90500000D01*
X155590240Y-121554240D02*
X160401320Y-116743160D01*
X151937720Y-121554240D02*
X155590240Y-121554240D01*
X160401320Y-116743160D02*
X160401320Y-113888520D01*
X149382480Y-89489280D02*
X152239280Y-89489280D01*
X149382480Y-89489280D02*
X148239480Y-88346280D01*
X148239480Y-86690200D02*
X148239480Y-88346280D01*
X157901320Y-95151320D02*
X157901320Y-113888520D01*
X152239280Y-89489280D02*
X157901320Y-95151320D01*
X157901320Y-113888520D02*
X157906720Y-113883120D01*
X154884120Y-118912640D02*
X157901320Y-115895440D01*
X149397720Y-120533160D02*
X151018240Y-118912640D01*
X151018240Y-118912640D02*
X154884120Y-118912640D01*
X149397720Y-121554240D02*
X149397720Y-120533160D01*
X157901320Y-115895440D02*
X157901320Y-113888520D01*
X144317720Y-121554240D02*
X146857720Y-121554240D01*
X146857720Y-121554240D02*
X149397720Y-121554240D01*
D19*
X133973452Y-95500777D02*
X140619480Y-88854749D01*
X140619480Y-88854749D02*
X140619480Y-86690200D01*
X135473440Y-106293920D02*
X133974840Y-104795320D01*
X138143760Y-108964240D02*
X140271680Y-108964240D01*
X138143760Y-108964240D02*
X135473440Y-106293920D01*
X133974840Y-97977960D02*
X133973452Y-95500777D01*
X133973452Y-95500777D02*
X133973440Y-95479360D01*
X133974840Y-104795320D02*
X133974840Y-97977960D01*
X140619480Y-86690200D02*
X140619480Y-87553800D01*
X135773720Y-98250000D02*
X135773720Y-95976280D01*
X135483600Y-87483600D02*
X137750000Y-89750000D01*
X137215880Y-84409280D02*
X135483600Y-86141560D01*
X151048720Y-84409280D02*
X137215880Y-84409280D01*
X151048720Y-84409280D02*
X155859480Y-79598520D01*
X135483600Y-86141560D02*
X135483600Y-87483600D01*
X135773720Y-95976280D02*
X137750000Y-94000000D01*
X135773720Y-102726280D02*
X136509760Y-103462320D01*
X138671680Y-105624240D02*
X136509760Y-103462320D01*
X135773720Y-102726280D02*
X135773720Y-98250000D01*
X135773720Y-98250000D02*
X135773720Y-98226280D01*
X138671680Y-105624240D02*
X138425800Y-105624240D01*
X155859480Y-79070200D02*
X155859480Y-79598520D01*
X148250001Y-92247855D02*
X146747855Y-92247855D01*
X146747855Y-92247855D02*
X144250000Y-89750000D01*
X151749866Y-92249735D02*
X148250001Y-92247855D01*
X148250001Y-92247855D02*
X147997720Y-92247720D01*
X154750000Y-95250000D02*
X151749866Y-92249735D01*
X142500000Y-89000000D02*
X142500000Y-92750000D01*
X143159480Y-86690200D02*
X143159480Y-88340520D01*
X142500000Y-89000000D02*
X143159480Y-88340520D01*
X143181680Y-93431680D02*
X143181680Y-96264240D01*
X142500000Y-92750000D02*
X143181680Y-93431680D01*
X156524960Y-90581480D02*
X157668520Y-90581480D01*
X157668520Y-90581480D02*
X159750000Y-88500000D01*
D20*
X140426440Y-113756440D02*
X145303240Y-108879640D01*
X137652760Y-113756440D02*
X140426440Y-113756440D01*
X145303240Y-108879640D02*
X147997080Y-108879640D01*
X147997080Y-108879640D02*
X150401680Y-111284240D01*
D21*
X137652760Y-113756440D02*
X139207240Y-113756440D01*
D19*
X145699480Y-81513680D02*
X145699480Y-79070200D01*
X144551400Y-82661760D02*
X145699480Y-81513680D01*
D20*
X141777720Y-121554240D02*
X137429240Y-121554240D01*
X137429240Y-121554240D02*
X136311640Y-120436640D01*
M02*
