M48
;DRILL file {KiCad 4.0.4-stable} date 12/20/16 14:52:04
;FORMAT={-:-/ absolute / metric / decimal}
FMAT,2
METRIC,TZ
T1C0.635
T2C0.800
T3C1.016
T4C1.500
T5C3.200
%
G90
G05
M71
T1
X137.75Y-89.75
X137.75Y-94.
X144.25Y-89.75
X144.551Y-82.662
X154.75Y-95.25
X156.525Y-90.581
X159.75Y-88.5
T2
X138.079Y-79.07
X138.079Y-86.69
X140.619Y-79.07
X140.619Y-86.69
X143.159Y-79.07
X143.159Y-86.69
X145.699Y-79.07
X145.699Y-86.69
X148.239Y-79.07
X148.239Y-86.69
X150.779Y-79.07
X150.779Y-86.69
X153.319Y-79.07
X153.319Y-86.69
X155.859Y-79.07
X155.859Y-86.69
T3
X141.778Y-121.554
X141.778Y-124.094
X144.318Y-121.554
X144.318Y-124.094
X146.858Y-121.554
X146.858Y-124.094
X149.398Y-121.554
X149.398Y-124.094
X151.938Y-121.554
X151.938Y-124.094
T4
X138.672Y-101.914
X138.672Y-105.624
X140.272Y-108.964
X140.282Y-98.574
X143.182Y-96.264
X146.792Y-95.444
X146.792Y-112.104
X150.402Y-111.284
X150.412Y-96.274
X153.302Y-98.584
X153.302Y-108.964
X154.912Y-101.914
X154.912Y-105.634
T5
X132.Y-76.25
X160.Y-124.25
T0
M30
