G04 #@! TF.FileFunction,Legend,Bot*
%FSLAX46Y46*%
G04 Gerber Fmt 4.6, Leading zero omitted, Abs format (unit mm)*
G04 Created by KiCad (PCBNEW 4.0.4-stable) date 12/20/16 14:15:17*
%MOMM*%
%LPD*%
G01*
G04 APERTURE LIST*
%ADD10C,0.100000*%
%ADD11C,0.150000*%
G04 APERTURE END LIST*
D10*
D11*
X158651320Y-113038520D02*
X159651320Y-113038520D01*
X159651320Y-114738520D02*
X158651320Y-114738520D01*
X134432040Y-118760240D02*
X134432040Y-115305840D01*
X138191240Y-118760240D02*
X138191240Y-115305840D01*
X135784480Y-79205200D02*
X137054480Y-79205200D01*
X135784480Y-86555200D02*
X137054480Y-86555200D01*
X158154480Y-86555200D02*
X156884480Y-86555200D01*
X158154480Y-79205200D02*
X156884480Y-79205200D01*
X135784480Y-79205200D02*
X135784480Y-86555200D01*
X158154480Y-79205200D02*
X158154480Y-86555200D01*
X137054480Y-79205200D02*
X137054480Y-77920200D01*
X152191720Y-123078240D02*
X152191720Y-122570240D01*
X151683720Y-123078240D02*
X151683720Y-122570240D01*
X149651720Y-123078240D02*
X149651720Y-122570240D01*
X149143720Y-123078240D02*
X149143720Y-122570240D01*
X141523720Y-123078240D02*
X141523720Y-122570240D01*
X142031720Y-123078240D02*
X142031720Y-122570240D01*
X147111720Y-123078240D02*
X147111720Y-122570240D01*
X146603720Y-123078240D02*
X146603720Y-122570240D01*
X144571720Y-123078240D02*
X144571720Y-122570240D01*
X144063720Y-123078240D02*
X144063720Y-122570240D01*
X152191720Y-125618240D02*
X152191720Y-125110240D01*
X151683720Y-125618240D02*
X151683720Y-125110240D01*
X141523720Y-125618240D02*
X141523720Y-125110240D01*
X142031720Y-125618240D02*
X142031720Y-125110240D01*
X144063720Y-125618240D02*
X144063720Y-125110240D01*
X144571720Y-125618240D02*
X144571720Y-125110240D01*
X149651720Y-125618240D02*
X149651720Y-125110240D01*
X149143720Y-125618240D02*
X149143720Y-125110240D01*
X147111720Y-125618240D02*
X147111720Y-125110240D01*
X146603720Y-125618240D02*
X146603720Y-125110240D01*
X140227720Y-121554240D02*
X140227720Y-120404240D01*
X140227720Y-120404240D02*
X141777720Y-120404240D01*
X141650720Y-128158240D02*
X141650720Y-134127240D01*
X141650720Y-134127240D02*
X141904720Y-134127240D01*
X141904720Y-134127240D02*
X141904720Y-128285240D01*
X141904720Y-128285240D02*
X141777720Y-128285240D01*
X141777720Y-128285240D02*
X141777720Y-134127240D01*
X150667720Y-125618240D02*
X150667720Y-128158240D01*
X150667720Y-125618240D02*
X153207720Y-125618240D01*
X151683720Y-128158240D02*
X151683720Y-134254240D01*
X151683720Y-134254240D02*
X152191720Y-134254240D01*
X152191720Y-134254240D02*
X152191720Y-128158240D01*
X153207720Y-128158240D02*
X150667720Y-128158240D01*
X153207720Y-125618240D02*
X153207720Y-128158240D01*
X145587720Y-125618240D02*
X145587720Y-128158240D01*
X145587720Y-125618240D02*
X148127720Y-125618240D01*
X148127720Y-125618240D02*
X148127720Y-128158240D01*
X146603720Y-128158240D02*
X146603720Y-134254240D01*
X146603720Y-134254240D02*
X147111720Y-134254240D01*
X147111720Y-134254240D02*
X147111720Y-128158240D01*
X148127720Y-128158240D02*
X145587720Y-128158240D01*
X150667720Y-128158240D02*
X148127720Y-128158240D01*
X149651720Y-134254240D02*
X149651720Y-128158240D01*
X149143720Y-134254240D02*
X149651720Y-134254240D01*
X149143720Y-128158240D02*
X149143720Y-134254240D01*
X150667720Y-125618240D02*
X150667720Y-128158240D01*
X148127720Y-125618240D02*
X150667720Y-125618240D01*
X148127720Y-125618240D02*
X148127720Y-128158240D01*
X143047720Y-125618240D02*
X143047720Y-128158240D01*
X143047720Y-125618240D02*
X145587720Y-125618240D01*
X145587720Y-125618240D02*
X145587720Y-128158240D01*
X144063720Y-128158240D02*
X144063720Y-134254240D01*
X144063720Y-134254240D02*
X144571720Y-134254240D01*
X144571720Y-134254240D02*
X144571720Y-128158240D01*
X145587720Y-128158240D02*
X143047720Y-128158240D01*
X143047720Y-128158240D02*
X140507720Y-128158240D01*
X142031720Y-134254240D02*
X142031720Y-128158240D01*
X141523720Y-134254240D02*
X142031720Y-134254240D01*
X141523720Y-128158240D02*
X141523720Y-134254240D01*
X143047720Y-125618240D02*
X143047720Y-128158240D01*
X140507720Y-125618240D02*
X143047720Y-125618240D01*
X140507720Y-125618240D02*
X140507720Y-128158240D01*
X158215626Y-112503223D02*
X158263245Y-112550842D01*
X158406102Y-112598461D01*
X158501340Y-112598461D01*
X158644198Y-112550842D01*
X158739436Y-112455604D01*
X158787055Y-112360366D01*
X158834674Y-112169890D01*
X158834674Y-112027032D01*
X158787055Y-111836556D01*
X158739436Y-111741318D01*
X158644198Y-111646080D01*
X158501340Y-111598461D01*
X158406102Y-111598461D01*
X158263245Y-111646080D01*
X158215626Y-111693699D01*
X157263245Y-112598461D02*
X157834674Y-112598461D01*
X157548960Y-112598461D02*
X157548960Y-111598461D01*
X157644198Y-111741318D01*
X157739436Y-111836556D01*
X157834674Y-111884175D01*
X135614706Y-111287821D02*
X135948040Y-110811630D01*
X136186135Y-111287821D02*
X136186135Y-110287821D01*
X135805182Y-110287821D01*
X135709944Y-110335440D01*
X135662325Y-110383059D01*
X135614706Y-110478297D01*
X135614706Y-110621154D01*
X135662325Y-110716392D01*
X135709944Y-110764011D01*
X135805182Y-110811630D01*
X136186135Y-110811630D01*
X134662325Y-111287821D02*
X135233754Y-111287821D01*
X134948040Y-111287821D02*
X134948040Y-110287821D01*
X135043278Y-110430678D01*
X135138516Y-110525916D01*
X135233754Y-110573535D01*
X137337705Y-76388981D02*
X137337705Y-77198505D01*
X137290086Y-77293743D01*
X137242467Y-77341362D01*
X137147229Y-77388981D01*
X136956752Y-77388981D01*
X136861514Y-77341362D01*
X136813895Y-77293743D01*
X136766276Y-77198505D01*
X136766276Y-76388981D01*
X135766276Y-77388981D02*
X136337705Y-77388981D01*
X136051991Y-77388981D02*
X136051991Y-76388981D01*
X136147229Y-76531838D01*
X136242467Y-76627076D01*
X136337705Y-76674695D01*
X142084015Y-119994941D02*
X142084015Y-118994941D01*
X141703062Y-118994941D01*
X141607824Y-119042560D01*
X141560205Y-119090179D01*
X141512586Y-119185417D01*
X141512586Y-119328274D01*
X141560205Y-119423512D01*
X141607824Y-119471131D01*
X141703062Y-119518750D01*
X142084015Y-119518750D01*
X140560205Y-119994941D02*
X141131634Y-119994941D01*
X140845920Y-119994941D02*
X140845920Y-118994941D01*
X140941158Y-119137798D01*
X141036396Y-119233036D01*
X141131634Y-119280655D01*
M02*
