G04 #@! TF.FileFunction,Legend,Top*
%FSLAX46Y46*%
G04 Gerber Fmt 4.6, Leading zero omitted, Abs format (unit mm)*
G04 Created by KiCad (PCBNEW 4.0.4-stable) date 12/20/16 14:15:17*
%MOMM*%
%LPD*%
G01*
G04 APERTURE LIST*
%ADD10C,0.100000*%
%ADD11C,0.150000*%
G04 APERTURE END LIST*
D10*
D11*
X158666667Y-120502381D02*
X158333333Y-120026190D01*
X158095238Y-120502381D02*
X158095238Y-119502381D01*
X158476191Y-119502381D01*
X158571429Y-119550000D01*
X158619048Y-119597619D01*
X158666667Y-119692857D01*
X158666667Y-119835714D01*
X158619048Y-119930952D01*
X158571429Y-119978571D01*
X158476191Y-120026190D01*
X158095238Y-120026190D01*
X159095238Y-119978571D02*
X159428572Y-119978571D01*
X159571429Y-120502381D02*
X159095238Y-120502381D01*
X159095238Y-119502381D01*
X159571429Y-119502381D01*
X160333334Y-119978571D02*
X160000000Y-119978571D01*
X160000000Y-120502381D02*
X160000000Y-119502381D01*
X160476191Y-119502381D01*
X161000000Y-119502381D02*
X161000000Y-119740476D01*
X160761905Y-119645238D02*
X161000000Y-119740476D01*
X161238096Y-119645238D01*
X160857143Y-119930952D02*
X161000000Y-119740476D01*
X161142858Y-119930952D01*
X161761905Y-119502381D02*
X161761905Y-119740476D01*
X161523810Y-119645238D02*
X161761905Y-119740476D01*
X162000001Y-119645238D01*
X161619048Y-119930952D02*
X161761905Y-119740476D01*
X161904763Y-119930952D01*
X155153764Y-94340371D02*
X155487098Y-94340371D01*
X155629955Y-94864181D02*
X155153764Y-94864181D01*
X155153764Y-93864181D01*
X155629955Y-93864181D01*
X156582336Y-94864181D02*
X156010907Y-94864181D01*
X156296621Y-94864181D02*
X156296621Y-93864181D01*
X156201383Y-94007038D01*
X156106145Y-94102276D01*
X156010907Y-94149895D01*
X130666667Y-72502381D02*
X130333333Y-72026190D01*
X130095238Y-72502381D02*
X130095238Y-71502381D01*
X130476191Y-71502381D01*
X130571429Y-71550000D01*
X130619048Y-71597619D01*
X130666667Y-71692857D01*
X130666667Y-71835714D01*
X130619048Y-71930952D01*
X130571429Y-71978571D01*
X130476191Y-72026190D01*
X130095238Y-72026190D01*
X131095238Y-71978571D02*
X131428572Y-71978571D01*
X131571429Y-72502381D02*
X131095238Y-72502381D01*
X131095238Y-71502381D01*
X131571429Y-71502381D01*
X132333334Y-71978571D02*
X132000000Y-71978571D01*
X132000000Y-72502381D02*
X132000000Y-71502381D01*
X132476191Y-71502381D01*
X133000000Y-71502381D02*
X133000000Y-71740476D01*
X132761905Y-71645238D02*
X133000000Y-71740476D01*
X133238096Y-71645238D01*
X132857143Y-71930952D02*
X133000000Y-71740476D01*
X133142858Y-71930952D01*
X133761905Y-71502381D02*
X133761905Y-71740476D01*
X133523810Y-71645238D02*
X133761905Y-71740476D01*
X134000001Y-71645238D01*
X133619048Y-71930952D02*
X133761905Y-71740476D01*
X133904763Y-71930952D01*
M02*
