G04 #@! TF.GenerationSoftware,KiCad,Pcbnew,no-vcs-found-7406~56~ubuntu16.10.1*
G04 #@! TF.CreationDate,2016-12-22T10:55:13+01:00*
G04 #@! TF.ProjectId,nixie-module,6E697869652D6D6F64756C652E6B6963,rev?*
G04 #@! TF.FileFunction,Soldermask,Top*
G04 #@! TF.FilePolarity,Negative*
%FSLAX46Y46*%
G04 Gerber Fmt 4.6, Leading zero omitted, Abs format (unit mm)*
G04 Created by KiCad (PCBNEW no-vcs-found-7406~56~ubuntu16.10.1) date Thu Dec 22 10:55:13 2016*
%MOMM*%
%LPD*%
G01*
G04 APERTURE LIST*
%ADD10C,0.100000*%
%ADD11R,2.127200X2.127200*%
%ADD12O,2.127200X2.127200*%
%ADD13O,2.000000X2.700000*%
%ADD14C,2.900000*%
%ADD15C,3.600000*%
G04 APERTURE END LIST*
D10*
D11*
X141732000Y-120904000D03*
D12*
X141732000Y-118364000D03*
X144272000Y-120904000D03*
X144272000Y-118364000D03*
X146812000Y-120904000D03*
X146812000Y-118364000D03*
X149352000Y-120904000D03*
X149352000Y-118364000D03*
X151892000Y-120904000D03*
X151892000Y-118364000D03*
D13*
X138079480Y-79070200D03*
X140619480Y-79070200D03*
X143159480Y-79070200D03*
X145699480Y-79070200D03*
X148239480Y-79070200D03*
X150779480Y-79070200D03*
X153319480Y-79070200D03*
X155859480Y-79070200D03*
X155859480Y-86690200D03*
X153319480Y-86690200D03*
X150779480Y-86690200D03*
X148239480Y-86690200D03*
X145699480Y-86690200D03*
X143159480Y-86690200D03*
X140619480Y-86690200D03*
X138079480Y-86690200D03*
D14*
X140271680Y-108964240D03*
X138671680Y-105624240D03*
X138671680Y-101914240D03*
X140281680Y-98574240D03*
X143181680Y-96264240D03*
X146791680Y-95444240D03*
X150411680Y-96274240D03*
X153301680Y-98584240D03*
X154911680Y-105634240D03*
X154911680Y-101914240D03*
X153301680Y-108964240D03*
X150401680Y-111284240D03*
X146791680Y-112104240D03*
D15*
X160000000Y-120500000D03*
X132000000Y-79000000D03*
M02*
