G04 #@! TF.GenerationSoftware,KiCad,Pcbnew,no-vcs-found-7406~56~ubuntu16.10.1*
G04 #@! TF.CreationDate,2016-12-22T13:28:21+01:00*
G04 #@! TF.ProjectId,nixie-clock,6E697869652D636C6F636B2E6B696361,rev?*
G04 #@! TF.FileFunction,Legend,Top*
G04 #@! TF.FilePolarity,Positive*
%FSLAX46Y46*%
G04 Gerber Fmt 4.6, Leading zero omitted, Abs format (unit mm)*
G04 Created by KiCad (PCBNEW no-vcs-found-7406~56~ubuntu16.10.1) date Thu Dec 22 13:28:21 2016*
%MOMM*%
%LPD*%
G01*
G04 APERTURE LIST*
%ADD10C,0.100000*%
%ADD11C,0.150000*%
G04 APERTURE END LIST*
D10*
D11*
X182435500Y-132016500D02*
X182435500Y-135064500D01*
X182435500Y-135064500D02*
X189547500Y-135064500D01*
X189547500Y-135064500D02*
X189547500Y-132016500D01*
X182435500Y-128968500D02*
X182435500Y-128206500D01*
X182435500Y-128206500D02*
X183959500Y-125920500D01*
X183959500Y-125920500D02*
X188023500Y-125920500D01*
X188023500Y-125920500D02*
X189547500Y-128206500D01*
X189547500Y-128206500D02*
X189547500Y-128968500D01*
X122580400Y-128320800D02*
X122580400Y-129590800D01*
X121945400Y-128955800D02*
X123215400Y-128955800D01*
X118135400Y-121970800D02*
X124485400Y-121970800D01*
X124485400Y-121970800D02*
X124485400Y-127050800D01*
X124485400Y-127050800D02*
X118135400Y-127050800D01*
X124485400Y-121335800D02*
X125120400Y-121335800D01*
X125120400Y-121335800D02*
X125120400Y-127685800D01*
X125120400Y-127685800D02*
X124485400Y-127685800D01*
X123215400Y-121335800D02*
X124485400Y-121335800D01*
X124485400Y-127685800D02*
X118135400Y-127685800D01*
X118135400Y-121335800D02*
X123215400Y-121335800D01*
X116320656Y-124510800D02*
G75*
G03X116320656Y-124510800I-8980256J0D01*
G01*
X118265353Y-124510800D02*
G75*
G03X118265353Y-124510800I-10924953J0D01*
G01*
X123356000Y-129675000D02*
X123356000Y-130675000D01*
X125056000Y-130675000D02*
X125056000Y-129675000D01*
X157954600Y-127674000D02*
X156954600Y-127674000D01*
X156954600Y-129374000D02*
X157954600Y-129374000D01*
X157929200Y-129782200D02*
X156929200Y-129782200D01*
X156929200Y-131482200D02*
X157929200Y-131482200D01*
X138873600Y-131868800D02*
X138873600Y-130868800D01*
X137173600Y-130868800D02*
X137173600Y-131868800D01*
X148937600Y-132779400D02*
X147937600Y-132779400D01*
X147937600Y-134479400D02*
X148937600Y-134479400D01*
X139784200Y-120458600D02*
X140784200Y-120458600D01*
X140784200Y-118758600D02*
X139784200Y-118758600D01*
X152003760Y-138297920D02*
X152003760Y-134498080D01*
X145303240Y-138297920D02*
X150301960Y-138297920D01*
X145305780Y-134498080D02*
X150304500Y-134498080D01*
X152506680Y-139301220D02*
X152506680Y-138201400D01*
X153106120Y-138800840D02*
X151907240Y-138800840D01*
X152001600Y-126884800D02*
X153001600Y-126884800D01*
X153001600Y-125184800D02*
X152001600Y-125184800D01*
X60434220Y-131244340D02*
X60434220Y-134642860D01*
X68684140Y-134642860D02*
X62684660Y-134642860D01*
X68684140Y-131244340D02*
X62684660Y-131244340D01*
X59931300Y-130241040D02*
X59931300Y-131340860D01*
X59331860Y-130741420D02*
X60530740Y-130741420D01*
X224282000Y-125755400D02*
X221399100Y-125755400D01*
X215392000Y-125755400D02*
X218274900Y-125755400D01*
X214630000Y-136169400D02*
X218274900Y-136169400D01*
X225044000Y-136169400D02*
X221399100Y-136169400D01*
X218274900Y-126212600D02*
G75*
G03X218274900Y-135712200I1562100J-4749800D01*
G01*
X221399100Y-135712200D02*
G75*
G03X221399100Y-126212600I-1562100J4749800D01*
G01*
X214630000Y-136169400D02*
X214630000Y-126517400D01*
X214630000Y-126517400D02*
X215392000Y-125755400D01*
X224282000Y-125755400D02*
X225044000Y-126517400D01*
X225044000Y-126517400D02*
X225044000Y-136169400D01*
X201980800Y-121183400D02*
X199097900Y-121183400D01*
X193090800Y-121183400D02*
X195973700Y-121183400D01*
X192328800Y-131597400D02*
X195973700Y-131597400D01*
X202742800Y-131597400D02*
X199097900Y-131597400D01*
X195973700Y-121640600D02*
G75*
G03X195973700Y-131140200I1562100J-4749800D01*
G01*
X199097900Y-131140200D02*
G75*
G03X199097900Y-121640600I-1562100J4749800D01*
G01*
X192328800Y-131597400D02*
X192328800Y-121945400D01*
X192328800Y-121945400D02*
X193090800Y-121183400D01*
X201980800Y-121183400D02*
X202742800Y-121945400D01*
X202742800Y-121945400D02*
X202742800Y-131597400D01*
X210986000Y-125280800D02*
X210986000Y-126280800D01*
X212686000Y-126280800D02*
X212686000Y-125280800D01*
X198411200Y-117289200D02*
X198411200Y-116289200D01*
X196711200Y-116289200D02*
X196711200Y-117289200D01*
X168473120Y-125846840D02*
X164673280Y-125846840D01*
X168473120Y-132547360D02*
X168473120Y-127548640D01*
X164673280Y-132544820D02*
X164673280Y-127546100D01*
X169476420Y-125343920D02*
X168376600Y-125343920D01*
X168976040Y-124744480D02*
X168976040Y-125943360D01*
X157152340Y-125239780D02*
X160550860Y-125239780D01*
X160550860Y-116989860D02*
X160550860Y-122989340D01*
X157152340Y-116989860D02*
X157152340Y-122989340D01*
X156149040Y-125742700D02*
X157248860Y-125742700D01*
X156649420Y-126342140D02*
X156649420Y-125143260D01*
X202449800Y-140809600D02*
X202449800Y-139809600D01*
X200749800Y-139809600D02*
X200749800Y-140809600D01*
X98153600Y-137375000D02*
X99153600Y-137375000D01*
X99153600Y-135675000D02*
X98153600Y-135675000D01*
X120294400Y-129945180D02*
X120995440Y-129945180D01*
X120995440Y-129945180D02*
X120995440Y-130194100D01*
X120995440Y-132744160D02*
X120995440Y-132944820D01*
X120995440Y-132944820D02*
X120294400Y-132944820D01*
X161442400Y-119744020D02*
X161442400Y-119594160D01*
X161442400Y-120592380D02*
X161442400Y-120793040D01*
X161442400Y-119744020D02*
X160693100Y-119744020D01*
X161442400Y-119744020D02*
X162143440Y-119744020D01*
X161442400Y-119744020D02*
X162143440Y-120592380D01*
X162143440Y-120592380D02*
X160741360Y-120592380D01*
X160741360Y-120592380D02*
X161442400Y-119744020D01*
X154398980Y-122948700D02*
X153347420Y-122948700D01*
X153296620Y-124548900D02*
X154348180Y-124548900D01*
X63032000Y-120142600D02*
X60607000Y-120142600D01*
X63282000Y-122402600D02*
X67782000Y-122402600D01*
X68032000Y-130022600D02*
X68032000Y-129742600D01*
X68032000Y-130022600D02*
X63032000Y-130022600D01*
X63032000Y-130022600D02*
X63032000Y-129742600D01*
X63032000Y-119862600D02*
X63032000Y-120142600D01*
X68032000Y-119862600D02*
X63032000Y-119862600D01*
X68032000Y-122021600D02*
X68032000Y-122148600D01*
X68032000Y-122148600D02*
X67778000Y-122402600D01*
X67778000Y-122402600D02*
X68032000Y-122656600D01*
X68032000Y-122656600D02*
X68032000Y-122783600D01*
X68032000Y-119862600D02*
X68032000Y-120142600D01*
X68032000Y-124561600D02*
X68032000Y-124688600D01*
X68032000Y-127101600D02*
X68032000Y-127228600D01*
X63032000Y-122783600D02*
X63032000Y-122656600D01*
X67778000Y-124942600D02*
X68032000Y-125196600D01*
X67778000Y-127482600D02*
X68032000Y-127736600D01*
X63286000Y-122402600D02*
X63032000Y-122148600D01*
X68032000Y-125196600D02*
X68032000Y-125323600D01*
X68032000Y-127736600D02*
X68032000Y-127863600D01*
X63032000Y-122148600D02*
X63032000Y-122021600D01*
X68032000Y-124688600D02*
X67778000Y-124942600D01*
X68032000Y-127228600D02*
X67778000Y-127482600D01*
X63032000Y-122656600D02*
X63286000Y-122402600D01*
X63032000Y-125323600D02*
X63032000Y-125196600D01*
X63032000Y-127863600D02*
X63032000Y-127736600D01*
X63032000Y-124688600D02*
X63032000Y-124561600D01*
X63032000Y-127228600D02*
X63032000Y-127101600D01*
X63286000Y-124942600D02*
X63032000Y-124688600D01*
X63286000Y-127482600D02*
X63032000Y-127228600D01*
X63032000Y-125196600D02*
X63286000Y-124942600D01*
X63032000Y-127736600D02*
X63286000Y-127482600D01*
X63282000Y-124942600D02*
X67782000Y-124942600D01*
X63282000Y-127482600D02*
X67782000Y-127482600D01*
X133437000Y-131262000D02*
X135862000Y-131262000D01*
X133187000Y-129032000D02*
X128687000Y-129032000D01*
X128437000Y-123952000D02*
X128437000Y-124232000D01*
X128437000Y-123952000D02*
X133437000Y-123952000D01*
X133437000Y-123952000D02*
X133437000Y-124232000D01*
X133437000Y-131572000D02*
X133437000Y-131292000D01*
X128437000Y-131572000D02*
X133437000Y-131572000D01*
X128437000Y-129413000D02*
X128437000Y-129286000D01*
X128437000Y-129286000D02*
X128691000Y-129032000D01*
X128691000Y-129032000D02*
X128437000Y-128778000D01*
X128437000Y-128778000D02*
X128437000Y-128651000D01*
X128437000Y-131572000D02*
X128437000Y-131292000D01*
X128437000Y-126873000D02*
X128437000Y-126746000D01*
X133437000Y-128651000D02*
X133437000Y-128778000D01*
X128691000Y-126492000D02*
X128437000Y-126238000D01*
X133183000Y-129032000D02*
X133437000Y-129286000D01*
X128437000Y-126238000D02*
X128437000Y-126111000D01*
X133437000Y-129286000D02*
X133437000Y-129413000D01*
X128437000Y-126746000D02*
X128691000Y-126492000D01*
X133437000Y-128778000D02*
X133183000Y-129032000D01*
X133437000Y-126111000D02*
X133437000Y-126238000D01*
X133437000Y-126746000D02*
X133437000Y-126873000D01*
X133183000Y-126492000D02*
X133437000Y-126746000D01*
X133437000Y-126238000D02*
X133183000Y-126492000D01*
X133187000Y-126492000D02*
X128687000Y-126492000D01*
X224388680Y-111950500D02*
X215386920Y-111950500D01*
X224388680Y-108450380D02*
X215386920Y-108450380D01*
X215386920Y-108450380D02*
X215386920Y-122951240D01*
X215386920Y-122951240D02*
X224388680Y-122951240D01*
X224388680Y-122951240D02*
X224388680Y-108450380D01*
X165400000Y-146010000D02*
X165400000Y-148435000D01*
X175260000Y-145760000D02*
X175260000Y-141260000D01*
X175514000Y-146010000D02*
X175260000Y-145756000D01*
X175260000Y-145756000D02*
X175006000Y-146010000D01*
X175006000Y-146010000D02*
X174879000Y-146010000D01*
X175641000Y-146010000D02*
X175514000Y-146010000D01*
X175006000Y-141010000D02*
X175260000Y-141264000D01*
X175514000Y-141010000D02*
X175641000Y-141010000D01*
X175260000Y-141264000D02*
X175514000Y-141010000D01*
X174879000Y-141010000D02*
X175006000Y-141010000D01*
X167640000Y-145760000D02*
X167640000Y-141260000D01*
X177800000Y-141010000D02*
X177520000Y-141010000D01*
X177800000Y-141010000D02*
X177800000Y-146010000D01*
X177800000Y-146010000D02*
X177520000Y-146010000D01*
X165100000Y-146010000D02*
X165380000Y-146010000D01*
X165100000Y-141010000D02*
X165100000Y-146010000D01*
X167259000Y-141010000D02*
X167386000Y-141010000D01*
X167386000Y-141010000D02*
X167640000Y-141264000D01*
X167640000Y-141264000D02*
X167894000Y-141010000D01*
X167894000Y-141010000D02*
X168021000Y-141010000D01*
X165100000Y-141010000D02*
X165380000Y-141010000D01*
X169799000Y-141010000D02*
X169926000Y-141010000D01*
X172339000Y-141010000D02*
X172466000Y-141010000D01*
X168021000Y-146010000D02*
X167894000Y-146010000D01*
X170180000Y-141264000D02*
X170434000Y-141010000D01*
X172720000Y-141264000D02*
X172974000Y-141010000D01*
X167640000Y-145756000D02*
X167386000Y-146010000D01*
X170434000Y-141010000D02*
X170561000Y-141010000D01*
X172974000Y-141010000D02*
X173101000Y-141010000D01*
X167386000Y-146010000D02*
X167259000Y-146010000D01*
X169926000Y-141010000D02*
X170180000Y-141264000D01*
X172466000Y-141010000D02*
X172720000Y-141264000D01*
X167894000Y-146010000D02*
X167640000Y-145756000D01*
X170561000Y-146010000D02*
X170434000Y-146010000D01*
X173101000Y-146010000D02*
X172974000Y-146010000D01*
X169926000Y-146010000D02*
X169799000Y-146010000D01*
X172466000Y-146010000D02*
X172339000Y-146010000D01*
X170180000Y-145756000D02*
X169926000Y-146010000D01*
X172720000Y-145756000D02*
X172466000Y-146010000D01*
X170434000Y-146010000D02*
X170180000Y-145756000D01*
X172974000Y-146010000D02*
X172720000Y-145756000D01*
X170180000Y-145760000D02*
X170180000Y-141260000D01*
X172720000Y-145760000D02*
X172720000Y-141260000D01*
X211120000Y-146010000D02*
X211120000Y-148435000D01*
X220980000Y-145760000D02*
X220980000Y-141260000D01*
X221234000Y-146010000D02*
X220980000Y-145756000D01*
X220980000Y-145756000D02*
X220726000Y-146010000D01*
X220726000Y-146010000D02*
X220599000Y-146010000D01*
X221361000Y-146010000D02*
X221234000Y-146010000D01*
X220726000Y-141010000D02*
X220980000Y-141264000D01*
X221234000Y-141010000D02*
X221361000Y-141010000D01*
X220980000Y-141264000D02*
X221234000Y-141010000D01*
X220599000Y-141010000D02*
X220726000Y-141010000D01*
X213360000Y-145760000D02*
X213360000Y-141260000D01*
X223520000Y-141010000D02*
X223240000Y-141010000D01*
X223520000Y-141010000D02*
X223520000Y-146010000D01*
X223520000Y-146010000D02*
X223240000Y-146010000D01*
X210820000Y-146010000D02*
X211100000Y-146010000D01*
X210820000Y-141010000D02*
X210820000Y-146010000D01*
X212979000Y-141010000D02*
X213106000Y-141010000D01*
X213106000Y-141010000D02*
X213360000Y-141264000D01*
X213360000Y-141264000D02*
X213614000Y-141010000D01*
X213614000Y-141010000D02*
X213741000Y-141010000D01*
X210820000Y-141010000D02*
X211100000Y-141010000D01*
X215519000Y-141010000D02*
X215646000Y-141010000D01*
X218059000Y-141010000D02*
X218186000Y-141010000D01*
X213741000Y-146010000D02*
X213614000Y-146010000D01*
X215900000Y-141264000D02*
X216154000Y-141010000D01*
X218440000Y-141264000D02*
X218694000Y-141010000D01*
X213360000Y-145756000D02*
X213106000Y-146010000D01*
X216154000Y-141010000D02*
X216281000Y-141010000D01*
X218694000Y-141010000D02*
X218821000Y-141010000D01*
X213106000Y-146010000D02*
X212979000Y-146010000D01*
X215646000Y-141010000D02*
X215900000Y-141264000D01*
X218186000Y-141010000D02*
X218440000Y-141264000D01*
X213614000Y-146010000D02*
X213360000Y-145756000D01*
X216281000Y-146010000D02*
X216154000Y-146010000D01*
X218821000Y-146010000D02*
X218694000Y-146010000D01*
X215646000Y-146010000D02*
X215519000Y-146010000D01*
X218186000Y-146010000D02*
X218059000Y-146010000D01*
X215900000Y-145756000D02*
X215646000Y-146010000D01*
X218440000Y-145756000D02*
X218186000Y-146010000D01*
X216154000Y-146010000D02*
X215900000Y-145756000D01*
X218694000Y-146010000D02*
X218440000Y-145756000D01*
X215900000Y-145760000D02*
X215900000Y-141260000D01*
X218440000Y-145760000D02*
X218440000Y-141260000D01*
X66340000Y-146010000D02*
X66340000Y-148435000D01*
X76200000Y-145760000D02*
X76200000Y-141260000D01*
X76454000Y-146010000D02*
X76200000Y-145756000D01*
X76200000Y-145756000D02*
X75946000Y-146010000D01*
X75946000Y-146010000D02*
X75819000Y-146010000D01*
X76581000Y-146010000D02*
X76454000Y-146010000D01*
X75946000Y-141010000D02*
X76200000Y-141264000D01*
X76454000Y-141010000D02*
X76581000Y-141010000D01*
X76200000Y-141264000D02*
X76454000Y-141010000D01*
X75819000Y-141010000D02*
X75946000Y-141010000D01*
X68580000Y-145760000D02*
X68580000Y-141260000D01*
X78740000Y-141010000D02*
X78460000Y-141010000D01*
X78740000Y-141010000D02*
X78740000Y-146010000D01*
X78740000Y-146010000D02*
X78460000Y-146010000D01*
X66040000Y-146010000D02*
X66320000Y-146010000D01*
X66040000Y-141010000D02*
X66040000Y-146010000D01*
X68199000Y-141010000D02*
X68326000Y-141010000D01*
X68326000Y-141010000D02*
X68580000Y-141264000D01*
X68580000Y-141264000D02*
X68834000Y-141010000D01*
X68834000Y-141010000D02*
X68961000Y-141010000D01*
X66040000Y-141010000D02*
X66320000Y-141010000D01*
X70739000Y-141010000D02*
X70866000Y-141010000D01*
X73279000Y-141010000D02*
X73406000Y-141010000D01*
X68961000Y-146010000D02*
X68834000Y-146010000D01*
X71120000Y-141264000D02*
X71374000Y-141010000D01*
X73660000Y-141264000D02*
X73914000Y-141010000D01*
X68580000Y-145756000D02*
X68326000Y-146010000D01*
X71374000Y-141010000D02*
X71501000Y-141010000D01*
X73914000Y-141010000D02*
X74041000Y-141010000D01*
X68326000Y-146010000D02*
X68199000Y-146010000D01*
X70866000Y-141010000D02*
X71120000Y-141264000D01*
X73406000Y-141010000D02*
X73660000Y-141264000D01*
X68834000Y-146010000D02*
X68580000Y-145756000D01*
X71501000Y-146010000D02*
X71374000Y-146010000D01*
X74041000Y-146010000D02*
X73914000Y-146010000D01*
X70866000Y-146010000D02*
X70739000Y-146010000D01*
X73406000Y-146010000D02*
X73279000Y-146010000D01*
X71120000Y-145756000D02*
X70866000Y-146010000D01*
X73660000Y-145756000D02*
X73406000Y-146010000D01*
X71374000Y-146010000D02*
X71120000Y-145756000D01*
X73914000Y-146010000D02*
X73660000Y-145756000D01*
X71120000Y-145760000D02*
X71120000Y-141260000D01*
X73660000Y-145760000D02*
X73660000Y-141260000D01*
X112060000Y-146010000D02*
X112060000Y-148435000D01*
X121920000Y-145760000D02*
X121920000Y-141260000D01*
X122174000Y-146010000D02*
X121920000Y-145756000D01*
X121920000Y-145756000D02*
X121666000Y-146010000D01*
X121666000Y-146010000D02*
X121539000Y-146010000D01*
X122301000Y-146010000D02*
X122174000Y-146010000D01*
X121666000Y-141010000D02*
X121920000Y-141264000D01*
X122174000Y-141010000D02*
X122301000Y-141010000D01*
X121920000Y-141264000D02*
X122174000Y-141010000D01*
X121539000Y-141010000D02*
X121666000Y-141010000D01*
X114300000Y-145760000D02*
X114300000Y-141260000D01*
X124460000Y-141010000D02*
X124180000Y-141010000D01*
X124460000Y-141010000D02*
X124460000Y-146010000D01*
X124460000Y-146010000D02*
X124180000Y-146010000D01*
X111760000Y-146010000D02*
X112040000Y-146010000D01*
X111760000Y-141010000D02*
X111760000Y-146010000D01*
X113919000Y-141010000D02*
X114046000Y-141010000D01*
X114046000Y-141010000D02*
X114300000Y-141264000D01*
X114300000Y-141264000D02*
X114554000Y-141010000D01*
X114554000Y-141010000D02*
X114681000Y-141010000D01*
X111760000Y-141010000D02*
X112040000Y-141010000D01*
X116459000Y-141010000D02*
X116586000Y-141010000D01*
X118999000Y-141010000D02*
X119126000Y-141010000D01*
X114681000Y-146010000D02*
X114554000Y-146010000D01*
X116840000Y-141264000D02*
X117094000Y-141010000D01*
X119380000Y-141264000D02*
X119634000Y-141010000D01*
X114300000Y-145756000D02*
X114046000Y-146010000D01*
X117094000Y-141010000D02*
X117221000Y-141010000D01*
X119634000Y-141010000D02*
X119761000Y-141010000D01*
X114046000Y-146010000D02*
X113919000Y-146010000D01*
X116586000Y-141010000D02*
X116840000Y-141264000D01*
X119126000Y-141010000D02*
X119380000Y-141264000D01*
X114554000Y-146010000D02*
X114300000Y-145756000D01*
X117221000Y-146010000D02*
X117094000Y-146010000D01*
X119761000Y-146010000D02*
X119634000Y-146010000D01*
X116586000Y-146010000D02*
X116459000Y-146010000D01*
X119126000Y-146010000D02*
X118999000Y-146010000D01*
X116840000Y-145756000D02*
X116586000Y-146010000D01*
X119380000Y-145756000D02*
X119126000Y-146010000D01*
X117094000Y-146010000D02*
X116840000Y-145756000D01*
X119634000Y-146010000D02*
X119380000Y-145756000D01*
X116840000Y-145760000D02*
X116840000Y-141260000D01*
X119380000Y-145760000D02*
X119380000Y-141260000D01*
X130224580Y-138480800D02*
X130224580Y-137779760D01*
X130224580Y-137779760D02*
X130473500Y-137779760D01*
X133023560Y-137779760D02*
X133224220Y-137779760D01*
X133224220Y-137779760D02*
X133224220Y-138480800D01*
X135863380Y-138506200D02*
X135863380Y-137805160D01*
X135863380Y-137805160D02*
X136112300Y-137805160D01*
X138662360Y-137805160D02*
X138863020Y-137805160D01*
X138863020Y-137805160D02*
X138863020Y-138506200D01*
X129551400Y-139354000D02*
X129551400Y-140554000D01*
X127801400Y-140554000D02*
X127801400Y-139354000D01*
X127443200Y-140751000D02*
X127443200Y-141951000D01*
X125693200Y-141951000D02*
X125693200Y-140751000D01*
X135418800Y-137677600D02*
X135418800Y-138877600D01*
X133668800Y-138877600D02*
X133668800Y-137677600D01*
X141032200Y-137703000D02*
X141032200Y-138903000D01*
X139282200Y-138903000D02*
X139282200Y-137703000D01*
X135982000Y-120509000D02*
X134782000Y-120509000D01*
X134782000Y-118759000D02*
X135982000Y-118759000D01*
X156831000Y-117433800D02*
X156831000Y-118633800D01*
X155081000Y-118633800D02*
X155081000Y-117433800D01*
X153451000Y-121146600D02*
X154651000Y-121146600D01*
X154651000Y-122896600D02*
X153451000Y-122896600D01*
X140985800Y-118400800D02*
X139785800Y-118400800D01*
X139785800Y-116650800D02*
X140985800Y-116650800D01*
X167857200Y-129124000D02*
X167857200Y-127924000D01*
X169607200Y-127924000D02*
X169607200Y-129124000D01*
X169990800Y-126203000D02*
X169990800Y-125003000D01*
X171740800Y-125003000D02*
X171740800Y-126203000D01*
X151725000Y-120187600D02*
X154150000Y-120187600D01*
X151475000Y-117957600D02*
X146975000Y-117957600D01*
X146725000Y-112877600D02*
X146725000Y-113157600D01*
X146725000Y-112877600D02*
X151725000Y-112877600D01*
X151725000Y-112877600D02*
X151725000Y-113157600D01*
X151725000Y-120497600D02*
X151725000Y-120217600D01*
X146725000Y-120497600D02*
X151725000Y-120497600D01*
X146725000Y-118338600D02*
X146725000Y-118211600D01*
X146725000Y-118211600D02*
X146979000Y-117957600D01*
X146979000Y-117957600D02*
X146725000Y-117703600D01*
X146725000Y-117703600D02*
X146725000Y-117576600D01*
X146725000Y-120497600D02*
X146725000Y-120217600D01*
X146725000Y-115798600D02*
X146725000Y-115671600D01*
X151725000Y-117576600D02*
X151725000Y-117703600D01*
X146979000Y-115417600D02*
X146725000Y-115163600D01*
X151471000Y-117957600D02*
X151725000Y-118211600D01*
X146725000Y-115163600D02*
X146725000Y-115036600D01*
X151725000Y-118211600D02*
X151725000Y-118338600D01*
X146725000Y-115671600D02*
X146979000Y-115417600D01*
X151725000Y-117703600D02*
X151471000Y-117957600D01*
X151725000Y-115036600D02*
X151725000Y-115163600D01*
X151725000Y-115671600D02*
X151725000Y-115798600D01*
X151471000Y-115417600D02*
X151725000Y-115671600D01*
X151725000Y-115163600D02*
X151471000Y-115417600D01*
X151475000Y-115417600D02*
X146975000Y-115417600D01*
X147998600Y-130904400D02*
X147998600Y-130454400D01*
X140748600Y-130904400D02*
X140748600Y-130379400D01*
X140748600Y-123654400D02*
X140748600Y-124179400D01*
X147998600Y-123654400D02*
X147998600Y-124179400D01*
X147998600Y-130904400D02*
X147473600Y-130904400D01*
X147998600Y-123654400D02*
X147473600Y-123654400D01*
X140748600Y-123654400D02*
X141273600Y-123654400D01*
X140748600Y-130904400D02*
X141273600Y-130904400D01*
X147998600Y-130454400D02*
X149373600Y-130454400D01*
X164896800Y-117906800D02*
X164896800Y-114731800D01*
X164896800Y-114731800D02*
X163118800Y-114731800D01*
X163118800Y-114731800D02*
X163118800Y-117906800D01*
X169468800Y-117906800D02*
X169468800Y-114731800D01*
X169468800Y-114731800D02*
X167690800Y-114731800D01*
X167690800Y-114731800D02*
X167690800Y-117906800D01*
X162864800Y-124002800D02*
X162864800Y-117906800D01*
X162864800Y-117906800D02*
X169722800Y-117906800D01*
X169722800Y-117906800D02*
X169722800Y-125780800D01*
X169722800Y-125907800D02*
X162864800Y-125907800D01*
X162864800Y-125780800D02*
X162864800Y-124002800D01*
X190435000Y-138185000D02*
X190435000Y-138460000D01*
X198185000Y-138185000D02*
X198185000Y-138540000D01*
X198185000Y-148835000D02*
X198185000Y-148480000D01*
X190435000Y-148835000D02*
X190435000Y-148480000D01*
X190435000Y-138185000D02*
X198185000Y-138185000D01*
X190435000Y-148835000D02*
X198185000Y-148835000D01*
X190435000Y-138460000D02*
X188910000Y-138460000D01*
X91375000Y-138185000D02*
X91375000Y-138460000D01*
X99125000Y-138185000D02*
X99125000Y-138540000D01*
X99125000Y-148835000D02*
X99125000Y-148480000D01*
X91375000Y-148835000D02*
X91375000Y-148480000D01*
X91375000Y-138185000D02*
X99125000Y-138185000D01*
X91375000Y-148835000D02*
X99125000Y-148835000D01*
X91375000Y-138460000D02*
X89850000Y-138460000D01*
X154185620Y-128211580D02*
X154035760Y-128061720D01*
X151785320Y-130159760D02*
X152034240Y-130411220D01*
X154185620Y-128211580D02*
X154434540Y-128559560D01*
X154434540Y-128559560D02*
X154584400Y-129110740D01*
X154584400Y-129110740D02*
X154584400Y-129509520D01*
X154584400Y-129509520D02*
X154383740Y-130009900D01*
X154383740Y-130009900D02*
X154035760Y-130411220D01*
X151985980Y-128109980D02*
X151734520Y-128409700D01*
X151734520Y-128409700D02*
X151533860Y-128861820D01*
X151533860Y-128861820D02*
X151485600Y-129311400D01*
X151485600Y-129311400D02*
X151584660Y-129811780D01*
X151584660Y-129811780D02*
X151785320Y-130159760D01*
X206857600Y-113665000D02*
X203403200Y-113665000D01*
X206857600Y-117424200D02*
X203403200Y-117424200D01*
X210034000Y-131520800D02*
X210034000Y-120040800D01*
X210034000Y-120040800D02*
X204044000Y-120040800D01*
X204044000Y-120040800D02*
X204044000Y-131520800D01*
X204044000Y-131520800D02*
X210034000Y-131520800D01*
X181833800Y-129829000D02*
X171835800Y-129829000D01*
X181829800Y-129969000D02*
X171839800Y-129969000D01*
X181821800Y-130109000D02*
X171847800Y-130109000D01*
X181809800Y-130249000D02*
X171859800Y-130249000D01*
X181794800Y-130389000D02*
X171874800Y-130389000D01*
X181774800Y-130529000D02*
X171894800Y-130529000D01*
X181750800Y-130669000D02*
X171918800Y-130669000D01*
X181721800Y-130809000D02*
X171947800Y-130809000D01*
X181689800Y-130949000D02*
X171979800Y-130949000D01*
X181652800Y-131089000D02*
X172016800Y-131089000D01*
X181611800Y-131229000D02*
X172057800Y-131229000D01*
X181566800Y-131369000D02*
X177300800Y-131369000D01*
X176368800Y-131369000D02*
X172102800Y-131369000D01*
X181516800Y-131509000D02*
X177501800Y-131509000D01*
X176167800Y-131509000D02*
X172152800Y-131509000D01*
X181461800Y-131649000D02*
X177630800Y-131649000D01*
X176038800Y-131649000D02*
X172207800Y-131649000D01*
X181401800Y-131789000D02*
X177719800Y-131789000D01*
X175949800Y-131789000D02*
X172267800Y-131789000D01*
X181336800Y-131929000D02*
X177780800Y-131929000D01*
X175888800Y-131929000D02*
X172332800Y-131929000D01*
X181266800Y-132069000D02*
X177817800Y-132069000D01*
X175851800Y-132069000D02*
X172402800Y-132069000D01*
X181190800Y-132209000D02*
X177833800Y-132209000D01*
X175835800Y-132209000D02*
X172478800Y-132209000D01*
X181108800Y-132349000D02*
X177829800Y-132349000D01*
X175839800Y-132349000D02*
X172560800Y-132349000D01*
X181020800Y-132489000D02*
X177806800Y-132489000D01*
X175862800Y-132489000D02*
X172648800Y-132489000D01*
X180925800Y-132629000D02*
X177761800Y-132629000D01*
X175907800Y-132629000D02*
X172743800Y-132629000D01*
X180823800Y-132769000D02*
X177691800Y-132769000D01*
X175977800Y-132769000D02*
X172845800Y-132769000D01*
X180713800Y-132909000D02*
X177590800Y-132909000D01*
X176078800Y-132909000D02*
X172955800Y-132909000D01*
X180595800Y-133049000D02*
X177441800Y-133049000D01*
X176227800Y-133049000D02*
X173073800Y-133049000D01*
X180467800Y-133189000D02*
X177189800Y-133189000D01*
X176479800Y-133189000D02*
X173201800Y-133189000D01*
X180330800Y-133329000D02*
X173338800Y-133329000D01*
X180180800Y-133469000D02*
X173488800Y-133469000D01*
X180018800Y-133609000D02*
X173650800Y-133609000D01*
X179841800Y-133749000D02*
X173827800Y-133749000D01*
X179645800Y-133889000D02*
X174023800Y-133889000D01*
X179427800Y-134029000D02*
X174241800Y-134029000D01*
X179181800Y-134169000D02*
X174487800Y-134169000D01*
X178896800Y-134309000D02*
X174772800Y-134309000D01*
X178554800Y-134449000D02*
X175114800Y-134449000D01*
X178108800Y-134589000D02*
X175560800Y-134589000D01*
X177333800Y-134729000D02*
X176335800Y-134729000D01*
X177834800Y-132254000D02*
G75*
G03X177834800Y-132254000I-1000000J0D01*
G01*
X181872300Y-129754000D02*
G75*
G03X181872300Y-129754000I-5037500J0D01*
G01*
X178536600Y-122986800D02*
X179298600Y-124002800D01*
X178536600Y-122986800D02*
X179298600Y-121970800D01*
X178536600Y-121970800D02*
X178536600Y-124002800D01*
X179298600Y-121970800D02*
X179298600Y-124002800D01*
X189738000Y-121602500D02*
G75*
G03X189738000Y-121602500I-4000500J0D01*
G01*
X185896261Y-130278119D02*
X185801023Y-130230500D01*
X185705785Y-130135261D01*
X185562928Y-129992404D01*
X185467690Y-129944785D01*
X185372452Y-129944785D01*
X185420071Y-130182880D02*
X185324833Y-130135261D01*
X185229595Y-130040023D01*
X185181976Y-129849547D01*
X185181976Y-129516214D01*
X185229595Y-129325738D01*
X185324833Y-129230500D01*
X185420071Y-129182880D01*
X185610547Y-129182880D01*
X185705785Y-129230500D01*
X185801023Y-129325738D01*
X185848642Y-129516214D01*
X185848642Y-129849547D01*
X185801023Y-130040023D01*
X185705785Y-130135261D01*
X185610547Y-130182880D01*
X185420071Y-130182880D01*
X186181976Y-129182880D02*
X186801023Y-129182880D01*
X186467690Y-129563833D01*
X186610547Y-129563833D01*
X186705785Y-129611452D01*
X186753404Y-129659071D01*
X186801023Y-129754309D01*
X186801023Y-129992404D01*
X186753404Y-130087642D01*
X186705785Y-130135261D01*
X186610547Y-130182880D01*
X186324833Y-130182880D01*
X186229595Y-130135261D01*
X186181976Y-130087642D01*
X106554685Y-111739371D02*
X106697542Y-111786990D01*
X106745161Y-111834609D01*
X106792780Y-111929847D01*
X106792780Y-112072704D01*
X106745161Y-112167942D01*
X106697542Y-112215561D01*
X106602304Y-112263180D01*
X106221352Y-112263180D01*
X106221352Y-111263180D01*
X106554685Y-111263180D01*
X106649923Y-111310800D01*
X106697542Y-111358419D01*
X106745161Y-111453657D01*
X106745161Y-111548895D01*
X106697542Y-111644133D01*
X106649923Y-111691752D01*
X106554685Y-111739371D01*
X106221352Y-111739371D01*
X107078495Y-111263180D02*
X107649923Y-111263180D01*
X107364209Y-112263180D02*
X107364209Y-111263180D01*
X108507066Y-112263180D02*
X107935638Y-112263180D01*
X108221352Y-112263180D02*
X108221352Y-111263180D01*
X108126114Y-111406038D01*
X108030876Y-111501276D01*
X107935638Y-111548895D01*
X122463142Y-130341666D02*
X122510761Y-130389285D01*
X122558380Y-130532142D01*
X122558380Y-130627380D01*
X122510761Y-130770238D01*
X122415523Y-130865476D01*
X122320285Y-130913095D01*
X122129809Y-130960714D01*
X121986952Y-130960714D01*
X121796476Y-130913095D01*
X121701238Y-130865476D01*
X121606000Y-130770238D01*
X121558380Y-130627380D01*
X121558380Y-130532142D01*
X121606000Y-130389285D01*
X121653619Y-130341666D01*
X122558380Y-129389285D02*
X122558380Y-129960714D01*
X122558380Y-129675000D02*
X121558380Y-129675000D01*
X121701238Y-129770238D01*
X121796476Y-129865476D01*
X121844095Y-129960714D01*
X157287933Y-126781142D02*
X157240314Y-126828761D01*
X157097457Y-126876380D01*
X157002219Y-126876380D01*
X156859361Y-126828761D01*
X156764123Y-126733523D01*
X156716504Y-126638285D01*
X156668885Y-126447809D01*
X156668885Y-126304952D01*
X156716504Y-126114476D01*
X156764123Y-126019238D01*
X156859361Y-125924000D01*
X157002219Y-125876380D01*
X157097457Y-125876380D01*
X157240314Y-125924000D01*
X157287933Y-125971619D01*
X157668885Y-125971619D02*
X157716504Y-125924000D01*
X157811742Y-125876380D01*
X158049838Y-125876380D01*
X158145076Y-125924000D01*
X158192695Y-125971619D01*
X158240314Y-126066857D01*
X158240314Y-126162095D01*
X158192695Y-126304952D01*
X157621266Y-126876380D01*
X158240314Y-126876380D01*
X157262533Y-128889342D02*
X157214914Y-128936961D01*
X157072057Y-128984580D01*
X156976819Y-128984580D01*
X156833961Y-128936961D01*
X156738723Y-128841723D01*
X156691104Y-128746485D01*
X156643485Y-128556009D01*
X156643485Y-128413152D01*
X156691104Y-128222676D01*
X156738723Y-128127438D01*
X156833961Y-128032200D01*
X156976819Y-127984580D01*
X157072057Y-127984580D01*
X157214914Y-128032200D01*
X157262533Y-128079819D01*
X157595866Y-127984580D02*
X158214914Y-127984580D01*
X157881580Y-128365533D01*
X158024438Y-128365533D01*
X158119676Y-128413152D01*
X158167295Y-128460771D01*
X158214914Y-128556009D01*
X158214914Y-128794104D01*
X158167295Y-128889342D01*
X158119676Y-128936961D01*
X158024438Y-128984580D01*
X157738723Y-128984580D01*
X157643485Y-128936961D01*
X157595866Y-128889342D01*
X140480742Y-131535466D02*
X140528361Y-131583085D01*
X140575980Y-131725942D01*
X140575980Y-131821180D01*
X140528361Y-131964038D01*
X140433123Y-132059276D01*
X140337885Y-132106895D01*
X140147409Y-132154514D01*
X140004552Y-132154514D01*
X139814076Y-132106895D01*
X139718838Y-132059276D01*
X139623600Y-131964038D01*
X139575980Y-131821180D01*
X139575980Y-131725942D01*
X139623600Y-131583085D01*
X139671219Y-131535466D01*
X139575980Y-130630704D02*
X139575980Y-131106895D01*
X140052171Y-131154514D01*
X140004552Y-131106895D01*
X139956933Y-131011657D01*
X139956933Y-130773561D01*
X140004552Y-130678323D01*
X140052171Y-130630704D01*
X140147409Y-130583085D01*
X140385504Y-130583085D01*
X140480742Y-130630704D01*
X140528361Y-130678323D01*
X140575980Y-130773561D01*
X140575980Y-131011657D01*
X140528361Y-131106895D01*
X140480742Y-131154514D01*
X148245533Y-135662942D02*
X148197914Y-135710561D01*
X148055057Y-135758180D01*
X147959819Y-135758180D01*
X147816961Y-135710561D01*
X147721723Y-135615323D01*
X147674104Y-135520085D01*
X147626485Y-135329609D01*
X147626485Y-135186752D01*
X147674104Y-134996276D01*
X147721723Y-134901038D01*
X147816961Y-134805800D01*
X147959819Y-134758180D01*
X148055057Y-134758180D01*
X148197914Y-134805800D01*
X148245533Y-134853419D01*
X149102676Y-134758180D02*
X148912200Y-134758180D01*
X148816961Y-134805800D01*
X148769342Y-134853419D01*
X148674104Y-134996276D01*
X148626485Y-135186752D01*
X148626485Y-135567704D01*
X148674104Y-135662942D01*
X148721723Y-135710561D01*
X148816961Y-135758180D01*
X149007438Y-135758180D01*
X149102676Y-135710561D01*
X149150295Y-135662942D01*
X149197914Y-135567704D01*
X149197914Y-135329609D01*
X149150295Y-135234371D01*
X149102676Y-135186752D01*
X149007438Y-135139133D01*
X148816961Y-135139133D01*
X148721723Y-135186752D01*
X148674104Y-135234371D01*
X148626485Y-135329609D01*
X140117533Y-118314742D02*
X140069914Y-118362361D01*
X139927057Y-118409980D01*
X139831819Y-118409980D01*
X139688961Y-118362361D01*
X139593723Y-118267123D01*
X139546104Y-118171885D01*
X139498485Y-117981409D01*
X139498485Y-117838552D01*
X139546104Y-117648076D01*
X139593723Y-117552838D01*
X139688961Y-117457600D01*
X139831819Y-117409980D01*
X139927057Y-117409980D01*
X140069914Y-117457600D01*
X140117533Y-117505219D01*
X140450866Y-117409980D02*
X141117533Y-117409980D01*
X140688961Y-118409980D01*
X147836593Y-140054602D02*
X147788974Y-140102221D01*
X147646117Y-140149840D01*
X147550879Y-140149840D01*
X147408021Y-140102221D01*
X147312783Y-140006983D01*
X147265164Y-139911745D01*
X147217545Y-139721269D01*
X147217545Y-139578412D01*
X147265164Y-139387936D01*
X147312783Y-139292698D01*
X147408021Y-139197460D01*
X147550879Y-139149840D01*
X147646117Y-139149840D01*
X147788974Y-139197460D01*
X147836593Y-139245079D01*
X148408021Y-139578412D02*
X148312783Y-139530793D01*
X148265164Y-139483174D01*
X148217545Y-139387936D01*
X148217545Y-139340317D01*
X148265164Y-139245079D01*
X148312783Y-139197460D01*
X148408021Y-139149840D01*
X148598498Y-139149840D01*
X148693736Y-139197460D01*
X148741355Y-139245079D01*
X148788974Y-139340317D01*
X148788974Y-139387936D01*
X148741355Y-139483174D01*
X148693736Y-139530793D01*
X148598498Y-139578412D01*
X148408021Y-139578412D01*
X148312783Y-139626031D01*
X148265164Y-139673650D01*
X148217545Y-139768888D01*
X148217545Y-139959364D01*
X148265164Y-140054602D01*
X148312783Y-140102221D01*
X148408021Y-140149840D01*
X148598498Y-140149840D01*
X148693736Y-140102221D01*
X148741355Y-140054602D01*
X148788974Y-139959364D01*
X148788974Y-139768888D01*
X148741355Y-139673650D01*
X148693736Y-139626031D01*
X148598498Y-139578412D01*
X152123187Y-138869728D02*
X152885092Y-138869728D01*
X152504140Y-139250680D02*
X152504140Y-138488776D01*
X152334933Y-128491942D02*
X152287314Y-128539561D01*
X152144457Y-128587180D01*
X152049219Y-128587180D01*
X151906361Y-128539561D01*
X151811123Y-128444323D01*
X151763504Y-128349085D01*
X151715885Y-128158609D01*
X151715885Y-128015752D01*
X151763504Y-127825276D01*
X151811123Y-127730038D01*
X151906361Y-127634800D01*
X152049219Y-127587180D01*
X152144457Y-127587180D01*
X152287314Y-127634800D01*
X152334933Y-127682419D01*
X152811123Y-128587180D02*
X153001600Y-128587180D01*
X153096838Y-128539561D01*
X153144457Y-128491942D01*
X153239695Y-128349085D01*
X153287314Y-128158609D01*
X153287314Y-127777657D01*
X153239695Y-127682419D01*
X153192076Y-127634800D01*
X153096838Y-127587180D01*
X152906361Y-127587180D01*
X152811123Y-127634800D01*
X152763504Y-127682419D01*
X152715885Y-127777657D01*
X152715885Y-128015752D01*
X152763504Y-128110990D01*
X152811123Y-128158609D01*
X152906361Y-128206228D01*
X153096838Y-128206228D01*
X153192076Y-128158609D01*
X153239695Y-128110990D01*
X153287314Y-128015752D01*
X64840882Y-130001282D02*
X64793263Y-130048901D01*
X64650406Y-130096520D01*
X64555168Y-130096520D01*
X64412311Y-130048901D01*
X64317073Y-129953663D01*
X64269454Y-129858425D01*
X64221835Y-129667949D01*
X64221835Y-129525092D01*
X64269454Y-129334616D01*
X64317073Y-129239378D01*
X64412311Y-129144140D01*
X64555168Y-129096520D01*
X64650406Y-129096520D01*
X64793263Y-129144140D01*
X64840882Y-129191759D01*
X65793263Y-130096520D02*
X65221835Y-130096520D01*
X65507549Y-130096520D02*
X65507549Y-129096520D01*
X65412311Y-129239378D01*
X65317073Y-129334616D01*
X65221835Y-129382235D01*
X66412311Y-129096520D02*
X66507549Y-129096520D01*
X66602787Y-129144140D01*
X66650406Y-129191759D01*
X66698025Y-129286997D01*
X66745644Y-129477473D01*
X66745644Y-129715568D01*
X66698025Y-129906044D01*
X66650406Y-130001282D01*
X66602787Y-130048901D01*
X66507549Y-130096520D01*
X66412311Y-130096520D01*
X66317073Y-130048901D01*
X66269454Y-130001282D01*
X66221835Y-129906044D01*
X66174216Y-129715568D01*
X66174216Y-129477473D01*
X66221835Y-129286997D01*
X66269454Y-129191759D01*
X66317073Y-129144140D01*
X66412311Y-129096520D01*
X59552887Y-130815388D02*
X60314792Y-130815388D01*
X59933840Y-131196340D02*
X59933840Y-130434436D01*
X213729842Y-131605257D02*
X213777461Y-131652876D01*
X213825080Y-131795733D01*
X213825080Y-131890971D01*
X213777461Y-132033828D01*
X213682223Y-132129066D01*
X213586985Y-132176685D01*
X213396509Y-132224304D01*
X213253652Y-132224304D01*
X213063176Y-132176685D01*
X212967938Y-132129066D01*
X212872700Y-132033828D01*
X212825080Y-131890971D01*
X212825080Y-131795733D01*
X212872700Y-131652876D01*
X212920319Y-131605257D01*
X213825080Y-130652876D02*
X213825080Y-131224304D01*
X213825080Y-130938590D02*
X212825080Y-130938590D01*
X212967938Y-131033828D01*
X213063176Y-131129066D01*
X213110795Y-131224304D01*
X213825080Y-129700495D02*
X213825080Y-130271923D01*
X213825080Y-129986209D02*
X212825080Y-129986209D01*
X212967938Y-130081447D01*
X213063176Y-130176685D01*
X213110795Y-130271923D01*
X214942728Y-125564852D02*
X214942728Y-124802947D01*
X215323680Y-125183900D02*
X214561776Y-125183900D01*
X191428642Y-127033257D02*
X191476261Y-127080876D01*
X191523880Y-127223733D01*
X191523880Y-127318971D01*
X191476261Y-127461828D01*
X191381023Y-127557066D01*
X191285785Y-127604685D01*
X191095309Y-127652304D01*
X190952452Y-127652304D01*
X190761976Y-127604685D01*
X190666738Y-127557066D01*
X190571500Y-127461828D01*
X190523880Y-127318971D01*
X190523880Y-127223733D01*
X190571500Y-127080876D01*
X190619119Y-127033257D01*
X191523880Y-126080876D02*
X191523880Y-126652304D01*
X191523880Y-126366590D02*
X190523880Y-126366590D01*
X190666738Y-126461828D01*
X190761976Y-126557066D01*
X190809595Y-126652304D01*
X190619119Y-125699923D02*
X190571500Y-125652304D01*
X190523880Y-125557066D01*
X190523880Y-125318971D01*
X190571500Y-125223733D01*
X190619119Y-125176114D01*
X190714357Y-125128495D01*
X190809595Y-125128495D01*
X190952452Y-125176114D01*
X191523880Y-125747542D01*
X191523880Y-125128495D01*
X192641528Y-120992852D02*
X192641528Y-120230947D01*
X193022480Y-120611900D02*
X192260576Y-120611900D01*
X210093142Y-126423657D02*
X210140761Y-126471276D01*
X210188380Y-126614133D01*
X210188380Y-126709371D01*
X210140761Y-126852228D01*
X210045523Y-126947466D01*
X209950285Y-126995085D01*
X209759809Y-127042704D01*
X209616952Y-127042704D01*
X209426476Y-126995085D01*
X209331238Y-126947466D01*
X209236000Y-126852228D01*
X209188380Y-126709371D01*
X209188380Y-126614133D01*
X209236000Y-126471276D01*
X209283619Y-126423657D01*
X210188380Y-125471276D02*
X210188380Y-126042704D01*
X210188380Y-125756990D02*
X209188380Y-125756990D01*
X209331238Y-125852228D01*
X209426476Y-125947466D01*
X209474095Y-126042704D01*
X209188380Y-125137942D02*
X209188380Y-124518895D01*
X209569333Y-124852228D01*
X209569333Y-124709371D01*
X209616952Y-124614133D01*
X209664571Y-124566514D01*
X209759809Y-124518895D01*
X209997904Y-124518895D01*
X210093142Y-124566514D01*
X210140761Y-124614133D01*
X210188380Y-124709371D01*
X210188380Y-124995085D01*
X210140761Y-125090323D01*
X210093142Y-125137942D01*
X200018342Y-117432057D02*
X200065961Y-117479676D01*
X200113580Y-117622533D01*
X200113580Y-117717771D01*
X200065961Y-117860628D01*
X199970723Y-117955866D01*
X199875485Y-118003485D01*
X199685009Y-118051104D01*
X199542152Y-118051104D01*
X199351676Y-118003485D01*
X199256438Y-117955866D01*
X199161200Y-117860628D01*
X199113580Y-117717771D01*
X199113580Y-117622533D01*
X199161200Y-117479676D01*
X199208819Y-117432057D01*
X200113580Y-116479676D02*
X200113580Y-117051104D01*
X200113580Y-116765390D02*
X199113580Y-116765390D01*
X199256438Y-116860628D01*
X199351676Y-116955866D01*
X199399295Y-117051104D01*
X199446914Y-115622533D02*
X200113580Y-115622533D01*
X199065961Y-115860628D02*
X199780247Y-116098723D01*
X199780247Y-115479676D01*
X170229802Y-130490197D02*
X170277421Y-130537816D01*
X170325040Y-130680673D01*
X170325040Y-130775911D01*
X170277421Y-130918768D01*
X170182183Y-131014006D01*
X170086945Y-131061625D01*
X169896469Y-131109244D01*
X169753612Y-131109244D01*
X169563136Y-131061625D01*
X169467898Y-131014006D01*
X169372660Y-130918768D01*
X169325040Y-130775911D01*
X169325040Y-130680673D01*
X169372660Y-130537816D01*
X169420279Y-130490197D01*
X170325040Y-129537816D02*
X170325040Y-130109244D01*
X170325040Y-129823530D02*
X169325040Y-129823530D01*
X169467898Y-129918768D01*
X169563136Y-130014006D01*
X169610755Y-130109244D01*
X169325040Y-128680673D02*
X169325040Y-128871149D01*
X169372660Y-128966387D01*
X169420279Y-129014006D01*
X169563136Y-129109244D01*
X169753612Y-129156863D01*
X170134564Y-129156863D01*
X170229802Y-129109244D01*
X170277421Y-129061625D01*
X170325040Y-128966387D01*
X170325040Y-128775911D01*
X170277421Y-128680673D01*
X170229802Y-128633054D01*
X170134564Y-128585435D01*
X169896469Y-128585435D01*
X169801231Y-128633054D01*
X169753612Y-128680673D01*
X169705993Y-128775911D01*
X169705993Y-128966387D01*
X169753612Y-129061625D01*
X169801231Y-129109244D01*
X169896469Y-129156863D01*
X169044928Y-125727412D02*
X169044928Y-124965507D01*
X169425880Y-125346460D02*
X168663976Y-125346460D01*
X155909282Y-120833117D02*
X155956901Y-120880736D01*
X156004520Y-121023593D01*
X156004520Y-121118831D01*
X155956901Y-121261688D01*
X155861663Y-121356926D01*
X155766425Y-121404545D01*
X155575949Y-121452164D01*
X155433092Y-121452164D01*
X155242616Y-121404545D01*
X155147378Y-121356926D01*
X155052140Y-121261688D01*
X155004520Y-121118831D01*
X155004520Y-121023593D01*
X155052140Y-120880736D01*
X155099759Y-120833117D01*
X156004520Y-119880736D02*
X156004520Y-120452164D01*
X156004520Y-120166450D02*
X155004520Y-120166450D01*
X155147378Y-120261688D01*
X155242616Y-120356926D01*
X155290235Y-120452164D01*
X155004520Y-119547402D02*
X155004520Y-118880736D01*
X156004520Y-119309307D01*
X156723388Y-126121112D02*
X156723388Y-125359207D01*
X157104340Y-125740160D02*
X156342436Y-125740160D01*
X204056942Y-140952457D02*
X204104561Y-141000076D01*
X204152180Y-141142933D01*
X204152180Y-141238171D01*
X204104561Y-141381028D01*
X204009323Y-141476266D01*
X203914085Y-141523885D01*
X203723609Y-141571504D01*
X203580752Y-141571504D01*
X203390276Y-141523885D01*
X203295038Y-141476266D01*
X203199800Y-141381028D01*
X203152180Y-141238171D01*
X203152180Y-141142933D01*
X203199800Y-141000076D01*
X203247419Y-140952457D01*
X204152180Y-140000076D02*
X204152180Y-140571504D01*
X204152180Y-140285790D02*
X203152180Y-140285790D01*
X203295038Y-140381028D01*
X203390276Y-140476266D01*
X203437895Y-140571504D01*
X203580752Y-139428647D02*
X203533133Y-139523885D01*
X203485514Y-139571504D01*
X203390276Y-139619123D01*
X203342657Y-139619123D01*
X203247419Y-139571504D01*
X203199800Y-139523885D01*
X203152180Y-139428647D01*
X203152180Y-139238171D01*
X203199800Y-139142933D01*
X203247419Y-139095314D01*
X203342657Y-139047695D01*
X203390276Y-139047695D01*
X203485514Y-139095314D01*
X203533133Y-139142933D01*
X203580752Y-139238171D01*
X203580752Y-139428647D01*
X203628371Y-139523885D01*
X203675990Y-139571504D01*
X203771228Y-139619123D01*
X203961704Y-139619123D01*
X204056942Y-139571504D01*
X204104561Y-139523885D01*
X204152180Y-139428647D01*
X204152180Y-139238171D01*
X204104561Y-139142933D01*
X204056942Y-139095314D01*
X203961704Y-139047695D01*
X203771228Y-139047695D01*
X203675990Y-139095314D01*
X203628371Y-139142933D01*
X203580752Y-139238171D01*
X98010742Y-138982142D02*
X97963123Y-139029761D01*
X97820266Y-139077380D01*
X97725028Y-139077380D01*
X97582171Y-139029761D01*
X97486933Y-138934523D01*
X97439314Y-138839285D01*
X97391695Y-138648809D01*
X97391695Y-138505952D01*
X97439314Y-138315476D01*
X97486933Y-138220238D01*
X97582171Y-138125000D01*
X97725028Y-138077380D01*
X97820266Y-138077380D01*
X97963123Y-138125000D01*
X98010742Y-138172619D01*
X98963123Y-139077380D02*
X98391695Y-139077380D01*
X98677409Y-139077380D02*
X98677409Y-138077380D01*
X98582171Y-138220238D01*
X98486933Y-138315476D01*
X98391695Y-138363095D01*
X99439314Y-139077380D02*
X99629790Y-139077380D01*
X99725028Y-139029761D01*
X99772647Y-138982142D01*
X99867885Y-138839285D01*
X99915504Y-138648809D01*
X99915504Y-138267857D01*
X99867885Y-138172619D01*
X99820266Y-138125000D01*
X99725028Y-138077380D01*
X99534552Y-138077380D01*
X99439314Y-138125000D01*
X99391695Y-138172619D01*
X99344076Y-138267857D01*
X99344076Y-138505952D01*
X99391695Y-138601190D01*
X99439314Y-138648809D01*
X99534552Y-138696428D01*
X99725028Y-138696428D01*
X99820266Y-138648809D01*
X99867885Y-138601190D01*
X99915504Y-138505952D01*
X124607580Y-132183095D02*
X123607580Y-132183095D01*
X123607580Y-131945000D01*
X123655200Y-131802142D01*
X123750438Y-131706904D01*
X123845676Y-131659285D01*
X124036152Y-131611666D01*
X124179009Y-131611666D01*
X124369485Y-131659285D01*
X124464723Y-131706904D01*
X124559961Y-131802142D01*
X124607580Y-131945000D01*
X124607580Y-132183095D01*
X124607580Y-130659285D02*
X124607580Y-131230714D01*
X124607580Y-130945000D02*
X123607580Y-130945000D01*
X123750438Y-131040238D01*
X123845676Y-131135476D01*
X123893295Y-131230714D01*
X164434780Y-120981695D02*
X163434780Y-120981695D01*
X163434780Y-120743600D01*
X163482400Y-120600742D01*
X163577638Y-120505504D01*
X163672876Y-120457885D01*
X163863352Y-120410266D01*
X164006209Y-120410266D01*
X164196685Y-120457885D01*
X164291923Y-120505504D01*
X164387161Y-120600742D01*
X164434780Y-120743600D01*
X164434780Y-120981695D01*
X163434780Y-120076933D02*
X163434780Y-119457885D01*
X163815733Y-119791219D01*
X163815733Y-119648361D01*
X163863352Y-119553123D01*
X163910971Y-119505504D01*
X164006209Y-119457885D01*
X164244304Y-119457885D01*
X164339542Y-119505504D01*
X164387161Y-119553123D01*
X164434780Y-119648361D01*
X164434780Y-119934076D01*
X164387161Y-120029314D01*
X164339542Y-120076933D01*
X160044780Y-118705504D02*
X159044780Y-118705504D01*
X160044780Y-118134076D02*
X159473352Y-118562647D01*
X159044780Y-118134076D02*
X159616209Y-118705504D01*
X159759066Y-122281695D02*
X159759066Y-121805504D01*
X160044780Y-122376933D02*
X159044780Y-122043600D01*
X160044780Y-121710266D01*
X153681133Y-126741180D02*
X153204942Y-126741180D01*
X153204942Y-125741180D01*
X154538276Y-126741180D02*
X153966847Y-126741180D01*
X154252561Y-126741180D02*
X154252561Y-125741180D01*
X154157323Y-125884038D01*
X154062085Y-125979276D01*
X153966847Y-126026895D01*
X59484380Y-125880695D02*
X58484380Y-125880695D01*
X58484380Y-125499742D01*
X58532000Y-125404504D01*
X58579619Y-125356885D01*
X58674857Y-125309266D01*
X58817714Y-125309266D01*
X58912952Y-125356885D01*
X58960571Y-125404504D01*
X59008190Y-125499742D01*
X59008190Y-125880695D01*
X59484380Y-124356885D02*
X59484380Y-124928314D01*
X59484380Y-124642600D02*
X58484380Y-124642600D01*
X58627238Y-124737838D01*
X58722476Y-124833076D01*
X58770095Y-124928314D01*
X137889380Y-127030095D02*
X136889380Y-127030095D01*
X136889380Y-126649142D01*
X136937000Y-126553904D01*
X136984619Y-126506285D01*
X137079857Y-126458666D01*
X137222714Y-126458666D01*
X137317952Y-126506285D01*
X137365571Y-126553904D01*
X137413190Y-126649142D01*
X137413190Y-127030095D01*
X136984619Y-126077714D02*
X136937000Y-126030095D01*
X136889380Y-125934857D01*
X136889380Y-125696761D01*
X136937000Y-125601523D01*
X136984619Y-125553904D01*
X137079857Y-125506285D01*
X137175095Y-125506285D01*
X137317952Y-125553904D01*
X137889380Y-126125333D01*
X137889380Y-125506285D01*
X219149704Y-126502420D02*
X219149704Y-125502420D01*
X219530657Y-125502420D01*
X219625895Y-125550040D01*
X219673514Y-125597659D01*
X219721133Y-125692897D01*
X219721133Y-125835754D01*
X219673514Y-125930992D01*
X219625895Y-125978611D01*
X219530657Y-126026230D01*
X219149704Y-126026230D01*
X220054466Y-125502420D02*
X220673514Y-125502420D01*
X220340180Y-125883373D01*
X220483038Y-125883373D01*
X220578276Y-125930992D01*
X220625895Y-125978611D01*
X220673514Y-126073849D01*
X220673514Y-126311944D01*
X220625895Y-126407182D01*
X220578276Y-126454801D01*
X220483038Y-126502420D01*
X220197323Y-126502420D01*
X220102085Y-126454801D01*
X220054466Y-126407182D01*
X169641904Y-150462380D02*
X169641904Y-149462380D01*
X170022857Y-149462380D01*
X170118095Y-149510000D01*
X170165714Y-149557619D01*
X170213333Y-149652857D01*
X170213333Y-149795714D01*
X170165714Y-149890952D01*
X170118095Y-149938571D01*
X170022857Y-149986190D01*
X169641904Y-149986190D01*
X171070476Y-149795714D02*
X171070476Y-150462380D01*
X170832380Y-149414761D02*
X170594285Y-150129047D01*
X171213333Y-150129047D01*
X215361904Y-150462380D02*
X215361904Y-149462380D01*
X215742857Y-149462380D01*
X215838095Y-149510000D01*
X215885714Y-149557619D01*
X215933333Y-149652857D01*
X215933333Y-149795714D01*
X215885714Y-149890952D01*
X215838095Y-149938571D01*
X215742857Y-149986190D01*
X215361904Y-149986190D01*
X216838095Y-149462380D02*
X216361904Y-149462380D01*
X216314285Y-149938571D01*
X216361904Y-149890952D01*
X216457142Y-149843333D01*
X216695238Y-149843333D01*
X216790476Y-149890952D01*
X216838095Y-149938571D01*
X216885714Y-150033809D01*
X216885714Y-150271904D01*
X216838095Y-150367142D01*
X216790476Y-150414761D01*
X216695238Y-150462380D01*
X216457142Y-150462380D01*
X216361904Y-150414761D01*
X216314285Y-150367142D01*
X70581904Y-150462380D02*
X70581904Y-149462380D01*
X70962857Y-149462380D01*
X71058095Y-149510000D01*
X71105714Y-149557619D01*
X71153333Y-149652857D01*
X71153333Y-149795714D01*
X71105714Y-149890952D01*
X71058095Y-149938571D01*
X70962857Y-149986190D01*
X70581904Y-149986190D01*
X72010476Y-149462380D02*
X71820000Y-149462380D01*
X71724761Y-149510000D01*
X71677142Y-149557619D01*
X71581904Y-149700476D01*
X71534285Y-149890952D01*
X71534285Y-150271904D01*
X71581904Y-150367142D01*
X71629523Y-150414761D01*
X71724761Y-150462380D01*
X71915238Y-150462380D01*
X72010476Y-150414761D01*
X72058095Y-150367142D01*
X72105714Y-150271904D01*
X72105714Y-150033809D01*
X72058095Y-149938571D01*
X72010476Y-149890952D01*
X71915238Y-149843333D01*
X71724761Y-149843333D01*
X71629523Y-149890952D01*
X71581904Y-149938571D01*
X71534285Y-150033809D01*
X116301904Y-150462380D02*
X116301904Y-149462380D01*
X116682857Y-149462380D01*
X116778095Y-149510000D01*
X116825714Y-149557619D01*
X116873333Y-149652857D01*
X116873333Y-149795714D01*
X116825714Y-149890952D01*
X116778095Y-149938571D01*
X116682857Y-149986190D01*
X116301904Y-149986190D01*
X117206666Y-149462380D02*
X117873333Y-149462380D01*
X117444761Y-150462380D01*
X131629161Y-135167619D02*
X131533923Y-135120000D01*
X131438685Y-135024761D01*
X131295828Y-134881904D01*
X131200590Y-134834285D01*
X131105352Y-134834285D01*
X131152971Y-135072380D02*
X131057733Y-135024761D01*
X130962495Y-134929523D01*
X130914876Y-134739047D01*
X130914876Y-134405714D01*
X130962495Y-134215238D01*
X131057733Y-134120000D01*
X131152971Y-134072380D01*
X131343447Y-134072380D01*
X131438685Y-134120000D01*
X131533923Y-134215238D01*
X131581542Y-134405714D01*
X131581542Y-134739047D01*
X131533923Y-134929523D01*
X131438685Y-135024761D01*
X131343447Y-135072380D01*
X131152971Y-135072380D01*
X132533923Y-135072380D02*
X131962495Y-135072380D01*
X132248209Y-135072380D02*
X132248209Y-134072380D01*
X132152971Y-134215238D01*
X132057733Y-134310476D01*
X131962495Y-134358095D01*
X137267961Y-135193019D02*
X137172723Y-135145400D01*
X137077485Y-135050161D01*
X136934628Y-134907304D01*
X136839390Y-134859685D01*
X136744152Y-134859685D01*
X136791771Y-135097780D02*
X136696533Y-135050161D01*
X136601295Y-134954923D01*
X136553676Y-134764447D01*
X136553676Y-134431114D01*
X136601295Y-134240638D01*
X136696533Y-134145400D01*
X136791771Y-134097780D01*
X136982247Y-134097780D01*
X137077485Y-134145400D01*
X137172723Y-134240638D01*
X137220342Y-134431114D01*
X137220342Y-134764447D01*
X137172723Y-134954923D01*
X137077485Y-135050161D01*
X136982247Y-135097780D01*
X136791771Y-135097780D01*
X137601295Y-134193019D02*
X137648914Y-134145400D01*
X137744152Y-134097780D01*
X137982247Y-134097780D01*
X138077485Y-134145400D01*
X138125104Y-134193019D01*
X138172723Y-134288257D01*
X138172723Y-134383495D01*
X138125104Y-134526352D01*
X137553676Y-135097780D01*
X138172723Y-135097780D01*
X127028780Y-140120666D02*
X126552590Y-140454000D01*
X127028780Y-140692095D02*
X126028780Y-140692095D01*
X126028780Y-140311142D01*
X126076400Y-140215904D01*
X126124019Y-140168285D01*
X126219257Y-140120666D01*
X126362114Y-140120666D01*
X126457352Y-140168285D01*
X126504971Y-140215904D01*
X126552590Y-140311142D01*
X126552590Y-140692095D01*
X127028780Y-139168285D02*
X127028780Y-139739714D01*
X127028780Y-139454000D02*
X126028780Y-139454000D01*
X126171638Y-139549238D01*
X126266876Y-139644476D01*
X126314495Y-139739714D01*
X124920580Y-141517666D02*
X124444390Y-141851000D01*
X124920580Y-142089095D02*
X123920580Y-142089095D01*
X123920580Y-141708142D01*
X123968200Y-141612904D01*
X124015819Y-141565285D01*
X124111057Y-141517666D01*
X124253914Y-141517666D01*
X124349152Y-141565285D01*
X124396771Y-141612904D01*
X124444390Y-141708142D01*
X124444390Y-142089095D01*
X124015819Y-141136714D02*
X123968200Y-141089095D01*
X123920580Y-140993857D01*
X123920580Y-140755761D01*
X123968200Y-140660523D01*
X124015819Y-140612904D01*
X124111057Y-140565285D01*
X124206295Y-140565285D01*
X124349152Y-140612904D01*
X124920580Y-141184333D01*
X124920580Y-140565285D01*
X132896180Y-138444266D02*
X132419990Y-138777600D01*
X132896180Y-139015695D02*
X131896180Y-139015695D01*
X131896180Y-138634742D01*
X131943800Y-138539504D01*
X131991419Y-138491885D01*
X132086657Y-138444266D01*
X132229514Y-138444266D01*
X132324752Y-138491885D01*
X132372371Y-138539504D01*
X132419990Y-138634742D01*
X132419990Y-139015695D01*
X131896180Y-138110933D02*
X131896180Y-137491885D01*
X132277133Y-137825219D01*
X132277133Y-137682361D01*
X132324752Y-137587123D01*
X132372371Y-137539504D01*
X132467609Y-137491885D01*
X132705704Y-137491885D01*
X132800942Y-137539504D01*
X132848561Y-137587123D01*
X132896180Y-137682361D01*
X132896180Y-137968076D01*
X132848561Y-138063314D01*
X132800942Y-138110933D01*
X138509580Y-138469666D02*
X138033390Y-138803000D01*
X138509580Y-139041095D02*
X137509580Y-139041095D01*
X137509580Y-138660142D01*
X137557200Y-138564904D01*
X137604819Y-138517285D01*
X137700057Y-138469666D01*
X137842914Y-138469666D01*
X137938152Y-138517285D01*
X137985771Y-138564904D01*
X138033390Y-138660142D01*
X138033390Y-139041095D01*
X137842914Y-137612523D02*
X138509580Y-137612523D01*
X137461961Y-137850619D02*
X138176247Y-138088714D01*
X138176247Y-137469666D01*
X135215333Y-117986380D02*
X134882000Y-117510190D01*
X134643904Y-117986380D02*
X134643904Y-116986380D01*
X135024857Y-116986380D01*
X135120095Y-117034000D01*
X135167714Y-117081619D01*
X135215333Y-117176857D01*
X135215333Y-117319714D01*
X135167714Y-117414952D01*
X135120095Y-117462571D01*
X135024857Y-117510190D01*
X134643904Y-117510190D01*
X136120095Y-116986380D02*
X135643904Y-116986380D01*
X135596285Y-117462571D01*
X135643904Y-117414952D01*
X135739142Y-117367333D01*
X135977238Y-117367333D01*
X136072476Y-117414952D01*
X136120095Y-117462571D01*
X136167714Y-117557809D01*
X136167714Y-117795904D01*
X136120095Y-117891142D01*
X136072476Y-117938761D01*
X135977238Y-117986380D01*
X135739142Y-117986380D01*
X135643904Y-117938761D01*
X135596285Y-117891142D01*
X154308380Y-118200466D02*
X153832190Y-118533800D01*
X154308380Y-118771895D02*
X153308380Y-118771895D01*
X153308380Y-118390942D01*
X153356000Y-118295704D01*
X153403619Y-118248085D01*
X153498857Y-118200466D01*
X153641714Y-118200466D01*
X153736952Y-118248085D01*
X153784571Y-118295704D01*
X153832190Y-118390942D01*
X153832190Y-118771895D01*
X153308380Y-117343323D02*
X153308380Y-117533800D01*
X153356000Y-117629038D01*
X153403619Y-117676657D01*
X153546476Y-117771895D01*
X153736952Y-117819514D01*
X154117904Y-117819514D01*
X154213142Y-117771895D01*
X154260761Y-117724276D01*
X154308380Y-117629038D01*
X154308380Y-117438561D01*
X154260761Y-117343323D01*
X154213142Y-117295704D01*
X154117904Y-117248085D01*
X153879809Y-117248085D01*
X153784571Y-117295704D01*
X153736952Y-117343323D01*
X153689333Y-117438561D01*
X153689333Y-117629038D01*
X153736952Y-117724276D01*
X153784571Y-117771895D01*
X153879809Y-117819514D01*
X153884333Y-124573980D02*
X153551000Y-124097790D01*
X153312904Y-124573980D02*
X153312904Y-123573980D01*
X153693857Y-123573980D01*
X153789095Y-123621600D01*
X153836714Y-123669219D01*
X153884333Y-123764457D01*
X153884333Y-123907314D01*
X153836714Y-124002552D01*
X153789095Y-124050171D01*
X153693857Y-124097790D01*
X153312904Y-124097790D01*
X154217666Y-123573980D02*
X154884333Y-123573980D01*
X154455761Y-124573980D01*
X140219133Y-115878180D02*
X139885800Y-115401990D01*
X139647704Y-115878180D02*
X139647704Y-114878180D01*
X140028657Y-114878180D01*
X140123895Y-114925800D01*
X140171514Y-114973419D01*
X140219133Y-115068657D01*
X140219133Y-115211514D01*
X140171514Y-115306752D01*
X140123895Y-115354371D01*
X140028657Y-115401990D01*
X139647704Y-115401990D01*
X140790561Y-115306752D02*
X140695323Y-115259133D01*
X140647704Y-115211514D01*
X140600085Y-115116276D01*
X140600085Y-115068657D01*
X140647704Y-114973419D01*
X140695323Y-114925800D01*
X140790561Y-114878180D01*
X140981038Y-114878180D01*
X141076276Y-114925800D01*
X141123895Y-114973419D01*
X141171514Y-115068657D01*
X141171514Y-115116276D01*
X141123895Y-115211514D01*
X141076276Y-115259133D01*
X140981038Y-115306752D01*
X140790561Y-115306752D01*
X140695323Y-115354371D01*
X140647704Y-115401990D01*
X140600085Y-115497228D01*
X140600085Y-115687704D01*
X140647704Y-115782942D01*
X140695323Y-115830561D01*
X140790561Y-115878180D01*
X140981038Y-115878180D01*
X141076276Y-115830561D01*
X141123895Y-115782942D01*
X141171514Y-115687704D01*
X141171514Y-115497228D01*
X141123895Y-115401990D01*
X141076276Y-115354371D01*
X140981038Y-115306752D01*
X171284580Y-129166857D02*
X170808390Y-129500190D01*
X171284580Y-129738285D02*
X170284580Y-129738285D01*
X170284580Y-129357333D01*
X170332200Y-129262095D01*
X170379819Y-129214476D01*
X170475057Y-129166857D01*
X170617914Y-129166857D01*
X170713152Y-129214476D01*
X170760771Y-129262095D01*
X170808390Y-129357333D01*
X170808390Y-129738285D01*
X171284580Y-128214476D02*
X171284580Y-128785904D01*
X171284580Y-128500190D02*
X170284580Y-128500190D01*
X170427438Y-128595428D01*
X170522676Y-128690666D01*
X170570295Y-128785904D01*
X170379819Y-127833523D02*
X170332200Y-127785904D01*
X170284580Y-127690666D01*
X170284580Y-127452571D01*
X170332200Y-127357333D01*
X170379819Y-127309714D01*
X170475057Y-127262095D01*
X170570295Y-127262095D01*
X170713152Y-127309714D01*
X171284580Y-127881142D01*
X171284580Y-127262095D01*
X173418180Y-126245857D02*
X172941990Y-126579190D01*
X173418180Y-126817285D02*
X172418180Y-126817285D01*
X172418180Y-126436333D01*
X172465800Y-126341095D01*
X172513419Y-126293476D01*
X172608657Y-126245857D01*
X172751514Y-126245857D01*
X172846752Y-126293476D01*
X172894371Y-126341095D01*
X172941990Y-126436333D01*
X172941990Y-126817285D01*
X173418180Y-125293476D02*
X173418180Y-125864904D01*
X173418180Y-125579190D02*
X172418180Y-125579190D01*
X172561038Y-125674428D01*
X172656276Y-125769666D01*
X172703895Y-125864904D01*
X172418180Y-124960142D02*
X172418180Y-124341095D01*
X172799133Y-124674428D01*
X172799133Y-124531571D01*
X172846752Y-124436333D01*
X172894371Y-124388714D01*
X172989609Y-124341095D01*
X173227704Y-124341095D01*
X173322942Y-124388714D01*
X173370561Y-124436333D01*
X173418180Y-124531571D01*
X173418180Y-124817285D01*
X173370561Y-124912523D01*
X173322942Y-124960142D01*
X156129761Y-116550933D02*
X156177380Y-116408076D01*
X156177380Y-116169980D01*
X156129761Y-116074742D01*
X156082142Y-116027123D01*
X155986904Y-115979504D01*
X155891666Y-115979504D01*
X155796428Y-116027123D01*
X155748809Y-116074742D01*
X155701190Y-116169980D01*
X155653571Y-116360457D01*
X155605952Y-116455695D01*
X155558333Y-116503314D01*
X155463095Y-116550933D01*
X155367857Y-116550933D01*
X155272619Y-116503314D01*
X155225000Y-116455695D01*
X155177380Y-116360457D01*
X155177380Y-116122361D01*
X155225000Y-115979504D01*
X155177380Y-115646171D02*
X156177380Y-115408076D01*
X155463095Y-115217600D01*
X156177380Y-115027123D01*
X155177380Y-114789028D01*
X156177380Y-113884266D02*
X156177380Y-114455695D01*
X156177380Y-114169980D02*
X155177380Y-114169980D01*
X155320238Y-114265219D01*
X155415476Y-114360457D01*
X155463095Y-114455695D01*
X143611695Y-132731780D02*
X143611695Y-133541304D01*
X143659314Y-133636542D01*
X143706933Y-133684161D01*
X143802171Y-133731780D01*
X143992647Y-133731780D01*
X144087885Y-133684161D01*
X144135504Y-133636542D01*
X144183123Y-133541304D01*
X144183123Y-132731780D01*
X145183123Y-133731780D02*
X144611695Y-133731780D01*
X144897409Y-133731780D02*
X144897409Y-132731780D01*
X144802171Y-132874638D01*
X144706933Y-132969876D01*
X144611695Y-133017495D01*
X165531895Y-126249180D02*
X165531895Y-127058704D01*
X165579514Y-127153942D01*
X165627133Y-127201561D01*
X165722371Y-127249180D01*
X165912847Y-127249180D01*
X166008085Y-127201561D01*
X166055704Y-127153942D01*
X166103323Y-127058704D01*
X166103323Y-126249180D01*
X166484276Y-126249180D02*
X167103323Y-126249180D01*
X166769990Y-126630133D01*
X166912847Y-126630133D01*
X167008085Y-126677752D01*
X167055704Y-126725371D01*
X167103323Y-126820609D01*
X167103323Y-127058704D01*
X167055704Y-127153942D01*
X167008085Y-127201561D01*
X166912847Y-127249180D01*
X166627133Y-127249180D01*
X166531895Y-127201561D01*
X166484276Y-127153942D01*
X193548095Y-136712380D02*
X193548095Y-137521904D01*
X193595714Y-137617142D01*
X193643333Y-137664761D01*
X193738571Y-137712380D01*
X193929047Y-137712380D01*
X194024285Y-137664761D01*
X194071904Y-137617142D01*
X194119523Y-137521904D01*
X194119523Y-136712380D01*
X195024285Y-137045714D02*
X195024285Y-137712380D01*
X194786190Y-136664761D02*
X194548095Y-137379047D01*
X195167142Y-137379047D01*
X94488095Y-136712380D02*
X94488095Y-137521904D01*
X94535714Y-137617142D01*
X94583333Y-137664761D01*
X94678571Y-137712380D01*
X94869047Y-137712380D01*
X94964285Y-137664761D01*
X95011904Y-137617142D01*
X95059523Y-137521904D01*
X95059523Y-136712380D01*
X96011904Y-136712380D02*
X95535714Y-136712380D01*
X95488095Y-137188571D01*
X95535714Y-137140952D01*
X95630952Y-137093333D01*
X95869047Y-137093333D01*
X95964285Y-137140952D01*
X96011904Y-137188571D01*
X96059523Y-137283809D01*
X96059523Y-137521904D01*
X96011904Y-137617142D01*
X95964285Y-137664761D01*
X95869047Y-137712380D01*
X95630952Y-137712380D01*
X95535714Y-137664761D01*
X95488095Y-137617142D01*
X149201190Y-129736790D02*
X149677380Y-129736790D01*
X148677380Y-130070123D02*
X149201190Y-129736790D01*
X148677380Y-129403457D01*
X149677380Y-128546314D02*
X149677380Y-129117742D01*
X149677380Y-128832028D02*
X148677380Y-128832028D01*
X148820238Y-128927266D01*
X148915476Y-129022504D01*
X148963095Y-129117742D01*
X204963733Y-119171980D02*
X204487542Y-119171980D01*
X204487542Y-118171980D01*
X205201828Y-118171980D02*
X205820876Y-118171980D01*
X205487542Y-118552933D01*
X205630400Y-118552933D01*
X205725638Y-118600552D01*
X205773257Y-118648171D01*
X205820876Y-118743409D01*
X205820876Y-118981504D01*
X205773257Y-119076742D01*
X205725638Y-119124361D01*
X205630400Y-119171980D01*
X205344685Y-119171980D01*
X205249447Y-119124361D01*
X205201828Y-119076742D01*
X204176380Y-124002704D02*
X204985904Y-124002704D01*
X205081142Y-123955085D01*
X205128761Y-123907466D01*
X205176380Y-123812228D01*
X205176380Y-123621752D01*
X205128761Y-123526514D01*
X205081142Y-123478895D01*
X204985904Y-123431276D01*
X204176380Y-123431276D01*
X204271619Y-123002704D02*
X204224000Y-122955085D01*
X204176380Y-122859847D01*
X204176380Y-122621752D01*
X204224000Y-122526514D01*
X204271619Y-122478895D01*
X204366857Y-122431276D01*
X204462095Y-122431276D01*
X204604952Y-122478895D01*
X205176380Y-123050323D01*
X205176380Y-122431276D01*
X183491942Y-130396857D02*
X183539561Y-130444476D01*
X183587180Y-130587333D01*
X183587180Y-130682571D01*
X183539561Y-130825428D01*
X183444323Y-130920666D01*
X183349085Y-130968285D01*
X183158609Y-131015904D01*
X183015752Y-131015904D01*
X182825276Y-130968285D01*
X182730038Y-130920666D01*
X182634800Y-130825428D01*
X182587180Y-130682571D01*
X182587180Y-130587333D01*
X182634800Y-130444476D01*
X182682419Y-130396857D01*
X183587180Y-129444476D02*
X183587180Y-130015904D01*
X183587180Y-129730190D02*
X182587180Y-129730190D01*
X182730038Y-129825428D01*
X182825276Y-129920666D01*
X182872895Y-130015904D01*
X182587180Y-128539714D02*
X182587180Y-129015904D01*
X183063371Y-129063523D01*
X183015752Y-129015904D01*
X182968133Y-128920666D01*
X182968133Y-128682571D01*
X183015752Y-128587333D01*
X183063371Y-128539714D01*
X183158609Y-128492095D01*
X183396704Y-128492095D01*
X183491942Y-128539714D01*
X183539561Y-128587333D01*
X183587180Y-128682571D01*
X183587180Y-128920666D01*
X183539561Y-129015904D01*
X183491942Y-129063523D01*
X176274504Y-126614180D02*
X176274504Y-125614180D01*
X176512600Y-125614180D01*
X176655457Y-125661800D01*
X176750695Y-125757038D01*
X176798314Y-125852276D01*
X176845933Y-126042752D01*
X176845933Y-126185609D01*
X176798314Y-126376085D01*
X176750695Y-126471323D01*
X176655457Y-126566561D01*
X176512600Y-126614180D01*
X176274504Y-126614180D01*
X177226885Y-125709419D02*
X177274504Y-125661800D01*
X177369742Y-125614180D01*
X177607838Y-125614180D01*
X177703076Y-125661800D01*
X177750695Y-125709419D01*
X177798314Y-125804657D01*
X177798314Y-125899895D01*
X177750695Y-126042752D01*
X177179266Y-126614180D01*
X177798314Y-126614180D01*
X179568504Y-124804466D02*
X180044695Y-124804466D01*
X179473266Y-125090180D02*
X179806600Y-124090180D01*
X180139933Y-125090180D01*
X185471773Y-127553980D02*
X184995582Y-127553980D01*
X184995582Y-126553980D01*
X185757487Y-126649219D02*
X185805106Y-126601600D01*
X185900344Y-126553980D01*
X186138440Y-126553980D01*
X186233678Y-126601600D01*
X186281297Y-126649219D01*
X186328916Y-126744457D01*
X186328916Y-126839695D01*
X186281297Y-126982552D01*
X185709868Y-127553980D01*
X186328916Y-127553980D01*
M02*
