M48
;DRILL file {KiCad no-vcs-found-7406~56~ubuntu16.10.1} date Thu Dec 22 13:28:13 2016
;FORMAT={-:-/ absolute / metric / decimal}
FMAT,2
METRIC,TZ
T1C0.599
T2C0.635
T3C0.762
T4C0.800
T5C0.800
T6C0.889
T7C1.001
T8C1.016
T9C1.270
%
G90
G05
M71
T1
X153.035Y-128.511
X153.035Y-130.01
T2
X71.78Y-132.944
X72.415Y-143.358
X113.97Y-127.152
X115.113Y-125.984
X118.11Y-143.459
X122.428Y-132.74
X127.508Y-133.985
X127.825Y-136.207
X132.334Y-119.761
X135.179Y-132.563
X137.312Y-126.34
X137.312Y-128.067
X137.338Y-125.247
X139.954Y-133.223
X142.265Y-124.689
X142.773Y-137.77
X143.231Y-121.361
X145.085Y-121.514
X146.177Y-134.442
X146.914Y-127.025
X150.698Y-127.711
X150.774Y-130.023
X158.852Y-120.117
X160.02Y-135.89
X168.974Y-134.493
X170.04Y-132.182
X171.45Y-143.535
X181.673Y-133.794
X195.275Y-118.059
X201.6Y-143.078
X206.451Y-124.511
X208.534Y-132.588
X217.195Y-143.358
T3
X208.534Y-121.971
X208.534Y-124.511
X208.534Y-127.051
X208.534Y-129.591
T4
X176.835Y-127.254
X176.835Y-132.254
T5
X184.468Y-121.602
X187.007Y-121.602
T6
X63.576Y-140.31
X77.495Y-137.312
X90.602Y-137.312
X102.083Y-137.312
X108.56Y-136.931
X109.423Y-140.31
X162.89Y-140.31
X166.7Y-113.233
X176.53Y-137.262
X201.727Y-118.923
X201.739Y-135.572
X209.347Y-140.31
X224.688Y-140.31
T7
X177.013Y-122.987
T8
X99.72Y-124.511
X122.58Y-124.511
T9
X180.823Y-122.987
T7
X215.189Y-118.152G85X215.189Y-120.151
G05
X220.887Y-116.152G85X218.888Y-116.152
G05
X220.887Y-122.151G85X218.888Y-122.151
G05
T0
M30
