G04 #@! TF.GenerationSoftware,KiCad,Pcbnew,no-vcs-found-7406~56~ubuntu16.10.1*
G04 #@! TF.CreationDate,2016-12-22T13:28:21+01:00*
G04 #@! TF.ProjectId,nixie-clock,6E697869652D636C6F636B2E6B696361,rev?*
G04 #@! TF.FileFunction,Copper,L2,Bot,Signal*
G04 #@! TF.FilePolarity,Positive*
%FSLAX46Y46*%
G04 Gerber Fmt 4.6, Leading zero omitted, Abs format (unit mm)*
G04 Created by KiCad (PCBNEW no-vcs-found-7406~56~ubuntu16.10.1) date Thu Dec 22 13:28:21 2016*
%MOMM*%
%LPD*%
G01*
G04 APERTURE LIST*
%ADD10C,0.100000*%
%ADD11C,2.286000*%
%ADD12R,1.250000X1.500000*%
%ADD13R,3.500120X3.500120*%
%ADD14R,1.300000X1.500000*%
%ADD15R,1.700000X2.000000*%
%ADD16O,1.000760X1.501140*%
%ADD17O,1.524000X1.524000*%
%ADD18R,1.300000X1.300000*%
%ADD19C,1.300000*%
%ADD20C,1.998980*%
%ADD21R,1.998980X1.998980*%
%ADD22C,1.501140*%
%ADD23R,3.000000X2.200000*%
%ADD24C,0.889000*%
%ADD25C,1.524000*%
%ADD26C,0.304800*%
%ADD27C,0.508000*%
%ADD28C,1.016000*%
%ADD29C,0.381000*%
%ADD30C,0.254000*%
%ADD31C,1.524000*%
G04 APERTURE END LIST*
D10*
D11*
X99720400Y-124510800D03*
X122580400Y-124510800D03*
D12*
X144907000Y-127096200D03*
X144907000Y-129596200D03*
D13*
X219887800Y-122151140D03*
X219887800Y-116151660D03*
X215188800Y-119151400D03*
D14*
X184086500Y-132350500D03*
X184086500Y-129650500D03*
D15*
X162915600Y-131336800D03*
X162915600Y-127336800D03*
X160451800Y-127298200D03*
X160451800Y-123298200D03*
D16*
X153035000Y-130309620D03*
X153035000Y-128211580D03*
D17*
X208534000Y-129590800D03*
X208534000Y-127050800D03*
X208534000Y-124510800D03*
X208534000Y-121970800D03*
D18*
X176834800Y-127254000D03*
D19*
X176834800Y-132254000D03*
D20*
X180822600Y-122986800D03*
D21*
X177012600Y-122986800D03*
D22*
X184467500Y-121602500D03*
X187007500Y-121602500D03*
D23*
X174091600Y-126690800D03*
X174091600Y-132490800D03*
D24*
X127825500Y-136207500D03*
X146177000Y-134442200D03*
X170040300Y-132181600D03*
X195275200Y-118059200D03*
X206451200Y-124510800D03*
X208534000Y-132588000D03*
X217195400Y-143357600D03*
X171450000Y-143535400D03*
X118110000Y-143459200D03*
X72415400Y-143357600D03*
X71780400Y-132943600D03*
X158851600Y-120116600D03*
X135178800Y-132562600D03*
X150698200Y-127711200D03*
X142265400Y-124688600D03*
X201599800Y-143078200D03*
X150774400Y-130022600D03*
X122428000Y-132740400D03*
X132334000Y-119761000D03*
X146913600Y-127025400D03*
X137337800Y-125247400D03*
D25*
X176530000Y-137261600D03*
X224688400Y-140309600D03*
X201739500Y-135572500D03*
X90601800Y-137312400D03*
X166700200Y-113233200D03*
X108559600Y-136931400D03*
X77495400Y-137312400D03*
X201726800Y-118922800D03*
X102082600Y-137312400D03*
D24*
X137312400Y-126339600D03*
X115112800Y-125984000D03*
X113969800Y-127152400D03*
X137312400Y-128066800D03*
X127508000Y-133985000D03*
X139954000Y-133223000D03*
X142773400Y-137769598D03*
D25*
X209346800Y-140309600D03*
X63576200Y-140309600D03*
X109423200Y-140309600D03*
X162890200Y-140309600D03*
D24*
X160020000Y-135890000D03*
X168973500Y-134493000D03*
X143230600Y-121361200D03*
X181673500Y-133794500D03*
X145084800Y-121513600D03*
D26*
X126492000Y-136207500D02*
X127825500Y-136207500D01*
D27*
X208534000Y-124510800D02*
X206451200Y-124510800D01*
X217195400Y-143357600D02*
X217170000Y-143357600D01*
D28*
X135153400Y-132588000D02*
X135153400Y-132613400D01*
X135178800Y-132562600D02*
X135153400Y-132588000D01*
D27*
X201574400Y-143103600D02*
X201574400Y-143230600D01*
X201599800Y-143078200D02*
X201574400Y-143103600D01*
D29*
X131216400Y-130911600D02*
X124256800Y-130911600D01*
X149885400Y-130911600D02*
X150774400Y-130022600D01*
X131216400Y-130911600D02*
X149885400Y-130911600D01*
X124256800Y-130911600D02*
X122428000Y-132740400D01*
D26*
X137337800Y-125247400D02*
X137337800Y-124764800D01*
X137337800Y-124764800D02*
X132334000Y-119761000D01*
D30*
X144907000Y-127096200D02*
X146842800Y-127096200D01*
X144836200Y-127025400D02*
X139115800Y-127025400D01*
X137337800Y-125247400D02*
X139115800Y-127025400D01*
X144836200Y-127025400D02*
X144907000Y-127096200D01*
D28*
X176530000Y-137261600D02*
X177203100Y-136588500D01*
X201739500Y-135572500D02*
X200914000Y-136398000D01*
X200723500Y-136588500D02*
X200914000Y-136398000D01*
X177203100Y-136588500D02*
X200723500Y-136588500D01*
X201739500Y-135572500D02*
X219951300Y-135572500D01*
X219951300Y-135572500D02*
X224688400Y-140309600D01*
X201726800Y-118922800D02*
X201726800Y-135559800D01*
X201726800Y-135559800D02*
X201739500Y-135572500D01*
X119532400Y-113233200D02*
X108559600Y-124206000D01*
X119532400Y-113233200D02*
X166700200Y-113233200D01*
X108559600Y-124206000D02*
X108559600Y-136931400D01*
X102082600Y-137312400D02*
X108178600Y-137312400D01*
X108178600Y-137312400D02*
X108559600Y-136931400D01*
X102082600Y-137312400D02*
X90601800Y-137312400D01*
X90601800Y-137312400D02*
X77495400Y-137312400D01*
X201726800Y-118922800D02*
X201701400Y-118948200D01*
D29*
X137160000Y-126492000D02*
X137312400Y-126339600D01*
X115620800Y-126492000D02*
X137160000Y-126492000D01*
X115112800Y-125984000D02*
X115620800Y-126492000D01*
X113969800Y-127152400D02*
X136398000Y-127152400D01*
X136398000Y-127152400D02*
X137312400Y-128066800D01*
D28*
X128079500Y-133985000D02*
X127508000Y-133985000D01*
X139192000Y-133985000D02*
X128079500Y-133985000D01*
X139954000Y-133223000D02*
X139192000Y-133985000D01*
X141859000Y-134747000D02*
X140335000Y-133223000D01*
X140335000Y-133223000D02*
X139954000Y-133223000D01*
X142773400Y-135661400D02*
X141859000Y-134747000D01*
X142773400Y-137769598D02*
X142773400Y-135661400D01*
D31*
X162890200Y-140309600D02*
X173456600Y-140309600D01*
X179285900Y-140309600D02*
X209346800Y-140309600D01*
X177990500Y-141605000D02*
X179285900Y-140309600D01*
X174752000Y-141605000D02*
X177990500Y-141605000D01*
X173456600Y-140309600D02*
X174752000Y-141605000D01*
X168279400Y-127275000D02*
X168863600Y-126690800D01*
X164217600Y-131336800D02*
X168279400Y-127275000D01*
X162915600Y-131336800D02*
X164217600Y-131336800D01*
X168863600Y-126690800D02*
X174091600Y-126690800D01*
X174091600Y-126690800D02*
X176271600Y-126690800D01*
X176271600Y-126690800D02*
X176834800Y-127254000D01*
X109423200Y-140309600D02*
X63576200Y-140309600D01*
X162890200Y-140309600D02*
X109423200Y-140309600D01*
X162890200Y-132080000D02*
X162890200Y-140309600D01*
D29*
X160020000Y-130048000D02*
X160020000Y-135890000D01*
X158559500Y-128587500D02*
X160020000Y-130048000D01*
X180975000Y-134493000D02*
X181673500Y-133794500D01*
X168973500Y-134493000D02*
X180975000Y-134493000D01*
X158559500Y-127127000D02*
X158559500Y-128587500D01*
X143230600Y-121361200D02*
X144487900Y-122618500D01*
X154051000Y-122618500D02*
X158559500Y-127127000D01*
X144487900Y-122618500D02*
X154051000Y-122618500D01*
X158559500Y-128587500D02*
X158559500Y-128714500D01*
X183007000Y-132461000D02*
X183117500Y-132350500D01*
X183117500Y-132350500D02*
X184086500Y-132350500D01*
X183070500Y-132397500D02*
X183007000Y-132461000D01*
X183007000Y-132461000D02*
X181673500Y-133794500D01*
X160451800Y-127298200D02*
X162877000Y-127298200D01*
X162877000Y-127298200D02*
X162915600Y-127336800D01*
X154667200Y-121513600D02*
X160490400Y-127336800D01*
X145084800Y-121513600D02*
X154667200Y-121513600D01*
D30*
G36*
X107751377Y-123397777D02*
X107684336Y-123479393D01*
X107616495Y-123560243D01*
X107613601Y-123565507D01*
X107609784Y-123570154D01*
X107559889Y-123663209D01*
X107509028Y-123755724D01*
X107507210Y-123761455D01*
X107504371Y-123766750D01*
X107473514Y-123867679D01*
X107441577Y-123968357D01*
X107440907Y-123974332D01*
X107439150Y-123980078D01*
X107428484Y-124085079D01*
X107416711Y-124190041D01*
X107416629Y-124201792D01*
X107416607Y-124202011D01*
X107416626Y-124202215D01*
X107416600Y-124206000D01*
X107416600Y-136127893D01*
X107388180Y-136169400D01*
X102886383Y-136169400D01*
X102750262Y-136077585D01*
X102497703Y-135971419D01*
X102229333Y-135916331D01*
X101955374Y-135914418D01*
X101686261Y-135965754D01*
X101432244Y-136068384D01*
X101277875Y-136169400D01*
X91405583Y-136169400D01*
X91269462Y-136077585D01*
X91016903Y-135971419D01*
X90748533Y-135916331D01*
X90474574Y-135914418D01*
X90205461Y-135965754D01*
X89951444Y-136068384D01*
X89797075Y-136169400D01*
X78299183Y-136169400D01*
X78163062Y-136077585D01*
X77910503Y-135971419D01*
X77642133Y-135916331D01*
X77368174Y-135914418D01*
X77099061Y-135965754D01*
X76845044Y-136068384D01*
X76615799Y-136218397D01*
X76420058Y-136410081D01*
X76265277Y-136636134D01*
X76157350Y-136887946D01*
X76100389Y-137155924D01*
X76096564Y-137429864D01*
X76146020Y-137699328D01*
X76246874Y-137954055D01*
X76373538Y-138150600D01*
X63596933Y-138150600D01*
X63379578Y-138149083D01*
X62963675Y-138228420D01*
X62571104Y-138387029D01*
X62216817Y-138618868D01*
X61914308Y-138915107D01*
X61675100Y-139264461D01*
X61508304Y-139653625D01*
X61420274Y-140067774D01*
X61414363Y-140491135D01*
X61490795Y-140907580D01*
X61646659Y-141301249D01*
X61876019Y-141657147D01*
X62170139Y-141961716D01*
X62517815Y-142203357D01*
X62905804Y-142372866D01*
X63319329Y-142463785D01*
X63742638Y-142472652D01*
X63765618Y-142468600D01*
X109396196Y-142468600D01*
X109589638Y-142472652D01*
X109612618Y-142468600D01*
X162863196Y-142468600D01*
X163056638Y-142472652D01*
X163079618Y-142468600D01*
X172562312Y-142468600D01*
X173225356Y-143131643D01*
X173379429Y-143258200D01*
X173532236Y-143386420D01*
X173542188Y-143391891D01*
X173550958Y-143399095D01*
X173726702Y-143493328D01*
X173901479Y-143589413D01*
X173912299Y-143592845D01*
X173922306Y-143598211D01*
X174113019Y-143656517D01*
X174303119Y-143716821D01*
X174314403Y-143718087D01*
X174325257Y-143721405D01*
X174523580Y-143741550D01*
X174721856Y-143763790D01*
X174744056Y-143763945D01*
X174744463Y-143763986D01*
X174744842Y-143763950D01*
X174752000Y-143764000D01*
X177990500Y-143764000D01*
X178188927Y-143744544D01*
X178387651Y-143727158D01*
X178398557Y-143723989D01*
X178409852Y-143722882D01*
X178600742Y-143665249D01*
X178792283Y-143609601D01*
X178802362Y-143604377D01*
X178813231Y-143601095D01*
X178989301Y-143507477D01*
X179166376Y-143415690D01*
X179175251Y-143408605D01*
X179185272Y-143403277D01*
X179339774Y-143277268D01*
X179495680Y-143152810D01*
X179511488Y-143137222D01*
X179511805Y-143136963D01*
X179512048Y-143136669D01*
X179517144Y-143131644D01*
X180180187Y-142468600D01*
X209319796Y-142468600D01*
X209513238Y-142472652D01*
X209930207Y-142399129D01*
X210324954Y-142246017D01*
X210682444Y-142019147D01*
X210989060Y-141727161D01*
X211233122Y-141381180D01*
X211405335Y-140994384D01*
X211499139Y-140581504D01*
X211502262Y-140357827D01*
X211505747Y-140324673D01*
X211503127Y-140295887D01*
X211505892Y-140097899D01*
X211423653Y-139682561D01*
X211262307Y-139291107D01*
X211028000Y-138938447D01*
X210729657Y-138638013D01*
X210378641Y-138401250D01*
X209988323Y-138237175D01*
X209573569Y-138152038D01*
X209150178Y-138149083D01*
X209142226Y-138150600D01*
X179285900Y-138150600D01*
X179087424Y-138170061D01*
X178888749Y-138187443D01*
X178877848Y-138190610D01*
X178866548Y-138191718D01*
X178675617Y-138249363D01*
X178484117Y-138304999D01*
X178474038Y-138310223D01*
X178463169Y-138313505D01*
X178287099Y-138407123D01*
X178110024Y-138498910D01*
X178101149Y-138505995D01*
X178091128Y-138511323D01*
X177936626Y-138637332D01*
X177780720Y-138761790D01*
X177764917Y-138777375D01*
X177764595Y-138777637D01*
X177764349Y-138777935D01*
X177759256Y-138782957D01*
X177096212Y-139446000D01*
X175646287Y-139446000D01*
X174983244Y-138782956D01*
X174829141Y-138656375D01*
X174676364Y-138528180D01*
X174666412Y-138522709D01*
X174657642Y-138515505D01*
X174481898Y-138421272D01*
X174307121Y-138325187D01*
X174296301Y-138321755D01*
X174286294Y-138316389D01*
X174095594Y-138258087D01*
X173905481Y-138197779D01*
X173894195Y-138196513D01*
X173883342Y-138193195D01*
X173684985Y-138173046D01*
X173486744Y-138150810D01*
X173464553Y-138150655D01*
X173464136Y-138150613D01*
X173463747Y-138150650D01*
X173456600Y-138150600D01*
X165049200Y-138150600D01*
X165049200Y-137379064D01*
X175131164Y-137379064D01*
X175180620Y-137648528D01*
X175281474Y-137903255D01*
X175429883Y-138133542D01*
X175620196Y-138330616D01*
X175845163Y-138486972D01*
X176096215Y-138596654D01*
X176363789Y-138655484D01*
X176637695Y-138661222D01*
X176907499Y-138613648D01*
X177162923Y-138514575D01*
X177394240Y-138367777D01*
X177592639Y-138178845D01*
X177750561Y-137954975D01*
X177850059Y-137731500D01*
X200723500Y-137731500D01*
X200828606Y-137721194D01*
X200933757Y-137711995D01*
X200939527Y-137710319D01*
X200945510Y-137709732D01*
X201046559Y-137679223D01*
X201147973Y-137649760D01*
X201153313Y-137646992D01*
X201159063Y-137645256D01*
X201252232Y-137595718D01*
X201346023Y-137547101D01*
X201350722Y-137543349D01*
X201356027Y-137540529D01*
X201437811Y-137473828D01*
X201520360Y-137407929D01*
X201528727Y-137399678D01*
X201528897Y-137399539D01*
X201529027Y-137399381D01*
X201531723Y-137396723D01*
X201979686Y-136948760D01*
X202116999Y-136924548D01*
X202372423Y-136825475D01*
X202545716Y-136715500D01*
X219477854Y-136715500D01*
X223312076Y-140549722D01*
X223339020Y-140696528D01*
X223439874Y-140951255D01*
X223588283Y-141181542D01*
X223778596Y-141378616D01*
X224003563Y-141534972D01*
X224254615Y-141644654D01*
X224522189Y-141703484D01*
X224796095Y-141709222D01*
X225065899Y-141661648D01*
X225321323Y-141562575D01*
X225552640Y-141415777D01*
X225751039Y-141226845D01*
X225908961Y-141002975D01*
X226020393Y-140752695D01*
X226081090Y-140485538D01*
X226085459Y-140172617D01*
X226032246Y-139903869D01*
X225927846Y-139650575D01*
X225776235Y-139422383D01*
X225583190Y-139227985D01*
X225356062Y-139074785D01*
X225103503Y-138968619D01*
X224927798Y-138932552D01*
X220759523Y-134764277D01*
X220677907Y-134697236D01*
X220597057Y-134629395D01*
X220591793Y-134626501D01*
X220587146Y-134622684D01*
X220494091Y-134572789D01*
X220401576Y-134521928D01*
X220395845Y-134520110D01*
X220390550Y-134517271D01*
X220289621Y-134486414D01*
X220188943Y-134454477D01*
X220182968Y-134453807D01*
X220177222Y-134452050D01*
X220072221Y-134441384D01*
X219967259Y-134429611D01*
X219955508Y-134429529D01*
X219955289Y-134429507D01*
X219955085Y-134429526D01*
X219951300Y-134429500D01*
X202869800Y-134429500D01*
X202869800Y-129977803D01*
X207516073Y-129977803D01*
X207611133Y-130168955D01*
X207741658Y-130337888D01*
X207902632Y-130478111D01*
X208087869Y-130584235D01*
X208146998Y-130608715D01*
X208311000Y-130573054D01*
X208311000Y-129813800D01*
X208757000Y-129813800D01*
X208757000Y-130573054D01*
X208921002Y-130608715D01*
X208980131Y-130584235D01*
X209165368Y-130478111D01*
X209326342Y-130337888D01*
X209456867Y-130168955D01*
X209551927Y-129977803D01*
X209518185Y-129813800D01*
X208757000Y-129813800D01*
X208311000Y-129813800D01*
X207549815Y-129813800D01*
X207516073Y-129977803D01*
X202869800Y-129977803D01*
X202869800Y-129203797D01*
X207516073Y-129203797D01*
X207549815Y-129367800D01*
X208311000Y-129367800D01*
X208311000Y-128608546D01*
X208757000Y-128608546D01*
X208757000Y-129367800D01*
X209518185Y-129367800D01*
X209551927Y-129203797D01*
X209456867Y-129012645D01*
X209326342Y-128843712D01*
X209165368Y-128703489D01*
X208980131Y-128597365D01*
X208921002Y-128572885D01*
X208757000Y-128608546D01*
X208311000Y-128608546D01*
X208146998Y-128572885D01*
X208087869Y-128597365D01*
X207902632Y-128703489D01*
X207741658Y-128843712D01*
X207611133Y-129012645D01*
X207516073Y-129203797D01*
X202869800Y-129203797D01*
X202869800Y-127044041D01*
X207137000Y-127044041D01*
X207137000Y-127057559D01*
X207163606Y-127328904D01*
X207242409Y-127589914D01*
X207370409Y-127830647D01*
X207542730Y-128041933D01*
X207752808Y-128215724D01*
X207992641Y-128345402D01*
X208253094Y-128426026D01*
X208524247Y-128454525D01*
X208795772Y-128429814D01*
X209057325Y-128352835D01*
X209298946Y-128226519D01*
X209511430Y-128055677D01*
X209686684Y-127846818D01*
X209818032Y-127607896D01*
X209900472Y-127348012D01*
X209930864Y-127077064D01*
X209931000Y-127057559D01*
X209931000Y-127044041D01*
X209904394Y-126772696D01*
X209825591Y-126511686D01*
X209697591Y-126270953D01*
X209525270Y-126059667D01*
X209315192Y-125885876D01*
X209075359Y-125756198D01*
X208814906Y-125675574D01*
X208543753Y-125647075D01*
X208272228Y-125671786D01*
X208010675Y-125748765D01*
X207769054Y-125875081D01*
X207556570Y-126045923D01*
X207381316Y-126254782D01*
X207249968Y-126493704D01*
X207167528Y-126753588D01*
X207137136Y-127024536D01*
X207137000Y-127044041D01*
X202869800Y-127044041D01*
X202869800Y-124897803D01*
X207516073Y-124897803D01*
X207611133Y-125088955D01*
X207741658Y-125257888D01*
X207902632Y-125398111D01*
X208087869Y-125504235D01*
X208146998Y-125528715D01*
X208311000Y-125493054D01*
X208311000Y-124733800D01*
X208757000Y-124733800D01*
X208757000Y-125493054D01*
X208921002Y-125528715D01*
X208980131Y-125504235D01*
X209165368Y-125398111D01*
X209326342Y-125257888D01*
X209456867Y-125088955D01*
X209551927Y-124897803D01*
X209518185Y-124733800D01*
X208757000Y-124733800D01*
X208311000Y-124733800D01*
X207549815Y-124733800D01*
X207516073Y-124897803D01*
X202869800Y-124897803D01*
X202869800Y-124123797D01*
X207516073Y-124123797D01*
X207549815Y-124287800D01*
X208311000Y-124287800D01*
X208311000Y-123528546D01*
X208757000Y-123528546D01*
X208757000Y-124287800D01*
X209518185Y-124287800D01*
X209551927Y-124123797D01*
X209456867Y-123932645D01*
X209326342Y-123763712D01*
X209165368Y-123623489D01*
X208980131Y-123517365D01*
X208921002Y-123492885D01*
X208757000Y-123528546D01*
X208311000Y-123528546D01*
X208146998Y-123492885D01*
X208087869Y-123517365D01*
X207902632Y-123623489D01*
X207741658Y-123763712D01*
X207611133Y-123932645D01*
X207516073Y-124123797D01*
X202869800Y-124123797D01*
X202869800Y-121964041D01*
X207137000Y-121964041D01*
X207137000Y-121977559D01*
X207163606Y-122248904D01*
X207242409Y-122509914D01*
X207370409Y-122750647D01*
X207542730Y-122961933D01*
X207752808Y-123135724D01*
X207992641Y-123265402D01*
X208253094Y-123346026D01*
X208524247Y-123374525D01*
X208795772Y-123349814D01*
X209057325Y-123272835D01*
X209298946Y-123146519D01*
X209511430Y-122975677D01*
X209686684Y-122766818D01*
X209818032Y-122527896D01*
X209900472Y-122268012D01*
X209930864Y-121997064D01*
X209931000Y-121977559D01*
X209931000Y-121964041D01*
X209904394Y-121692696D01*
X209825591Y-121431686D01*
X209697591Y-121190953D01*
X209525270Y-120979667D01*
X209315192Y-120805876D01*
X209075359Y-120676198D01*
X208814906Y-120595574D01*
X208543753Y-120567075D01*
X208272228Y-120591786D01*
X208010675Y-120668765D01*
X207769054Y-120795081D01*
X207556570Y-120965923D01*
X207381316Y-121174782D01*
X207249968Y-121413704D01*
X207167528Y-121673588D01*
X207137136Y-121944536D01*
X207137000Y-121964041D01*
X202869800Y-121964041D01*
X202869800Y-119726125D01*
X202947361Y-119616175D01*
X203058793Y-119365895D01*
X203119490Y-119098738D01*
X203123859Y-118785817D01*
X203070646Y-118517069D01*
X202966246Y-118263775D01*
X202814635Y-118035583D01*
X202621590Y-117841185D01*
X202394462Y-117687985D01*
X202141903Y-117581819D01*
X201873533Y-117526731D01*
X201599574Y-117524818D01*
X201330461Y-117576154D01*
X201076444Y-117678784D01*
X200847199Y-117828797D01*
X200651458Y-118020481D01*
X200496677Y-118246534D01*
X200388750Y-118498346D01*
X200331789Y-118766324D01*
X200327964Y-119040264D01*
X200377420Y-119309728D01*
X200478274Y-119564455D01*
X200583800Y-119728200D01*
X200583800Y-134787541D01*
X200509377Y-134896234D01*
X200401450Y-135148046D01*
X200362024Y-135333530D01*
X200250054Y-135445500D01*
X177203100Y-135445500D01*
X177097994Y-135455806D01*
X176992843Y-135465005D01*
X176987073Y-135466681D01*
X176981090Y-135467268D01*
X176880041Y-135497777D01*
X176778627Y-135527240D01*
X176773287Y-135530008D01*
X176767537Y-135531744D01*
X176674368Y-135581282D01*
X176580577Y-135629899D01*
X176575878Y-135633651D01*
X176570573Y-135636471D01*
X176488789Y-135703172D01*
X176406240Y-135769071D01*
X176397873Y-135777322D01*
X176397703Y-135777461D01*
X176397573Y-135777619D01*
X176394877Y-135780277D01*
X176290029Y-135885125D01*
X176133661Y-135914954D01*
X175879644Y-136017584D01*
X175650399Y-136167597D01*
X175454658Y-136359281D01*
X175299877Y-136585334D01*
X175191950Y-136837146D01*
X175134989Y-137105124D01*
X175131164Y-137379064D01*
X165049200Y-137379064D01*
X165049200Y-134583767D01*
X167892581Y-134583767D01*
X167930797Y-134791990D01*
X168008730Y-134988825D01*
X168123410Y-135166773D01*
X168270469Y-135319058D01*
X168444307Y-135439879D01*
X168638302Y-135524633D01*
X168845064Y-135570093D01*
X169056719Y-135574526D01*
X169265204Y-135537765D01*
X169462577Y-135461208D01*
X169641322Y-135347773D01*
X169672062Y-135318500D01*
X180975000Y-135318500D01*
X181050858Y-135311062D01*
X181126852Y-135304413D01*
X181131023Y-135303201D01*
X181135340Y-135302778D01*
X181208334Y-135280740D01*
X181281564Y-135259465D01*
X181285416Y-135257468D01*
X181289574Y-135256213D01*
X181356884Y-135220423D01*
X181424600Y-135185323D01*
X181427996Y-135182612D01*
X181431825Y-135180576D01*
X181490892Y-135132403D01*
X181550510Y-135084810D01*
X181556551Y-135078853D01*
X181556676Y-135078751D01*
X181556772Y-135078635D01*
X181558717Y-135076717D01*
X181759984Y-134875450D01*
X181965204Y-134839265D01*
X182162577Y-134762708D01*
X182341322Y-134649273D01*
X182494630Y-134503280D01*
X182616661Y-134330290D01*
X182702768Y-134136892D01*
X182749670Y-133930452D01*
X182750303Y-133885131D01*
X183039379Y-133596054D01*
X183082006Y-133631037D01*
X183192320Y-133690002D01*
X183312018Y-133726312D01*
X183436500Y-133738572D01*
X184736500Y-133738572D01*
X184860982Y-133726312D01*
X184980680Y-133690002D01*
X185090994Y-133631037D01*
X185187685Y-133551685D01*
X185267037Y-133454994D01*
X185326002Y-133344680D01*
X185362312Y-133224982D01*
X185374572Y-133100500D01*
X185374572Y-131600500D01*
X185362312Y-131476018D01*
X185326002Y-131356320D01*
X185267037Y-131246006D01*
X185187685Y-131149315D01*
X185090994Y-131069963D01*
X184980680Y-131010998D01*
X184860982Y-130974688D01*
X184736500Y-130962428D01*
X183436500Y-130962428D01*
X183312018Y-130974688D01*
X183192320Y-131010998D01*
X183082006Y-131069963D01*
X182985315Y-131149315D01*
X182905963Y-131246006D01*
X182846998Y-131356320D01*
X182810688Y-131476018D01*
X182799553Y-131589081D01*
X182735595Y-131623088D01*
X182667901Y-131658177D01*
X182664507Y-131660887D01*
X182660675Y-131662924D01*
X182601586Y-131711115D01*
X182541990Y-131758690D01*
X182535953Y-131764643D01*
X182535824Y-131764749D01*
X182535725Y-131764869D01*
X182533784Y-131766783D01*
X182486784Y-131813783D01*
X182423283Y-131877283D01*
X182423278Y-131877289D01*
X181586248Y-132714318D01*
X181575189Y-132714241D01*
X181367238Y-132753910D01*
X181170952Y-132833215D01*
X180993808Y-132949134D01*
X180842554Y-133097253D01*
X180722950Y-133271931D01*
X180639552Y-133466512D01*
X180596831Y-133667500D01*
X175909750Y-133667500D01*
X175918600Y-133623007D01*
X175918600Y-133028219D01*
X176375951Y-133028219D01*
X176453251Y-133158548D01*
X176637051Y-133215604D01*
X176828451Y-133235705D01*
X177020095Y-133218081D01*
X177204617Y-133163407D01*
X177216349Y-133158548D01*
X177293649Y-133028219D01*
X176834800Y-132569370D01*
X176375951Y-133028219D01*
X175918600Y-133028219D01*
X175918600Y-132795550D01*
X175836852Y-132713802D01*
X175918600Y-132713802D01*
X175918600Y-132600891D01*
X175925393Y-132623817D01*
X175930252Y-132635549D01*
X176060581Y-132712849D01*
X176519430Y-132254000D01*
X177150170Y-132254000D01*
X177609019Y-132712849D01*
X177739348Y-132635549D01*
X177796404Y-132451749D01*
X177816505Y-132260349D01*
X177798881Y-132068705D01*
X177744207Y-131884183D01*
X177739348Y-131872451D01*
X177609019Y-131795151D01*
X177150170Y-132254000D01*
X176519430Y-132254000D01*
X176060581Y-131795151D01*
X175930252Y-131872451D01*
X175918600Y-131909987D01*
X175918600Y-131479781D01*
X176375951Y-131479781D01*
X176834800Y-131938630D01*
X177293649Y-131479781D01*
X177216349Y-131349452D01*
X177032549Y-131292396D01*
X176841149Y-131272295D01*
X176649505Y-131289919D01*
X176464983Y-131344593D01*
X176453251Y-131349452D01*
X176375951Y-131479781D01*
X175918600Y-131479781D01*
X175918600Y-131358593D01*
X175906034Y-131295417D01*
X175881384Y-131235907D01*
X175845597Y-131182349D01*
X175800050Y-131136802D01*
X175746492Y-131101016D01*
X175686982Y-131076366D01*
X175623806Y-131063800D01*
X174396350Y-131063800D01*
X174314600Y-131145550D01*
X174314600Y-132267800D01*
X174334600Y-132267800D01*
X174334600Y-132713800D01*
X174314600Y-132713800D01*
X174314600Y-132733800D01*
X173868600Y-132733800D01*
X173868600Y-132713800D01*
X172346350Y-132713800D01*
X172264600Y-132795550D01*
X172264600Y-133623007D01*
X172273450Y-133667500D01*
X169675149Y-133667500D01*
X169664928Y-133657207D01*
X169489421Y-133538825D01*
X169294261Y-133456788D01*
X169086884Y-133414219D01*
X168875189Y-133412741D01*
X168667238Y-133452410D01*
X168470952Y-133531715D01*
X168293808Y-133647634D01*
X168142554Y-133795753D01*
X168022950Y-133970431D01*
X167939552Y-134165012D01*
X167895537Y-134372087D01*
X167892581Y-134583767D01*
X165049200Y-134583767D01*
X165049200Y-133328179D01*
X165216401Y-133239277D01*
X165393476Y-133147490D01*
X165402351Y-133140405D01*
X165412372Y-133135077D01*
X165566874Y-133009068D01*
X165722780Y-132884610D01*
X165738588Y-132869022D01*
X165738905Y-132868763D01*
X165739148Y-132868469D01*
X165744244Y-132863444D01*
X167249094Y-131358593D01*
X172264600Y-131358593D01*
X172264600Y-132186050D01*
X172346350Y-132267800D01*
X173868600Y-132267800D01*
X173868600Y-131145550D01*
X173786850Y-131063800D01*
X172559394Y-131063800D01*
X172496218Y-131076366D01*
X172436708Y-131101016D01*
X172383150Y-131136802D01*
X172337603Y-131182349D01*
X172301816Y-131235907D01*
X172277166Y-131295417D01*
X172264600Y-131358593D01*
X167249094Y-131358593D01*
X168652437Y-129955250D01*
X183109500Y-129955250D01*
X183109500Y-130432707D01*
X183122066Y-130495883D01*
X183146716Y-130555393D01*
X183182503Y-130608951D01*
X183228050Y-130654498D01*
X183281608Y-130690284D01*
X183341118Y-130714934D01*
X183404294Y-130727500D01*
X183781750Y-130727500D01*
X183863500Y-130645750D01*
X183863500Y-129873500D01*
X184309500Y-129873500D01*
X184309500Y-130645750D01*
X184391250Y-130727500D01*
X184768706Y-130727500D01*
X184831882Y-130714934D01*
X184891392Y-130690284D01*
X184944950Y-130654498D01*
X184990497Y-130608951D01*
X185026284Y-130555393D01*
X185050934Y-130495883D01*
X185063500Y-130432707D01*
X185063500Y-129955250D01*
X184981750Y-129873500D01*
X184309500Y-129873500D01*
X183863500Y-129873500D01*
X183191250Y-129873500D01*
X183109500Y-129955250D01*
X168652437Y-129955250D01*
X169757887Y-128849800D01*
X171679891Y-128849800D01*
X171811713Y-128957983D01*
X172054405Y-129087704D01*
X172317740Y-129167586D01*
X172591600Y-129194559D01*
X175591600Y-129194559D01*
X175628867Y-129190888D01*
X175647605Y-129200904D01*
X175910940Y-129280786D01*
X176184800Y-129307759D01*
X176203150Y-129307759D01*
X176408057Y-129370405D01*
X176827264Y-129412986D01*
X177246757Y-129373333D01*
X177466722Y-129307759D01*
X177484800Y-129307759D01*
X177758660Y-129280786D01*
X178021995Y-129200904D01*
X178264687Y-129071183D01*
X178477408Y-128896608D01*
X178500645Y-128868293D01*
X183109500Y-128868293D01*
X183109500Y-129345750D01*
X183191250Y-129427500D01*
X183863500Y-129427500D01*
X183863500Y-128655250D01*
X184309500Y-128655250D01*
X184309500Y-129427500D01*
X184981750Y-129427500D01*
X185063500Y-129345750D01*
X185063500Y-128868293D01*
X185050934Y-128805117D01*
X185026284Y-128745607D01*
X184990497Y-128692049D01*
X184944950Y-128646502D01*
X184891392Y-128610716D01*
X184831882Y-128586066D01*
X184768706Y-128573500D01*
X184391250Y-128573500D01*
X184309500Y-128655250D01*
X183863500Y-128655250D01*
X183781750Y-128573500D01*
X183404294Y-128573500D01*
X183341118Y-128586066D01*
X183281608Y-128610716D01*
X183228050Y-128646502D01*
X183182503Y-128692049D01*
X183146716Y-128745607D01*
X183122066Y-128805117D01*
X183109500Y-128868293D01*
X178500645Y-128868293D01*
X178651983Y-128683887D01*
X178781704Y-128441195D01*
X178861586Y-128177860D01*
X178888559Y-127904000D01*
X178888559Y-127885741D01*
X178948175Y-127695507D01*
X178993682Y-127276609D01*
X178956958Y-126856849D01*
X178888559Y-126621419D01*
X178888559Y-126604000D01*
X178861586Y-126330140D01*
X178781704Y-126066805D01*
X178651983Y-125824113D01*
X178477408Y-125611392D01*
X178264687Y-125436817D01*
X178151501Y-125376318D01*
X178285950Y-125363076D01*
X178549285Y-125283194D01*
X178791977Y-125153473D01*
X179004698Y-124978898D01*
X179179273Y-124766177D01*
X179308994Y-124523485D01*
X179313542Y-124508493D01*
X179427291Y-124626283D01*
X179772308Y-124866076D01*
X180157331Y-125034289D01*
X180567693Y-125124513D01*
X180987765Y-125133312D01*
X181401546Y-125060351D01*
X181793275Y-124908410D01*
X182148031Y-124683274D01*
X182452302Y-124393521D01*
X182694498Y-124050186D01*
X182865394Y-123666347D01*
X182958481Y-123256625D01*
X182965182Y-122776718D01*
X182962422Y-122762780D01*
X182976341Y-122784378D01*
X183234302Y-123051503D01*
X183539234Y-123263437D01*
X183879523Y-123412106D01*
X184242209Y-123491847D01*
X184613476Y-123499624D01*
X184979182Y-123435140D01*
X185325399Y-123300852D01*
X185638939Y-123101873D01*
X185907859Y-122845784D01*
X186065741Y-122621972D01*
X186105140Y-122662770D01*
X186328266Y-122817847D01*
X186577264Y-122926631D01*
X186842649Y-122984980D01*
X187114314Y-122990671D01*
X187381910Y-122943486D01*
X187635245Y-122845224D01*
X187864669Y-122699627D01*
X188061445Y-122512241D01*
X188218075Y-122290202D01*
X188328595Y-122041970D01*
X188388796Y-121776998D01*
X188393129Y-121466638D01*
X188340351Y-121200089D01*
X188236805Y-120948867D01*
X188086435Y-120722542D01*
X187894969Y-120529734D01*
X187669699Y-120377788D01*
X187419207Y-120272491D01*
X187153032Y-120217853D01*
X186881315Y-120215956D01*
X186614403Y-120266872D01*
X186362465Y-120368662D01*
X186135096Y-120517448D01*
X186065427Y-120585673D01*
X185942012Y-120399918D01*
X185680347Y-120136420D01*
X185372485Y-119928765D01*
X185030153Y-119784861D01*
X184666390Y-119710191D01*
X184295050Y-119707599D01*
X183930280Y-119777183D01*
X183585972Y-119916292D01*
X183275241Y-120119629D01*
X183009923Y-120379447D01*
X182800123Y-120685852D01*
X182653834Y-121027171D01*
X182576626Y-121390404D01*
X182571638Y-121747585D01*
X182490945Y-121626131D01*
X182194883Y-121327995D01*
X181846551Y-121093042D01*
X181459217Y-120930222D01*
X181047635Y-120845737D01*
X180627481Y-120842803D01*
X180214759Y-120921534D01*
X179825190Y-121078930D01*
X179473612Y-121308997D01*
X179313692Y-121465602D01*
X179308994Y-121450115D01*
X179179273Y-121207423D01*
X179004698Y-120994702D01*
X178791977Y-120820127D01*
X178549285Y-120690406D01*
X178285950Y-120610524D01*
X178012090Y-120583551D01*
X176013110Y-120583551D01*
X175739250Y-120610524D01*
X175475915Y-120690406D01*
X175233223Y-120820127D01*
X175020502Y-120994702D01*
X174845927Y-121207423D01*
X174716206Y-121450115D01*
X174636324Y-121713450D01*
X174609351Y-121987310D01*
X174609351Y-123986290D01*
X174629123Y-124187041D01*
X172591600Y-124187041D01*
X172317740Y-124214014D01*
X172054405Y-124293896D01*
X171811713Y-124423617D01*
X171679891Y-124531800D01*
X168863600Y-124531800D01*
X168665169Y-124551256D01*
X168466450Y-124568642D01*
X168455544Y-124571810D01*
X168444248Y-124572918D01*
X168253333Y-124630559D01*
X168061818Y-124686199D01*
X168051740Y-124691423D01*
X168040869Y-124694705D01*
X167864780Y-124788333D01*
X167687724Y-124880110D01*
X167678849Y-124887195D01*
X167668828Y-124892523D01*
X167514326Y-125018532D01*
X167358420Y-125142990D01*
X167342617Y-125158575D01*
X167342295Y-125158837D01*
X167342049Y-125159135D01*
X167336957Y-125164156D01*
X166752756Y-125748356D01*
X166752751Y-125748362D01*
X164403672Y-128097440D01*
X164403672Y-126336800D01*
X164391412Y-126212318D01*
X164355102Y-126092620D01*
X164296137Y-125982306D01*
X164216785Y-125885615D01*
X164120094Y-125806263D01*
X164009780Y-125747298D01*
X163890082Y-125710988D01*
X163765600Y-125698728D01*
X162065600Y-125698728D01*
X161941118Y-125710988D01*
X161821420Y-125747298D01*
X161711106Y-125806263D01*
X161707217Y-125809454D01*
X161656294Y-125767663D01*
X161545980Y-125708698D01*
X161426282Y-125672388D01*
X161301800Y-125660128D01*
X159981161Y-125660128D01*
X157923984Y-123602950D01*
X159274800Y-123602950D01*
X159274800Y-124330407D01*
X159287366Y-124393583D01*
X159312016Y-124453093D01*
X159347803Y-124506651D01*
X159393350Y-124552198D01*
X159446908Y-124587984D01*
X159506418Y-124612634D01*
X159569594Y-124625200D01*
X160147050Y-124625200D01*
X160228800Y-124543450D01*
X160228800Y-123521200D01*
X160674800Y-123521200D01*
X160674800Y-124543450D01*
X160756550Y-124625200D01*
X161334006Y-124625200D01*
X161397182Y-124612634D01*
X161456692Y-124587984D01*
X161510250Y-124552198D01*
X161555797Y-124506651D01*
X161591584Y-124453093D01*
X161616234Y-124393583D01*
X161628800Y-124330407D01*
X161628800Y-123602950D01*
X161547050Y-123521200D01*
X160674800Y-123521200D01*
X160228800Y-123521200D01*
X159356550Y-123521200D01*
X159274800Y-123602950D01*
X157923984Y-123602950D01*
X156587027Y-122265993D01*
X159274800Y-122265993D01*
X159274800Y-122993450D01*
X159356550Y-123075200D01*
X160228800Y-123075200D01*
X160228800Y-122052950D01*
X160674800Y-122052950D01*
X160674800Y-123075200D01*
X161547050Y-123075200D01*
X161628800Y-122993450D01*
X161628800Y-122265993D01*
X161616234Y-122202817D01*
X161591584Y-122143307D01*
X161555797Y-122089749D01*
X161510250Y-122044202D01*
X161456692Y-122008416D01*
X161397182Y-121983766D01*
X161334006Y-121971200D01*
X160756550Y-121971200D01*
X160674800Y-122052950D01*
X160228800Y-122052950D01*
X160147050Y-121971200D01*
X159569594Y-121971200D01*
X159506418Y-121983766D01*
X159446908Y-122008416D01*
X159393350Y-122044202D01*
X159347803Y-122089749D01*
X159312016Y-122143307D01*
X159287366Y-122202817D01*
X159274800Y-122265993D01*
X156587027Y-122265993D01*
X155250917Y-120929883D01*
X155191974Y-120881467D01*
X155133580Y-120832469D01*
X155129775Y-120830377D01*
X155126422Y-120827623D01*
X155059223Y-120791591D01*
X154992399Y-120754854D01*
X154988263Y-120753542D01*
X154984436Y-120751490D01*
X154911505Y-120729193D01*
X154838831Y-120706139D01*
X154834517Y-120705655D01*
X154830366Y-120704386D01*
X154754484Y-120696678D01*
X154678726Y-120688180D01*
X154670250Y-120688121D01*
X154670081Y-120688104D01*
X154669923Y-120688119D01*
X154667200Y-120688100D01*
X145786449Y-120688100D01*
X145776228Y-120677807D01*
X145600721Y-120559425D01*
X145405561Y-120477388D01*
X145198184Y-120434819D01*
X144986489Y-120433341D01*
X144778538Y-120473010D01*
X144582252Y-120552315D01*
X144405108Y-120668234D01*
X144253854Y-120816353D01*
X144203807Y-120889445D01*
X144188354Y-120851953D01*
X144071200Y-120675623D01*
X143922028Y-120525407D01*
X143746521Y-120407025D01*
X143551361Y-120324988D01*
X143343984Y-120282419D01*
X143132289Y-120280941D01*
X142924338Y-120320610D01*
X142728052Y-120399915D01*
X142550908Y-120515834D01*
X142399654Y-120663953D01*
X142280050Y-120838631D01*
X142196652Y-121033212D01*
X142152637Y-121240287D01*
X142149681Y-121451967D01*
X142187897Y-121660190D01*
X142265830Y-121857025D01*
X142380510Y-122034973D01*
X142527569Y-122187258D01*
X142701407Y-122308079D01*
X142895402Y-122392833D01*
X143102164Y-122438293D01*
X143141074Y-122439108D01*
X143904184Y-123202217D01*
X143963101Y-123250612D01*
X144021520Y-123299631D01*
X144025325Y-123301723D01*
X144028678Y-123304477D01*
X144095893Y-123340518D01*
X144162701Y-123377246D01*
X144166835Y-123378557D01*
X144170665Y-123380611D01*
X144243614Y-123402913D01*
X144316269Y-123425961D01*
X144320584Y-123426445D01*
X144324735Y-123427714D01*
X144400611Y-123435422D01*
X144476374Y-123443920D01*
X144484850Y-123443979D01*
X144485019Y-123443996D01*
X144485177Y-123443981D01*
X144487900Y-123444000D01*
X153709066Y-123444000D01*
X157734000Y-127468934D01*
X157734000Y-128714500D01*
X157749722Y-128874840D01*
X157796287Y-129029074D01*
X157871924Y-129171325D01*
X157973749Y-129296176D01*
X158097886Y-129398871D01*
X158239606Y-129475498D01*
X158298203Y-129493637D01*
X159194500Y-130389934D01*
X159194500Y-135187420D01*
X159189054Y-135192753D01*
X159069450Y-135367431D01*
X158986052Y-135562012D01*
X158942037Y-135769087D01*
X158939081Y-135980767D01*
X158977297Y-136188990D01*
X159055230Y-136385825D01*
X159169910Y-136563773D01*
X159316969Y-136716058D01*
X159490807Y-136836879D01*
X159684802Y-136921633D01*
X159891564Y-136967093D01*
X160103219Y-136971526D01*
X160311704Y-136934765D01*
X160509077Y-136858208D01*
X160687822Y-136744773D01*
X160731200Y-136703465D01*
X160731200Y-138150600D01*
X143845947Y-138150600D01*
X143891423Y-138007241D01*
X143916289Y-137785557D01*
X143916400Y-137769598D01*
X143916400Y-135661400D01*
X143906094Y-135556294D01*
X143896895Y-135451143D01*
X143895219Y-135445373D01*
X143894632Y-135439390D01*
X143864123Y-135338341D01*
X143834660Y-135236927D01*
X143831892Y-135231587D01*
X143830156Y-135225837D01*
X143780618Y-135132668D01*
X143732001Y-135038877D01*
X143728249Y-135034178D01*
X143725429Y-135028873D01*
X143658728Y-134947089D01*
X143592829Y-134864540D01*
X143584578Y-134856173D01*
X143584439Y-134856003D01*
X143584281Y-134855873D01*
X143581623Y-134853177D01*
X141143223Y-132414777D01*
X141061607Y-132347736D01*
X140980757Y-132279895D01*
X140975493Y-132277001D01*
X140970846Y-132273184D01*
X140877791Y-132223289D01*
X140785276Y-132172428D01*
X140779545Y-132170610D01*
X140774250Y-132167771D01*
X140673321Y-132136914D01*
X140572643Y-132104977D01*
X140566668Y-132104307D01*
X140560922Y-132102550D01*
X140455921Y-132091884D01*
X140350959Y-132080111D01*
X140339208Y-132080029D01*
X140338989Y-132080007D01*
X140338785Y-132080026D01*
X140335000Y-132080000D01*
X139954000Y-132080000D01*
X139848894Y-132090306D01*
X139743743Y-132099505D01*
X139737973Y-132101181D01*
X139731990Y-132101768D01*
X139630941Y-132132277D01*
X139529527Y-132161740D01*
X139524187Y-132164508D01*
X139518437Y-132166244D01*
X139425248Y-132215793D01*
X139331478Y-132264399D01*
X139326780Y-132268149D01*
X139321473Y-132270971D01*
X139239667Y-132337690D01*
X139157140Y-132403571D01*
X139148773Y-132411822D01*
X139148603Y-132411961D01*
X139148473Y-132412119D01*
X139145777Y-132414777D01*
X138718554Y-132842000D01*
X127508000Y-132842000D01*
X127285990Y-132863768D01*
X127072437Y-132928244D01*
X126875473Y-133032971D01*
X126702603Y-133173961D01*
X126560410Y-133345843D01*
X126454310Y-133542070D01*
X126388345Y-133755168D01*
X126365028Y-133977020D01*
X126385246Y-134199177D01*
X126448229Y-134413175D01*
X126551578Y-134610865D01*
X126691358Y-134784715D01*
X126862243Y-134928105D01*
X127057724Y-135035572D01*
X127270357Y-135103023D01*
X127492041Y-135127889D01*
X127508000Y-135128000D01*
X139192000Y-135128000D01*
X139297106Y-135117694D01*
X139402257Y-135108495D01*
X139408027Y-135106819D01*
X139414010Y-135106232D01*
X139515059Y-135075723D01*
X139616473Y-135046260D01*
X139621813Y-135043492D01*
X139627563Y-135041756D01*
X139720732Y-134992218D01*
X139814523Y-134943601D01*
X139819222Y-134939849D01*
X139824527Y-134937029D01*
X139906311Y-134870328D01*
X139988860Y-134804429D01*
X139997227Y-134796178D01*
X139997397Y-134796039D01*
X139997527Y-134795881D01*
X140000223Y-134793223D01*
X140144500Y-134648946D01*
X141630400Y-136134846D01*
X141630400Y-137769598D01*
X141652168Y-137991608D01*
X141700171Y-138150600D01*
X109443933Y-138150600D01*
X109247900Y-138149232D01*
X109423840Y-138037577D01*
X109622239Y-137848645D01*
X109780161Y-137624775D01*
X109891593Y-137374495D01*
X109952290Y-137107338D01*
X109956659Y-136794417D01*
X109903446Y-136525669D01*
X109799046Y-136272375D01*
X109702600Y-136127213D01*
X109702600Y-132831167D01*
X121347081Y-132831167D01*
X121385297Y-133039390D01*
X121463230Y-133236225D01*
X121577910Y-133414173D01*
X121724969Y-133566458D01*
X121898807Y-133687279D01*
X122092802Y-133772033D01*
X122299564Y-133817493D01*
X122511219Y-133821926D01*
X122719704Y-133785165D01*
X122917077Y-133708608D01*
X123095822Y-133595173D01*
X123249130Y-133449180D01*
X123371161Y-133276190D01*
X123457268Y-133082792D01*
X123504170Y-132876352D01*
X123504803Y-132831031D01*
X124598733Y-131737100D01*
X149885400Y-131737100D01*
X149961258Y-131729662D01*
X150037252Y-131723013D01*
X150041423Y-131721801D01*
X150045740Y-131721378D01*
X150118734Y-131699340D01*
X150191964Y-131678065D01*
X150195816Y-131676068D01*
X150199974Y-131674813D01*
X150267284Y-131639023D01*
X150335000Y-131603923D01*
X150338396Y-131601212D01*
X150342225Y-131599176D01*
X150401292Y-131551003D01*
X150460910Y-131503410D01*
X150466951Y-131497453D01*
X150467076Y-131497351D01*
X150467172Y-131497235D01*
X150469117Y-131495317D01*
X150860884Y-131103550D01*
X151066104Y-131067365D01*
X151263477Y-130990808D01*
X151442222Y-130877373D01*
X151595530Y-130731380D01*
X151717561Y-130558390D01*
X151803668Y-130364992D01*
X151850570Y-130158552D01*
X151853946Y-129916750D01*
X151812826Y-129709081D01*
X151732154Y-129513353D01*
X151615000Y-129337023D01*
X151465828Y-129186807D01*
X151290321Y-129068425D01*
X151095161Y-128986388D01*
X150887784Y-128943819D01*
X150676089Y-128942341D01*
X150468138Y-128982010D01*
X150271852Y-129061315D01*
X150094708Y-129177234D01*
X149943454Y-129325353D01*
X149823850Y-129500031D01*
X149740452Y-129694612D01*
X149696437Y-129901687D01*
X149695992Y-129933574D01*
X149543466Y-130086100D01*
X145859000Y-130086100D01*
X145859000Y-129900950D01*
X145777250Y-129819200D01*
X145130000Y-129819200D01*
X145130000Y-129839200D01*
X144684000Y-129839200D01*
X144684000Y-129819200D01*
X144036750Y-129819200D01*
X143955000Y-129900950D01*
X143955000Y-130086100D01*
X124256800Y-130086100D01*
X124180938Y-130093539D01*
X124104948Y-130100187D01*
X124100777Y-130101399D01*
X124096460Y-130101822D01*
X124023466Y-130123860D01*
X123950236Y-130145135D01*
X123946384Y-130147132D01*
X123942226Y-130148387D01*
X123874916Y-130184177D01*
X123807200Y-130219277D01*
X123803804Y-130221988D01*
X123799975Y-130224024D01*
X123740908Y-130272197D01*
X123681290Y-130319790D01*
X123675253Y-130325743D01*
X123675124Y-130325849D01*
X123675025Y-130325969D01*
X123673084Y-130327883D01*
X122340748Y-131660218D01*
X122329689Y-131660141D01*
X122121738Y-131699810D01*
X121925452Y-131779115D01*
X121748308Y-131895034D01*
X121597054Y-132043153D01*
X121477450Y-132217831D01*
X121394052Y-132412412D01*
X121350037Y-132619487D01*
X121347081Y-132831167D01*
X109702600Y-132831167D01*
X109702600Y-127243167D01*
X112888881Y-127243167D01*
X112927097Y-127451390D01*
X113005030Y-127648225D01*
X113119710Y-127826173D01*
X113266769Y-127978458D01*
X113440607Y-128099279D01*
X113634602Y-128184033D01*
X113841364Y-128229493D01*
X114053019Y-128233926D01*
X114261504Y-128197165D01*
X114458877Y-128120608D01*
X114637622Y-128007173D01*
X114668362Y-127977900D01*
X136056066Y-127977900D01*
X136231540Y-128153374D01*
X136231481Y-128157567D01*
X136269697Y-128365790D01*
X136347630Y-128562625D01*
X136462310Y-128740573D01*
X136609369Y-128892858D01*
X136783207Y-129013679D01*
X136977202Y-129098433D01*
X137183964Y-129143893D01*
X137395619Y-129148326D01*
X137604104Y-129111565D01*
X137801477Y-129035008D01*
X137980222Y-128921573D01*
X138093192Y-128813993D01*
X143955000Y-128813993D01*
X143955000Y-129291450D01*
X144036750Y-129373200D01*
X144684000Y-129373200D01*
X144684000Y-128600950D01*
X145130000Y-128600950D01*
X145130000Y-129373200D01*
X145777250Y-129373200D01*
X145859000Y-129291450D01*
X145859000Y-128813993D01*
X145846434Y-128750817D01*
X145821784Y-128691307D01*
X145785997Y-128637749D01*
X145740450Y-128592202D01*
X145686892Y-128556416D01*
X145627382Y-128531766D01*
X145564206Y-128519200D01*
X145211750Y-128519200D01*
X145130000Y-128600950D01*
X144684000Y-128600950D01*
X144602250Y-128519200D01*
X144249794Y-128519200D01*
X144186618Y-128531766D01*
X144127108Y-128556416D01*
X144073550Y-128592202D01*
X144028003Y-128637749D01*
X143992216Y-128691307D01*
X143967566Y-128750817D01*
X143955000Y-128813993D01*
X138093192Y-128813993D01*
X138133530Y-128775580D01*
X138255561Y-128602590D01*
X138341668Y-128409192D01*
X138388570Y-128202752D01*
X138391946Y-127960950D01*
X138350826Y-127753281D01*
X138270154Y-127557553D01*
X138153000Y-127381223D01*
X138003828Y-127231007D01*
X137964401Y-127204413D01*
X137980222Y-127194373D01*
X138096455Y-127083686D01*
X138576985Y-127564216D01*
X138631429Y-127608937D01*
X138685295Y-127654136D01*
X138688803Y-127656064D01*
X138691903Y-127658611D01*
X138754004Y-127691909D01*
X138815616Y-127725781D01*
X138819432Y-127726991D01*
X138822967Y-127728887D01*
X138890351Y-127749488D01*
X138957371Y-127770748D01*
X138961349Y-127771194D01*
X138965185Y-127772367D01*
X139035222Y-127779481D01*
X139105161Y-127787326D01*
X139112997Y-127787381D01*
X139113140Y-127787395D01*
X139113273Y-127787382D01*
X139115800Y-127787400D01*
X143643928Y-127787400D01*
X143643928Y-127846200D01*
X143656188Y-127970682D01*
X143692498Y-128090380D01*
X143751463Y-128200694D01*
X143830815Y-128297385D01*
X143927506Y-128376737D01*
X144037820Y-128435702D01*
X144157518Y-128472012D01*
X144282000Y-128484272D01*
X145532000Y-128484272D01*
X145656482Y-128472012D01*
X145776180Y-128435702D01*
X145886494Y-128376737D01*
X145983185Y-128297385D01*
X146062537Y-128200694D01*
X146121502Y-128090380D01*
X146157812Y-127970682D01*
X146168890Y-127858200D01*
X146220269Y-127858200D01*
X146384407Y-127972279D01*
X146578402Y-128057033D01*
X146785164Y-128102493D01*
X146996819Y-128106926D01*
X147205304Y-128070165D01*
X147402677Y-127993608D01*
X147464008Y-127954686D01*
X151899620Y-127954686D01*
X151899620Y-128468474D01*
X151921243Y-128689004D01*
X151985289Y-128901134D01*
X152089318Y-129096784D01*
X152223756Y-129261621D01*
X152098183Y-129411274D01*
X151991432Y-129605452D01*
X151924431Y-129816667D01*
X151899731Y-130036874D01*
X151899620Y-130052726D01*
X151899620Y-130566514D01*
X151921243Y-130787044D01*
X151985289Y-130999174D01*
X152089318Y-131194824D01*
X152229368Y-131366542D01*
X152400104Y-131507787D01*
X152595023Y-131613179D01*
X152806700Y-131678704D01*
X153027074Y-131701866D01*
X153247749Y-131681783D01*
X153460321Y-131619220D01*
X153656692Y-131516559D01*
X153829384Y-131377712D01*
X153971817Y-131207966D01*
X154078568Y-131013788D01*
X154145569Y-130802573D01*
X154170269Y-130582366D01*
X154170380Y-130566514D01*
X154170380Y-130052726D01*
X154148757Y-129832196D01*
X154084711Y-129620066D01*
X153980682Y-129424416D01*
X153846244Y-129259579D01*
X153971817Y-129109926D01*
X154078568Y-128915748D01*
X154145569Y-128704533D01*
X154170269Y-128484326D01*
X154170380Y-128468474D01*
X154170380Y-127954686D01*
X154148757Y-127734156D01*
X154084711Y-127522026D01*
X153980682Y-127326376D01*
X153840632Y-127154658D01*
X153669896Y-127013413D01*
X153474977Y-126908021D01*
X153263300Y-126842496D01*
X153042926Y-126819334D01*
X152822251Y-126839417D01*
X152609679Y-126901980D01*
X152413308Y-127004641D01*
X152240616Y-127143488D01*
X152098183Y-127313234D01*
X151991432Y-127507412D01*
X151924431Y-127718627D01*
X151899731Y-127938834D01*
X151899620Y-127954686D01*
X147464008Y-127954686D01*
X147581422Y-127880173D01*
X147734730Y-127734180D01*
X147856761Y-127561190D01*
X147942868Y-127367792D01*
X147989770Y-127161352D01*
X147993146Y-126919550D01*
X147952026Y-126711881D01*
X147871354Y-126516153D01*
X147754200Y-126339823D01*
X147605028Y-126189607D01*
X147429521Y-126071225D01*
X147234361Y-125989188D01*
X147026984Y-125946619D01*
X146815289Y-125945141D01*
X146607338Y-125984810D01*
X146411052Y-126064115D01*
X146233908Y-126180034D01*
X146160761Y-126251665D01*
X146157812Y-126221718D01*
X146121502Y-126102020D01*
X146062537Y-125991706D01*
X145983185Y-125895015D01*
X145886494Y-125815663D01*
X145776180Y-125756698D01*
X145656482Y-125720388D01*
X145532000Y-125708128D01*
X144282000Y-125708128D01*
X144157518Y-125720388D01*
X144037820Y-125756698D01*
X143927506Y-125815663D01*
X143830815Y-125895015D01*
X143751463Y-125991706D01*
X143692498Y-126102020D01*
X143656188Y-126221718D01*
X143652083Y-126263400D01*
X139431431Y-126263400D01*
X138415862Y-125247832D01*
X138417346Y-125141550D01*
X138376226Y-124933881D01*
X138295554Y-124738153D01*
X138178400Y-124561823D01*
X138047107Y-124429611D01*
X138031620Y-124400485D01*
X137998169Y-124335952D01*
X137995588Y-124332719D01*
X137993642Y-124329059D01*
X137947622Y-124272633D01*
X137902295Y-124215853D01*
X137896613Y-124210090D01*
X137896516Y-124209971D01*
X137896406Y-124209880D01*
X137894576Y-124208024D01*
X133412557Y-119726005D01*
X133413546Y-119655150D01*
X133372426Y-119447481D01*
X133291754Y-119251753D01*
X133174600Y-119075423D01*
X133025428Y-118925207D01*
X132849921Y-118806825D01*
X132654761Y-118724788D01*
X132447384Y-118682219D01*
X132235689Y-118680741D01*
X132027738Y-118720410D01*
X131831452Y-118799715D01*
X131654308Y-118915634D01*
X131503054Y-119063753D01*
X131383450Y-119238431D01*
X131300052Y-119433012D01*
X131256037Y-119640087D01*
X131253081Y-119851767D01*
X131291297Y-120059990D01*
X131369230Y-120256825D01*
X131483910Y-120434773D01*
X131630969Y-120587058D01*
X131804807Y-120707879D01*
X131998802Y-120792633D01*
X132205564Y-120838093D01*
X132299509Y-120840061D01*
X136326356Y-124866908D01*
X136303852Y-124919412D01*
X136259837Y-125126487D01*
X136256881Y-125338167D01*
X136295097Y-125546390D01*
X136342652Y-125666500D01*
X123941106Y-125666500D01*
X124133842Y-125393278D01*
X124275665Y-125074740D01*
X124352915Y-124734721D01*
X124358476Y-124336458D01*
X124290750Y-123994415D01*
X124157877Y-123672041D01*
X123964918Y-123381615D01*
X123719224Y-123134199D01*
X123430152Y-122939217D01*
X123108713Y-122804097D01*
X122767151Y-122733984D01*
X122418476Y-122731550D01*
X122075968Y-122796887D01*
X121752674Y-122927506D01*
X121460908Y-123118432D01*
X121211783Y-123362394D01*
X121014788Y-123650097D01*
X120877427Y-123970585D01*
X120804931Y-124311649D01*
X120800063Y-124660299D01*
X120863007Y-125003255D01*
X120991366Y-125327453D01*
X121180251Y-125620544D01*
X121224630Y-125666500D01*
X116149585Y-125666500D01*
X116070554Y-125474753D01*
X115953400Y-125298423D01*
X115804228Y-125148207D01*
X115628721Y-125029825D01*
X115433561Y-124947788D01*
X115226184Y-124905219D01*
X115014489Y-124903741D01*
X114806538Y-124943410D01*
X114610252Y-125022715D01*
X114433108Y-125138634D01*
X114281854Y-125286753D01*
X114162250Y-125461431D01*
X114078852Y-125656012D01*
X114034837Y-125863087D01*
X114031902Y-126073261D01*
X113871489Y-126072141D01*
X113663538Y-126111810D01*
X113467252Y-126191115D01*
X113290108Y-126307034D01*
X113138854Y-126455153D01*
X113019250Y-126629831D01*
X112935852Y-126824412D01*
X112891837Y-127031487D01*
X112888881Y-127243167D01*
X109702600Y-127243167D01*
X109702600Y-124679446D01*
X116980706Y-117401340D01*
X212800668Y-117401340D01*
X212800668Y-120901460D01*
X212812928Y-121025942D01*
X212849238Y-121145640D01*
X212908203Y-121255954D01*
X212987555Y-121352645D01*
X213084246Y-121431997D01*
X213194560Y-121490962D01*
X213314258Y-121527272D01*
X213438740Y-121539532D01*
X216938860Y-121539532D01*
X217063342Y-121527272D01*
X217183040Y-121490962D01*
X217293354Y-121431997D01*
X217390045Y-121352645D01*
X217469397Y-121255954D01*
X217499668Y-121199322D01*
X217499668Y-123901200D01*
X217511928Y-124025682D01*
X217548238Y-124145380D01*
X217607203Y-124255694D01*
X217686555Y-124352385D01*
X217783246Y-124431737D01*
X217893560Y-124490702D01*
X218013258Y-124527012D01*
X218137740Y-124539272D01*
X221637860Y-124539272D01*
X221762342Y-124527012D01*
X221882040Y-124490702D01*
X221992354Y-124431737D01*
X222089045Y-124352385D01*
X222168397Y-124255694D01*
X222227362Y-124145380D01*
X222263672Y-124025682D01*
X222275932Y-123901200D01*
X222275932Y-120401080D01*
X222263672Y-120276598D01*
X222227362Y-120156900D01*
X222168397Y-120046586D01*
X222089045Y-119949895D01*
X221992354Y-119870543D01*
X221882040Y-119811578D01*
X221762342Y-119775268D01*
X221637860Y-119763008D01*
X218137740Y-119763008D01*
X218013258Y-119775268D01*
X217893560Y-119811578D01*
X217783246Y-119870543D01*
X217686555Y-119949895D01*
X217607203Y-120046586D01*
X217576932Y-120103218D01*
X217576932Y-117401340D01*
X217564672Y-117276858D01*
X217528362Y-117157160D01*
X217469397Y-117046846D01*
X217390045Y-116950155D01*
X217293354Y-116870803D01*
X217183040Y-116811838D01*
X217063342Y-116775528D01*
X216938860Y-116763268D01*
X213438740Y-116763268D01*
X213314258Y-116775528D01*
X213194560Y-116811838D01*
X213084246Y-116870803D01*
X212987555Y-116950155D01*
X212908203Y-117046846D01*
X212849238Y-117157160D01*
X212812928Y-117276858D01*
X212800668Y-117401340D01*
X116980706Y-117401340D01*
X117925636Y-116456410D01*
X217810740Y-116456410D01*
X217810740Y-117933927D01*
X217823306Y-117997103D01*
X217847956Y-118056613D01*
X217883743Y-118110171D01*
X217929290Y-118155718D01*
X217982848Y-118191504D01*
X218042358Y-118216154D01*
X218105534Y-118228720D01*
X219583050Y-118228720D01*
X219664800Y-118146970D01*
X219664800Y-116374660D01*
X220110800Y-116374660D01*
X220110800Y-118146970D01*
X220192550Y-118228720D01*
X221670066Y-118228720D01*
X221733242Y-118216154D01*
X221792752Y-118191504D01*
X221846310Y-118155718D01*
X221891857Y-118110171D01*
X221927644Y-118056613D01*
X221952294Y-117997103D01*
X221964860Y-117933927D01*
X221964860Y-116456410D01*
X221883110Y-116374660D01*
X220110800Y-116374660D01*
X219664800Y-116374660D01*
X217892490Y-116374660D01*
X217810740Y-116456410D01*
X117925636Y-116456410D01*
X120005846Y-114376200D01*
X165896845Y-114376200D01*
X166015363Y-114458572D01*
X166266415Y-114568254D01*
X166533989Y-114627084D01*
X166807895Y-114632822D01*
X167077699Y-114585248D01*
X167333123Y-114486175D01*
X167517142Y-114369393D01*
X217810740Y-114369393D01*
X217810740Y-115846910D01*
X217892490Y-115928660D01*
X219664800Y-115928660D01*
X219664800Y-114156350D01*
X220110800Y-114156350D01*
X220110800Y-115928660D01*
X221883110Y-115928660D01*
X221964860Y-115846910D01*
X221964860Y-114369393D01*
X221952294Y-114306217D01*
X221927644Y-114246707D01*
X221891857Y-114193149D01*
X221846310Y-114147602D01*
X221792752Y-114111816D01*
X221733242Y-114087166D01*
X221670066Y-114074600D01*
X220192550Y-114074600D01*
X220110800Y-114156350D01*
X219664800Y-114156350D01*
X219583050Y-114074600D01*
X218105534Y-114074600D01*
X218042358Y-114087166D01*
X217982848Y-114111816D01*
X217929290Y-114147602D01*
X217883743Y-114193149D01*
X217847956Y-114246707D01*
X217823306Y-114306217D01*
X217810740Y-114369393D01*
X167517142Y-114369393D01*
X167564440Y-114339377D01*
X167762839Y-114150445D01*
X167920761Y-113926575D01*
X168032193Y-113676295D01*
X168092890Y-113409138D01*
X168097259Y-113096217D01*
X168053735Y-112876400D01*
X227610600Y-112876400D01*
X227610600Y-152553600D01*
X60298400Y-152553600D01*
X60298400Y-125642473D01*
X98904096Y-125642473D01*
X99042536Y-125823189D01*
X99311596Y-125930216D01*
X99596365Y-125982697D01*
X99885901Y-125978612D01*
X100169077Y-125918121D01*
X100398264Y-125823189D01*
X100536704Y-125642473D01*
X99720400Y-124826170D01*
X98904096Y-125642473D01*
X60298400Y-125642473D01*
X60298400Y-124386765D01*
X98248503Y-124386765D01*
X98252588Y-124676301D01*
X98313079Y-124959477D01*
X98408011Y-125188664D01*
X98588727Y-125327104D01*
X99405030Y-124510800D01*
X100035770Y-124510800D01*
X100852073Y-125327104D01*
X101032789Y-125188664D01*
X101139816Y-124919604D01*
X101192297Y-124634835D01*
X101188212Y-124345299D01*
X101127721Y-124062123D01*
X101032789Y-123832936D01*
X100852073Y-123694496D01*
X100035770Y-124510800D01*
X99405030Y-124510800D01*
X98588727Y-123694496D01*
X98408011Y-123832936D01*
X98300984Y-124101996D01*
X98248503Y-124386765D01*
X60298400Y-124386765D01*
X60298400Y-123379127D01*
X98904096Y-123379127D01*
X99720400Y-124195430D01*
X100536704Y-123379127D01*
X100398264Y-123198411D01*
X100129204Y-123091384D01*
X99844435Y-123038903D01*
X99554899Y-123042988D01*
X99271723Y-123103479D01*
X99042536Y-123198411D01*
X98904096Y-123379127D01*
X60298400Y-123379127D01*
X60298400Y-112876400D01*
X118272754Y-112876400D01*
X107751377Y-123397777D01*
X107751377Y-123397777D01*
G37*
X107751377Y-123397777D02*
X107684336Y-123479393D01*
X107616495Y-123560243D01*
X107613601Y-123565507D01*
X107609784Y-123570154D01*
X107559889Y-123663209D01*
X107509028Y-123755724D01*
X107507210Y-123761455D01*
X107504371Y-123766750D01*
X107473514Y-123867679D01*
X107441577Y-123968357D01*
X107440907Y-123974332D01*
X107439150Y-123980078D01*
X107428484Y-124085079D01*
X107416711Y-124190041D01*
X107416629Y-124201792D01*
X107416607Y-124202011D01*
X107416626Y-124202215D01*
X107416600Y-124206000D01*
X107416600Y-136127893D01*
X107388180Y-136169400D01*
X102886383Y-136169400D01*
X102750262Y-136077585D01*
X102497703Y-135971419D01*
X102229333Y-135916331D01*
X101955374Y-135914418D01*
X101686261Y-135965754D01*
X101432244Y-136068384D01*
X101277875Y-136169400D01*
X91405583Y-136169400D01*
X91269462Y-136077585D01*
X91016903Y-135971419D01*
X90748533Y-135916331D01*
X90474574Y-135914418D01*
X90205461Y-135965754D01*
X89951444Y-136068384D01*
X89797075Y-136169400D01*
X78299183Y-136169400D01*
X78163062Y-136077585D01*
X77910503Y-135971419D01*
X77642133Y-135916331D01*
X77368174Y-135914418D01*
X77099061Y-135965754D01*
X76845044Y-136068384D01*
X76615799Y-136218397D01*
X76420058Y-136410081D01*
X76265277Y-136636134D01*
X76157350Y-136887946D01*
X76100389Y-137155924D01*
X76096564Y-137429864D01*
X76146020Y-137699328D01*
X76246874Y-137954055D01*
X76373538Y-138150600D01*
X63596933Y-138150600D01*
X63379578Y-138149083D01*
X62963675Y-138228420D01*
X62571104Y-138387029D01*
X62216817Y-138618868D01*
X61914308Y-138915107D01*
X61675100Y-139264461D01*
X61508304Y-139653625D01*
X61420274Y-140067774D01*
X61414363Y-140491135D01*
X61490795Y-140907580D01*
X61646659Y-141301249D01*
X61876019Y-141657147D01*
X62170139Y-141961716D01*
X62517815Y-142203357D01*
X62905804Y-142372866D01*
X63319329Y-142463785D01*
X63742638Y-142472652D01*
X63765618Y-142468600D01*
X109396196Y-142468600D01*
X109589638Y-142472652D01*
X109612618Y-142468600D01*
X162863196Y-142468600D01*
X163056638Y-142472652D01*
X163079618Y-142468600D01*
X172562312Y-142468600D01*
X173225356Y-143131643D01*
X173379429Y-143258200D01*
X173532236Y-143386420D01*
X173542188Y-143391891D01*
X173550958Y-143399095D01*
X173726702Y-143493328D01*
X173901479Y-143589413D01*
X173912299Y-143592845D01*
X173922306Y-143598211D01*
X174113019Y-143656517D01*
X174303119Y-143716821D01*
X174314403Y-143718087D01*
X174325257Y-143721405D01*
X174523580Y-143741550D01*
X174721856Y-143763790D01*
X174744056Y-143763945D01*
X174744463Y-143763986D01*
X174744842Y-143763950D01*
X174752000Y-143764000D01*
X177990500Y-143764000D01*
X178188927Y-143744544D01*
X178387651Y-143727158D01*
X178398557Y-143723989D01*
X178409852Y-143722882D01*
X178600742Y-143665249D01*
X178792283Y-143609601D01*
X178802362Y-143604377D01*
X178813231Y-143601095D01*
X178989301Y-143507477D01*
X179166376Y-143415690D01*
X179175251Y-143408605D01*
X179185272Y-143403277D01*
X179339774Y-143277268D01*
X179495680Y-143152810D01*
X179511488Y-143137222D01*
X179511805Y-143136963D01*
X179512048Y-143136669D01*
X179517144Y-143131644D01*
X180180187Y-142468600D01*
X209319796Y-142468600D01*
X209513238Y-142472652D01*
X209930207Y-142399129D01*
X210324954Y-142246017D01*
X210682444Y-142019147D01*
X210989060Y-141727161D01*
X211233122Y-141381180D01*
X211405335Y-140994384D01*
X211499139Y-140581504D01*
X211502262Y-140357827D01*
X211505747Y-140324673D01*
X211503127Y-140295887D01*
X211505892Y-140097899D01*
X211423653Y-139682561D01*
X211262307Y-139291107D01*
X211028000Y-138938447D01*
X210729657Y-138638013D01*
X210378641Y-138401250D01*
X209988323Y-138237175D01*
X209573569Y-138152038D01*
X209150178Y-138149083D01*
X209142226Y-138150600D01*
X179285900Y-138150600D01*
X179087424Y-138170061D01*
X178888749Y-138187443D01*
X178877848Y-138190610D01*
X178866548Y-138191718D01*
X178675617Y-138249363D01*
X178484117Y-138304999D01*
X178474038Y-138310223D01*
X178463169Y-138313505D01*
X178287099Y-138407123D01*
X178110024Y-138498910D01*
X178101149Y-138505995D01*
X178091128Y-138511323D01*
X177936626Y-138637332D01*
X177780720Y-138761790D01*
X177764917Y-138777375D01*
X177764595Y-138777637D01*
X177764349Y-138777935D01*
X177759256Y-138782957D01*
X177096212Y-139446000D01*
X175646287Y-139446000D01*
X174983244Y-138782956D01*
X174829141Y-138656375D01*
X174676364Y-138528180D01*
X174666412Y-138522709D01*
X174657642Y-138515505D01*
X174481898Y-138421272D01*
X174307121Y-138325187D01*
X174296301Y-138321755D01*
X174286294Y-138316389D01*
X174095594Y-138258087D01*
X173905481Y-138197779D01*
X173894195Y-138196513D01*
X173883342Y-138193195D01*
X173684985Y-138173046D01*
X173486744Y-138150810D01*
X173464553Y-138150655D01*
X173464136Y-138150613D01*
X173463747Y-138150650D01*
X173456600Y-138150600D01*
X165049200Y-138150600D01*
X165049200Y-137379064D01*
X175131164Y-137379064D01*
X175180620Y-137648528D01*
X175281474Y-137903255D01*
X175429883Y-138133542D01*
X175620196Y-138330616D01*
X175845163Y-138486972D01*
X176096215Y-138596654D01*
X176363789Y-138655484D01*
X176637695Y-138661222D01*
X176907499Y-138613648D01*
X177162923Y-138514575D01*
X177394240Y-138367777D01*
X177592639Y-138178845D01*
X177750561Y-137954975D01*
X177850059Y-137731500D01*
X200723500Y-137731500D01*
X200828606Y-137721194D01*
X200933757Y-137711995D01*
X200939527Y-137710319D01*
X200945510Y-137709732D01*
X201046559Y-137679223D01*
X201147973Y-137649760D01*
X201153313Y-137646992D01*
X201159063Y-137645256D01*
X201252232Y-137595718D01*
X201346023Y-137547101D01*
X201350722Y-137543349D01*
X201356027Y-137540529D01*
X201437811Y-137473828D01*
X201520360Y-137407929D01*
X201528727Y-137399678D01*
X201528897Y-137399539D01*
X201529027Y-137399381D01*
X201531723Y-137396723D01*
X201979686Y-136948760D01*
X202116999Y-136924548D01*
X202372423Y-136825475D01*
X202545716Y-136715500D01*
X219477854Y-136715500D01*
X223312076Y-140549722D01*
X223339020Y-140696528D01*
X223439874Y-140951255D01*
X223588283Y-141181542D01*
X223778596Y-141378616D01*
X224003563Y-141534972D01*
X224254615Y-141644654D01*
X224522189Y-141703484D01*
X224796095Y-141709222D01*
X225065899Y-141661648D01*
X225321323Y-141562575D01*
X225552640Y-141415777D01*
X225751039Y-141226845D01*
X225908961Y-141002975D01*
X226020393Y-140752695D01*
X226081090Y-140485538D01*
X226085459Y-140172617D01*
X226032246Y-139903869D01*
X225927846Y-139650575D01*
X225776235Y-139422383D01*
X225583190Y-139227985D01*
X225356062Y-139074785D01*
X225103503Y-138968619D01*
X224927798Y-138932552D01*
X220759523Y-134764277D01*
X220677907Y-134697236D01*
X220597057Y-134629395D01*
X220591793Y-134626501D01*
X220587146Y-134622684D01*
X220494091Y-134572789D01*
X220401576Y-134521928D01*
X220395845Y-134520110D01*
X220390550Y-134517271D01*
X220289621Y-134486414D01*
X220188943Y-134454477D01*
X220182968Y-134453807D01*
X220177222Y-134452050D01*
X220072221Y-134441384D01*
X219967259Y-134429611D01*
X219955508Y-134429529D01*
X219955289Y-134429507D01*
X219955085Y-134429526D01*
X219951300Y-134429500D01*
X202869800Y-134429500D01*
X202869800Y-129977803D01*
X207516073Y-129977803D01*
X207611133Y-130168955D01*
X207741658Y-130337888D01*
X207902632Y-130478111D01*
X208087869Y-130584235D01*
X208146998Y-130608715D01*
X208311000Y-130573054D01*
X208311000Y-129813800D01*
X208757000Y-129813800D01*
X208757000Y-130573054D01*
X208921002Y-130608715D01*
X208980131Y-130584235D01*
X209165368Y-130478111D01*
X209326342Y-130337888D01*
X209456867Y-130168955D01*
X209551927Y-129977803D01*
X209518185Y-129813800D01*
X208757000Y-129813800D01*
X208311000Y-129813800D01*
X207549815Y-129813800D01*
X207516073Y-129977803D01*
X202869800Y-129977803D01*
X202869800Y-129203797D01*
X207516073Y-129203797D01*
X207549815Y-129367800D01*
X208311000Y-129367800D01*
X208311000Y-128608546D01*
X208757000Y-128608546D01*
X208757000Y-129367800D01*
X209518185Y-129367800D01*
X209551927Y-129203797D01*
X209456867Y-129012645D01*
X209326342Y-128843712D01*
X209165368Y-128703489D01*
X208980131Y-128597365D01*
X208921002Y-128572885D01*
X208757000Y-128608546D01*
X208311000Y-128608546D01*
X208146998Y-128572885D01*
X208087869Y-128597365D01*
X207902632Y-128703489D01*
X207741658Y-128843712D01*
X207611133Y-129012645D01*
X207516073Y-129203797D01*
X202869800Y-129203797D01*
X202869800Y-127044041D01*
X207137000Y-127044041D01*
X207137000Y-127057559D01*
X207163606Y-127328904D01*
X207242409Y-127589914D01*
X207370409Y-127830647D01*
X207542730Y-128041933D01*
X207752808Y-128215724D01*
X207992641Y-128345402D01*
X208253094Y-128426026D01*
X208524247Y-128454525D01*
X208795772Y-128429814D01*
X209057325Y-128352835D01*
X209298946Y-128226519D01*
X209511430Y-128055677D01*
X209686684Y-127846818D01*
X209818032Y-127607896D01*
X209900472Y-127348012D01*
X209930864Y-127077064D01*
X209931000Y-127057559D01*
X209931000Y-127044041D01*
X209904394Y-126772696D01*
X209825591Y-126511686D01*
X209697591Y-126270953D01*
X209525270Y-126059667D01*
X209315192Y-125885876D01*
X209075359Y-125756198D01*
X208814906Y-125675574D01*
X208543753Y-125647075D01*
X208272228Y-125671786D01*
X208010675Y-125748765D01*
X207769054Y-125875081D01*
X207556570Y-126045923D01*
X207381316Y-126254782D01*
X207249968Y-126493704D01*
X207167528Y-126753588D01*
X207137136Y-127024536D01*
X207137000Y-127044041D01*
X202869800Y-127044041D01*
X202869800Y-124897803D01*
X207516073Y-124897803D01*
X207611133Y-125088955D01*
X207741658Y-125257888D01*
X207902632Y-125398111D01*
X208087869Y-125504235D01*
X208146998Y-125528715D01*
X208311000Y-125493054D01*
X208311000Y-124733800D01*
X208757000Y-124733800D01*
X208757000Y-125493054D01*
X208921002Y-125528715D01*
X208980131Y-125504235D01*
X209165368Y-125398111D01*
X209326342Y-125257888D01*
X209456867Y-125088955D01*
X209551927Y-124897803D01*
X209518185Y-124733800D01*
X208757000Y-124733800D01*
X208311000Y-124733800D01*
X207549815Y-124733800D01*
X207516073Y-124897803D01*
X202869800Y-124897803D01*
X202869800Y-124123797D01*
X207516073Y-124123797D01*
X207549815Y-124287800D01*
X208311000Y-124287800D01*
X208311000Y-123528546D01*
X208757000Y-123528546D01*
X208757000Y-124287800D01*
X209518185Y-124287800D01*
X209551927Y-124123797D01*
X209456867Y-123932645D01*
X209326342Y-123763712D01*
X209165368Y-123623489D01*
X208980131Y-123517365D01*
X208921002Y-123492885D01*
X208757000Y-123528546D01*
X208311000Y-123528546D01*
X208146998Y-123492885D01*
X208087869Y-123517365D01*
X207902632Y-123623489D01*
X207741658Y-123763712D01*
X207611133Y-123932645D01*
X207516073Y-124123797D01*
X202869800Y-124123797D01*
X202869800Y-121964041D01*
X207137000Y-121964041D01*
X207137000Y-121977559D01*
X207163606Y-122248904D01*
X207242409Y-122509914D01*
X207370409Y-122750647D01*
X207542730Y-122961933D01*
X207752808Y-123135724D01*
X207992641Y-123265402D01*
X208253094Y-123346026D01*
X208524247Y-123374525D01*
X208795772Y-123349814D01*
X209057325Y-123272835D01*
X209298946Y-123146519D01*
X209511430Y-122975677D01*
X209686684Y-122766818D01*
X209818032Y-122527896D01*
X209900472Y-122268012D01*
X209930864Y-121997064D01*
X209931000Y-121977559D01*
X209931000Y-121964041D01*
X209904394Y-121692696D01*
X209825591Y-121431686D01*
X209697591Y-121190953D01*
X209525270Y-120979667D01*
X209315192Y-120805876D01*
X209075359Y-120676198D01*
X208814906Y-120595574D01*
X208543753Y-120567075D01*
X208272228Y-120591786D01*
X208010675Y-120668765D01*
X207769054Y-120795081D01*
X207556570Y-120965923D01*
X207381316Y-121174782D01*
X207249968Y-121413704D01*
X207167528Y-121673588D01*
X207137136Y-121944536D01*
X207137000Y-121964041D01*
X202869800Y-121964041D01*
X202869800Y-119726125D01*
X202947361Y-119616175D01*
X203058793Y-119365895D01*
X203119490Y-119098738D01*
X203123859Y-118785817D01*
X203070646Y-118517069D01*
X202966246Y-118263775D01*
X202814635Y-118035583D01*
X202621590Y-117841185D01*
X202394462Y-117687985D01*
X202141903Y-117581819D01*
X201873533Y-117526731D01*
X201599574Y-117524818D01*
X201330461Y-117576154D01*
X201076444Y-117678784D01*
X200847199Y-117828797D01*
X200651458Y-118020481D01*
X200496677Y-118246534D01*
X200388750Y-118498346D01*
X200331789Y-118766324D01*
X200327964Y-119040264D01*
X200377420Y-119309728D01*
X200478274Y-119564455D01*
X200583800Y-119728200D01*
X200583800Y-134787541D01*
X200509377Y-134896234D01*
X200401450Y-135148046D01*
X200362024Y-135333530D01*
X200250054Y-135445500D01*
X177203100Y-135445500D01*
X177097994Y-135455806D01*
X176992843Y-135465005D01*
X176987073Y-135466681D01*
X176981090Y-135467268D01*
X176880041Y-135497777D01*
X176778627Y-135527240D01*
X176773287Y-135530008D01*
X176767537Y-135531744D01*
X176674368Y-135581282D01*
X176580577Y-135629899D01*
X176575878Y-135633651D01*
X176570573Y-135636471D01*
X176488789Y-135703172D01*
X176406240Y-135769071D01*
X176397873Y-135777322D01*
X176397703Y-135777461D01*
X176397573Y-135777619D01*
X176394877Y-135780277D01*
X176290029Y-135885125D01*
X176133661Y-135914954D01*
X175879644Y-136017584D01*
X175650399Y-136167597D01*
X175454658Y-136359281D01*
X175299877Y-136585334D01*
X175191950Y-136837146D01*
X175134989Y-137105124D01*
X175131164Y-137379064D01*
X165049200Y-137379064D01*
X165049200Y-134583767D01*
X167892581Y-134583767D01*
X167930797Y-134791990D01*
X168008730Y-134988825D01*
X168123410Y-135166773D01*
X168270469Y-135319058D01*
X168444307Y-135439879D01*
X168638302Y-135524633D01*
X168845064Y-135570093D01*
X169056719Y-135574526D01*
X169265204Y-135537765D01*
X169462577Y-135461208D01*
X169641322Y-135347773D01*
X169672062Y-135318500D01*
X180975000Y-135318500D01*
X181050858Y-135311062D01*
X181126852Y-135304413D01*
X181131023Y-135303201D01*
X181135340Y-135302778D01*
X181208334Y-135280740D01*
X181281564Y-135259465D01*
X181285416Y-135257468D01*
X181289574Y-135256213D01*
X181356884Y-135220423D01*
X181424600Y-135185323D01*
X181427996Y-135182612D01*
X181431825Y-135180576D01*
X181490892Y-135132403D01*
X181550510Y-135084810D01*
X181556551Y-135078853D01*
X181556676Y-135078751D01*
X181556772Y-135078635D01*
X181558717Y-135076717D01*
X181759984Y-134875450D01*
X181965204Y-134839265D01*
X182162577Y-134762708D01*
X182341322Y-134649273D01*
X182494630Y-134503280D01*
X182616661Y-134330290D01*
X182702768Y-134136892D01*
X182749670Y-133930452D01*
X182750303Y-133885131D01*
X183039379Y-133596054D01*
X183082006Y-133631037D01*
X183192320Y-133690002D01*
X183312018Y-133726312D01*
X183436500Y-133738572D01*
X184736500Y-133738572D01*
X184860982Y-133726312D01*
X184980680Y-133690002D01*
X185090994Y-133631037D01*
X185187685Y-133551685D01*
X185267037Y-133454994D01*
X185326002Y-133344680D01*
X185362312Y-133224982D01*
X185374572Y-133100500D01*
X185374572Y-131600500D01*
X185362312Y-131476018D01*
X185326002Y-131356320D01*
X185267037Y-131246006D01*
X185187685Y-131149315D01*
X185090994Y-131069963D01*
X184980680Y-131010998D01*
X184860982Y-130974688D01*
X184736500Y-130962428D01*
X183436500Y-130962428D01*
X183312018Y-130974688D01*
X183192320Y-131010998D01*
X183082006Y-131069963D01*
X182985315Y-131149315D01*
X182905963Y-131246006D01*
X182846998Y-131356320D01*
X182810688Y-131476018D01*
X182799553Y-131589081D01*
X182735595Y-131623088D01*
X182667901Y-131658177D01*
X182664507Y-131660887D01*
X182660675Y-131662924D01*
X182601586Y-131711115D01*
X182541990Y-131758690D01*
X182535953Y-131764643D01*
X182535824Y-131764749D01*
X182535725Y-131764869D01*
X182533784Y-131766783D01*
X182486784Y-131813783D01*
X182423283Y-131877283D01*
X182423278Y-131877289D01*
X181586248Y-132714318D01*
X181575189Y-132714241D01*
X181367238Y-132753910D01*
X181170952Y-132833215D01*
X180993808Y-132949134D01*
X180842554Y-133097253D01*
X180722950Y-133271931D01*
X180639552Y-133466512D01*
X180596831Y-133667500D01*
X175909750Y-133667500D01*
X175918600Y-133623007D01*
X175918600Y-133028219D01*
X176375951Y-133028219D01*
X176453251Y-133158548D01*
X176637051Y-133215604D01*
X176828451Y-133235705D01*
X177020095Y-133218081D01*
X177204617Y-133163407D01*
X177216349Y-133158548D01*
X177293649Y-133028219D01*
X176834800Y-132569370D01*
X176375951Y-133028219D01*
X175918600Y-133028219D01*
X175918600Y-132795550D01*
X175836852Y-132713802D01*
X175918600Y-132713802D01*
X175918600Y-132600891D01*
X175925393Y-132623817D01*
X175930252Y-132635549D01*
X176060581Y-132712849D01*
X176519430Y-132254000D01*
X177150170Y-132254000D01*
X177609019Y-132712849D01*
X177739348Y-132635549D01*
X177796404Y-132451749D01*
X177816505Y-132260349D01*
X177798881Y-132068705D01*
X177744207Y-131884183D01*
X177739348Y-131872451D01*
X177609019Y-131795151D01*
X177150170Y-132254000D01*
X176519430Y-132254000D01*
X176060581Y-131795151D01*
X175930252Y-131872451D01*
X175918600Y-131909987D01*
X175918600Y-131479781D01*
X176375951Y-131479781D01*
X176834800Y-131938630D01*
X177293649Y-131479781D01*
X177216349Y-131349452D01*
X177032549Y-131292396D01*
X176841149Y-131272295D01*
X176649505Y-131289919D01*
X176464983Y-131344593D01*
X176453251Y-131349452D01*
X176375951Y-131479781D01*
X175918600Y-131479781D01*
X175918600Y-131358593D01*
X175906034Y-131295417D01*
X175881384Y-131235907D01*
X175845597Y-131182349D01*
X175800050Y-131136802D01*
X175746492Y-131101016D01*
X175686982Y-131076366D01*
X175623806Y-131063800D01*
X174396350Y-131063800D01*
X174314600Y-131145550D01*
X174314600Y-132267800D01*
X174334600Y-132267800D01*
X174334600Y-132713800D01*
X174314600Y-132713800D01*
X174314600Y-132733800D01*
X173868600Y-132733800D01*
X173868600Y-132713800D01*
X172346350Y-132713800D01*
X172264600Y-132795550D01*
X172264600Y-133623007D01*
X172273450Y-133667500D01*
X169675149Y-133667500D01*
X169664928Y-133657207D01*
X169489421Y-133538825D01*
X169294261Y-133456788D01*
X169086884Y-133414219D01*
X168875189Y-133412741D01*
X168667238Y-133452410D01*
X168470952Y-133531715D01*
X168293808Y-133647634D01*
X168142554Y-133795753D01*
X168022950Y-133970431D01*
X167939552Y-134165012D01*
X167895537Y-134372087D01*
X167892581Y-134583767D01*
X165049200Y-134583767D01*
X165049200Y-133328179D01*
X165216401Y-133239277D01*
X165393476Y-133147490D01*
X165402351Y-133140405D01*
X165412372Y-133135077D01*
X165566874Y-133009068D01*
X165722780Y-132884610D01*
X165738588Y-132869022D01*
X165738905Y-132868763D01*
X165739148Y-132868469D01*
X165744244Y-132863444D01*
X167249094Y-131358593D01*
X172264600Y-131358593D01*
X172264600Y-132186050D01*
X172346350Y-132267800D01*
X173868600Y-132267800D01*
X173868600Y-131145550D01*
X173786850Y-131063800D01*
X172559394Y-131063800D01*
X172496218Y-131076366D01*
X172436708Y-131101016D01*
X172383150Y-131136802D01*
X172337603Y-131182349D01*
X172301816Y-131235907D01*
X172277166Y-131295417D01*
X172264600Y-131358593D01*
X167249094Y-131358593D01*
X168652437Y-129955250D01*
X183109500Y-129955250D01*
X183109500Y-130432707D01*
X183122066Y-130495883D01*
X183146716Y-130555393D01*
X183182503Y-130608951D01*
X183228050Y-130654498D01*
X183281608Y-130690284D01*
X183341118Y-130714934D01*
X183404294Y-130727500D01*
X183781750Y-130727500D01*
X183863500Y-130645750D01*
X183863500Y-129873500D01*
X184309500Y-129873500D01*
X184309500Y-130645750D01*
X184391250Y-130727500D01*
X184768706Y-130727500D01*
X184831882Y-130714934D01*
X184891392Y-130690284D01*
X184944950Y-130654498D01*
X184990497Y-130608951D01*
X185026284Y-130555393D01*
X185050934Y-130495883D01*
X185063500Y-130432707D01*
X185063500Y-129955250D01*
X184981750Y-129873500D01*
X184309500Y-129873500D01*
X183863500Y-129873500D01*
X183191250Y-129873500D01*
X183109500Y-129955250D01*
X168652437Y-129955250D01*
X169757887Y-128849800D01*
X171679891Y-128849800D01*
X171811713Y-128957983D01*
X172054405Y-129087704D01*
X172317740Y-129167586D01*
X172591600Y-129194559D01*
X175591600Y-129194559D01*
X175628867Y-129190888D01*
X175647605Y-129200904D01*
X175910940Y-129280786D01*
X176184800Y-129307759D01*
X176203150Y-129307759D01*
X176408057Y-129370405D01*
X176827264Y-129412986D01*
X177246757Y-129373333D01*
X177466722Y-129307759D01*
X177484800Y-129307759D01*
X177758660Y-129280786D01*
X178021995Y-129200904D01*
X178264687Y-129071183D01*
X178477408Y-128896608D01*
X178500645Y-128868293D01*
X183109500Y-128868293D01*
X183109500Y-129345750D01*
X183191250Y-129427500D01*
X183863500Y-129427500D01*
X183863500Y-128655250D01*
X184309500Y-128655250D01*
X184309500Y-129427500D01*
X184981750Y-129427500D01*
X185063500Y-129345750D01*
X185063500Y-128868293D01*
X185050934Y-128805117D01*
X185026284Y-128745607D01*
X184990497Y-128692049D01*
X184944950Y-128646502D01*
X184891392Y-128610716D01*
X184831882Y-128586066D01*
X184768706Y-128573500D01*
X184391250Y-128573500D01*
X184309500Y-128655250D01*
X183863500Y-128655250D01*
X183781750Y-128573500D01*
X183404294Y-128573500D01*
X183341118Y-128586066D01*
X183281608Y-128610716D01*
X183228050Y-128646502D01*
X183182503Y-128692049D01*
X183146716Y-128745607D01*
X183122066Y-128805117D01*
X183109500Y-128868293D01*
X178500645Y-128868293D01*
X178651983Y-128683887D01*
X178781704Y-128441195D01*
X178861586Y-128177860D01*
X178888559Y-127904000D01*
X178888559Y-127885741D01*
X178948175Y-127695507D01*
X178993682Y-127276609D01*
X178956958Y-126856849D01*
X178888559Y-126621419D01*
X178888559Y-126604000D01*
X178861586Y-126330140D01*
X178781704Y-126066805D01*
X178651983Y-125824113D01*
X178477408Y-125611392D01*
X178264687Y-125436817D01*
X178151501Y-125376318D01*
X178285950Y-125363076D01*
X178549285Y-125283194D01*
X178791977Y-125153473D01*
X179004698Y-124978898D01*
X179179273Y-124766177D01*
X179308994Y-124523485D01*
X179313542Y-124508493D01*
X179427291Y-124626283D01*
X179772308Y-124866076D01*
X180157331Y-125034289D01*
X180567693Y-125124513D01*
X180987765Y-125133312D01*
X181401546Y-125060351D01*
X181793275Y-124908410D01*
X182148031Y-124683274D01*
X182452302Y-124393521D01*
X182694498Y-124050186D01*
X182865394Y-123666347D01*
X182958481Y-123256625D01*
X182965182Y-122776718D01*
X182962422Y-122762780D01*
X182976341Y-122784378D01*
X183234302Y-123051503D01*
X183539234Y-123263437D01*
X183879523Y-123412106D01*
X184242209Y-123491847D01*
X184613476Y-123499624D01*
X184979182Y-123435140D01*
X185325399Y-123300852D01*
X185638939Y-123101873D01*
X185907859Y-122845784D01*
X186065741Y-122621972D01*
X186105140Y-122662770D01*
X186328266Y-122817847D01*
X186577264Y-122926631D01*
X186842649Y-122984980D01*
X187114314Y-122990671D01*
X187381910Y-122943486D01*
X187635245Y-122845224D01*
X187864669Y-122699627D01*
X188061445Y-122512241D01*
X188218075Y-122290202D01*
X188328595Y-122041970D01*
X188388796Y-121776998D01*
X188393129Y-121466638D01*
X188340351Y-121200089D01*
X188236805Y-120948867D01*
X188086435Y-120722542D01*
X187894969Y-120529734D01*
X187669699Y-120377788D01*
X187419207Y-120272491D01*
X187153032Y-120217853D01*
X186881315Y-120215956D01*
X186614403Y-120266872D01*
X186362465Y-120368662D01*
X186135096Y-120517448D01*
X186065427Y-120585673D01*
X185942012Y-120399918D01*
X185680347Y-120136420D01*
X185372485Y-119928765D01*
X185030153Y-119784861D01*
X184666390Y-119710191D01*
X184295050Y-119707599D01*
X183930280Y-119777183D01*
X183585972Y-119916292D01*
X183275241Y-120119629D01*
X183009923Y-120379447D01*
X182800123Y-120685852D01*
X182653834Y-121027171D01*
X182576626Y-121390404D01*
X182571638Y-121747585D01*
X182490945Y-121626131D01*
X182194883Y-121327995D01*
X181846551Y-121093042D01*
X181459217Y-120930222D01*
X181047635Y-120845737D01*
X180627481Y-120842803D01*
X180214759Y-120921534D01*
X179825190Y-121078930D01*
X179473612Y-121308997D01*
X179313692Y-121465602D01*
X179308994Y-121450115D01*
X179179273Y-121207423D01*
X179004698Y-120994702D01*
X178791977Y-120820127D01*
X178549285Y-120690406D01*
X178285950Y-120610524D01*
X178012090Y-120583551D01*
X176013110Y-120583551D01*
X175739250Y-120610524D01*
X175475915Y-120690406D01*
X175233223Y-120820127D01*
X175020502Y-120994702D01*
X174845927Y-121207423D01*
X174716206Y-121450115D01*
X174636324Y-121713450D01*
X174609351Y-121987310D01*
X174609351Y-123986290D01*
X174629123Y-124187041D01*
X172591600Y-124187041D01*
X172317740Y-124214014D01*
X172054405Y-124293896D01*
X171811713Y-124423617D01*
X171679891Y-124531800D01*
X168863600Y-124531800D01*
X168665169Y-124551256D01*
X168466450Y-124568642D01*
X168455544Y-124571810D01*
X168444248Y-124572918D01*
X168253333Y-124630559D01*
X168061818Y-124686199D01*
X168051740Y-124691423D01*
X168040869Y-124694705D01*
X167864780Y-124788333D01*
X167687724Y-124880110D01*
X167678849Y-124887195D01*
X167668828Y-124892523D01*
X167514326Y-125018532D01*
X167358420Y-125142990D01*
X167342617Y-125158575D01*
X167342295Y-125158837D01*
X167342049Y-125159135D01*
X167336957Y-125164156D01*
X166752756Y-125748356D01*
X166752751Y-125748362D01*
X164403672Y-128097440D01*
X164403672Y-126336800D01*
X164391412Y-126212318D01*
X164355102Y-126092620D01*
X164296137Y-125982306D01*
X164216785Y-125885615D01*
X164120094Y-125806263D01*
X164009780Y-125747298D01*
X163890082Y-125710988D01*
X163765600Y-125698728D01*
X162065600Y-125698728D01*
X161941118Y-125710988D01*
X161821420Y-125747298D01*
X161711106Y-125806263D01*
X161707217Y-125809454D01*
X161656294Y-125767663D01*
X161545980Y-125708698D01*
X161426282Y-125672388D01*
X161301800Y-125660128D01*
X159981161Y-125660128D01*
X157923984Y-123602950D01*
X159274800Y-123602950D01*
X159274800Y-124330407D01*
X159287366Y-124393583D01*
X159312016Y-124453093D01*
X159347803Y-124506651D01*
X159393350Y-124552198D01*
X159446908Y-124587984D01*
X159506418Y-124612634D01*
X159569594Y-124625200D01*
X160147050Y-124625200D01*
X160228800Y-124543450D01*
X160228800Y-123521200D01*
X160674800Y-123521200D01*
X160674800Y-124543450D01*
X160756550Y-124625200D01*
X161334006Y-124625200D01*
X161397182Y-124612634D01*
X161456692Y-124587984D01*
X161510250Y-124552198D01*
X161555797Y-124506651D01*
X161591584Y-124453093D01*
X161616234Y-124393583D01*
X161628800Y-124330407D01*
X161628800Y-123602950D01*
X161547050Y-123521200D01*
X160674800Y-123521200D01*
X160228800Y-123521200D01*
X159356550Y-123521200D01*
X159274800Y-123602950D01*
X157923984Y-123602950D01*
X156587027Y-122265993D01*
X159274800Y-122265993D01*
X159274800Y-122993450D01*
X159356550Y-123075200D01*
X160228800Y-123075200D01*
X160228800Y-122052950D01*
X160674800Y-122052950D01*
X160674800Y-123075200D01*
X161547050Y-123075200D01*
X161628800Y-122993450D01*
X161628800Y-122265993D01*
X161616234Y-122202817D01*
X161591584Y-122143307D01*
X161555797Y-122089749D01*
X161510250Y-122044202D01*
X161456692Y-122008416D01*
X161397182Y-121983766D01*
X161334006Y-121971200D01*
X160756550Y-121971200D01*
X160674800Y-122052950D01*
X160228800Y-122052950D01*
X160147050Y-121971200D01*
X159569594Y-121971200D01*
X159506418Y-121983766D01*
X159446908Y-122008416D01*
X159393350Y-122044202D01*
X159347803Y-122089749D01*
X159312016Y-122143307D01*
X159287366Y-122202817D01*
X159274800Y-122265993D01*
X156587027Y-122265993D01*
X155250917Y-120929883D01*
X155191974Y-120881467D01*
X155133580Y-120832469D01*
X155129775Y-120830377D01*
X155126422Y-120827623D01*
X155059223Y-120791591D01*
X154992399Y-120754854D01*
X154988263Y-120753542D01*
X154984436Y-120751490D01*
X154911505Y-120729193D01*
X154838831Y-120706139D01*
X154834517Y-120705655D01*
X154830366Y-120704386D01*
X154754484Y-120696678D01*
X154678726Y-120688180D01*
X154670250Y-120688121D01*
X154670081Y-120688104D01*
X154669923Y-120688119D01*
X154667200Y-120688100D01*
X145786449Y-120688100D01*
X145776228Y-120677807D01*
X145600721Y-120559425D01*
X145405561Y-120477388D01*
X145198184Y-120434819D01*
X144986489Y-120433341D01*
X144778538Y-120473010D01*
X144582252Y-120552315D01*
X144405108Y-120668234D01*
X144253854Y-120816353D01*
X144203807Y-120889445D01*
X144188354Y-120851953D01*
X144071200Y-120675623D01*
X143922028Y-120525407D01*
X143746521Y-120407025D01*
X143551361Y-120324988D01*
X143343984Y-120282419D01*
X143132289Y-120280941D01*
X142924338Y-120320610D01*
X142728052Y-120399915D01*
X142550908Y-120515834D01*
X142399654Y-120663953D01*
X142280050Y-120838631D01*
X142196652Y-121033212D01*
X142152637Y-121240287D01*
X142149681Y-121451967D01*
X142187897Y-121660190D01*
X142265830Y-121857025D01*
X142380510Y-122034973D01*
X142527569Y-122187258D01*
X142701407Y-122308079D01*
X142895402Y-122392833D01*
X143102164Y-122438293D01*
X143141074Y-122439108D01*
X143904184Y-123202217D01*
X143963101Y-123250612D01*
X144021520Y-123299631D01*
X144025325Y-123301723D01*
X144028678Y-123304477D01*
X144095893Y-123340518D01*
X144162701Y-123377246D01*
X144166835Y-123378557D01*
X144170665Y-123380611D01*
X144243614Y-123402913D01*
X144316269Y-123425961D01*
X144320584Y-123426445D01*
X144324735Y-123427714D01*
X144400611Y-123435422D01*
X144476374Y-123443920D01*
X144484850Y-123443979D01*
X144485019Y-123443996D01*
X144485177Y-123443981D01*
X144487900Y-123444000D01*
X153709066Y-123444000D01*
X157734000Y-127468934D01*
X157734000Y-128714500D01*
X157749722Y-128874840D01*
X157796287Y-129029074D01*
X157871924Y-129171325D01*
X157973749Y-129296176D01*
X158097886Y-129398871D01*
X158239606Y-129475498D01*
X158298203Y-129493637D01*
X159194500Y-130389934D01*
X159194500Y-135187420D01*
X159189054Y-135192753D01*
X159069450Y-135367431D01*
X158986052Y-135562012D01*
X158942037Y-135769087D01*
X158939081Y-135980767D01*
X158977297Y-136188990D01*
X159055230Y-136385825D01*
X159169910Y-136563773D01*
X159316969Y-136716058D01*
X159490807Y-136836879D01*
X159684802Y-136921633D01*
X159891564Y-136967093D01*
X160103219Y-136971526D01*
X160311704Y-136934765D01*
X160509077Y-136858208D01*
X160687822Y-136744773D01*
X160731200Y-136703465D01*
X160731200Y-138150600D01*
X143845947Y-138150600D01*
X143891423Y-138007241D01*
X143916289Y-137785557D01*
X143916400Y-137769598D01*
X143916400Y-135661400D01*
X143906094Y-135556294D01*
X143896895Y-135451143D01*
X143895219Y-135445373D01*
X143894632Y-135439390D01*
X143864123Y-135338341D01*
X143834660Y-135236927D01*
X143831892Y-135231587D01*
X143830156Y-135225837D01*
X143780618Y-135132668D01*
X143732001Y-135038877D01*
X143728249Y-135034178D01*
X143725429Y-135028873D01*
X143658728Y-134947089D01*
X143592829Y-134864540D01*
X143584578Y-134856173D01*
X143584439Y-134856003D01*
X143584281Y-134855873D01*
X143581623Y-134853177D01*
X141143223Y-132414777D01*
X141061607Y-132347736D01*
X140980757Y-132279895D01*
X140975493Y-132277001D01*
X140970846Y-132273184D01*
X140877791Y-132223289D01*
X140785276Y-132172428D01*
X140779545Y-132170610D01*
X140774250Y-132167771D01*
X140673321Y-132136914D01*
X140572643Y-132104977D01*
X140566668Y-132104307D01*
X140560922Y-132102550D01*
X140455921Y-132091884D01*
X140350959Y-132080111D01*
X140339208Y-132080029D01*
X140338989Y-132080007D01*
X140338785Y-132080026D01*
X140335000Y-132080000D01*
X139954000Y-132080000D01*
X139848894Y-132090306D01*
X139743743Y-132099505D01*
X139737973Y-132101181D01*
X139731990Y-132101768D01*
X139630941Y-132132277D01*
X139529527Y-132161740D01*
X139524187Y-132164508D01*
X139518437Y-132166244D01*
X139425248Y-132215793D01*
X139331478Y-132264399D01*
X139326780Y-132268149D01*
X139321473Y-132270971D01*
X139239667Y-132337690D01*
X139157140Y-132403571D01*
X139148773Y-132411822D01*
X139148603Y-132411961D01*
X139148473Y-132412119D01*
X139145777Y-132414777D01*
X138718554Y-132842000D01*
X127508000Y-132842000D01*
X127285990Y-132863768D01*
X127072437Y-132928244D01*
X126875473Y-133032971D01*
X126702603Y-133173961D01*
X126560410Y-133345843D01*
X126454310Y-133542070D01*
X126388345Y-133755168D01*
X126365028Y-133977020D01*
X126385246Y-134199177D01*
X126448229Y-134413175D01*
X126551578Y-134610865D01*
X126691358Y-134784715D01*
X126862243Y-134928105D01*
X127057724Y-135035572D01*
X127270357Y-135103023D01*
X127492041Y-135127889D01*
X127508000Y-135128000D01*
X139192000Y-135128000D01*
X139297106Y-135117694D01*
X139402257Y-135108495D01*
X139408027Y-135106819D01*
X139414010Y-135106232D01*
X139515059Y-135075723D01*
X139616473Y-135046260D01*
X139621813Y-135043492D01*
X139627563Y-135041756D01*
X139720732Y-134992218D01*
X139814523Y-134943601D01*
X139819222Y-134939849D01*
X139824527Y-134937029D01*
X139906311Y-134870328D01*
X139988860Y-134804429D01*
X139997227Y-134796178D01*
X139997397Y-134796039D01*
X139997527Y-134795881D01*
X140000223Y-134793223D01*
X140144500Y-134648946D01*
X141630400Y-136134846D01*
X141630400Y-137769598D01*
X141652168Y-137991608D01*
X141700171Y-138150600D01*
X109443933Y-138150600D01*
X109247900Y-138149232D01*
X109423840Y-138037577D01*
X109622239Y-137848645D01*
X109780161Y-137624775D01*
X109891593Y-137374495D01*
X109952290Y-137107338D01*
X109956659Y-136794417D01*
X109903446Y-136525669D01*
X109799046Y-136272375D01*
X109702600Y-136127213D01*
X109702600Y-132831167D01*
X121347081Y-132831167D01*
X121385297Y-133039390D01*
X121463230Y-133236225D01*
X121577910Y-133414173D01*
X121724969Y-133566458D01*
X121898807Y-133687279D01*
X122092802Y-133772033D01*
X122299564Y-133817493D01*
X122511219Y-133821926D01*
X122719704Y-133785165D01*
X122917077Y-133708608D01*
X123095822Y-133595173D01*
X123249130Y-133449180D01*
X123371161Y-133276190D01*
X123457268Y-133082792D01*
X123504170Y-132876352D01*
X123504803Y-132831031D01*
X124598733Y-131737100D01*
X149885400Y-131737100D01*
X149961258Y-131729662D01*
X150037252Y-131723013D01*
X150041423Y-131721801D01*
X150045740Y-131721378D01*
X150118734Y-131699340D01*
X150191964Y-131678065D01*
X150195816Y-131676068D01*
X150199974Y-131674813D01*
X150267284Y-131639023D01*
X150335000Y-131603923D01*
X150338396Y-131601212D01*
X150342225Y-131599176D01*
X150401292Y-131551003D01*
X150460910Y-131503410D01*
X150466951Y-131497453D01*
X150467076Y-131497351D01*
X150467172Y-131497235D01*
X150469117Y-131495317D01*
X150860884Y-131103550D01*
X151066104Y-131067365D01*
X151263477Y-130990808D01*
X151442222Y-130877373D01*
X151595530Y-130731380D01*
X151717561Y-130558390D01*
X151803668Y-130364992D01*
X151850570Y-130158552D01*
X151853946Y-129916750D01*
X151812826Y-129709081D01*
X151732154Y-129513353D01*
X151615000Y-129337023D01*
X151465828Y-129186807D01*
X151290321Y-129068425D01*
X151095161Y-128986388D01*
X150887784Y-128943819D01*
X150676089Y-128942341D01*
X150468138Y-128982010D01*
X150271852Y-129061315D01*
X150094708Y-129177234D01*
X149943454Y-129325353D01*
X149823850Y-129500031D01*
X149740452Y-129694612D01*
X149696437Y-129901687D01*
X149695992Y-129933574D01*
X149543466Y-130086100D01*
X145859000Y-130086100D01*
X145859000Y-129900950D01*
X145777250Y-129819200D01*
X145130000Y-129819200D01*
X145130000Y-129839200D01*
X144684000Y-129839200D01*
X144684000Y-129819200D01*
X144036750Y-129819200D01*
X143955000Y-129900950D01*
X143955000Y-130086100D01*
X124256800Y-130086100D01*
X124180938Y-130093539D01*
X124104948Y-130100187D01*
X124100777Y-130101399D01*
X124096460Y-130101822D01*
X124023466Y-130123860D01*
X123950236Y-130145135D01*
X123946384Y-130147132D01*
X123942226Y-130148387D01*
X123874916Y-130184177D01*
X123807200Y-130219277D01*
X123803804Y-130221988D01*
X123799975Y-130224024D01*
X123740908Y-130272197D01*
X123681290Y-130319790D01*
X123675253Y-130325743D01*
X123675124Y-130325849D01*
X123675025Y-130325969D01*
X123673084Y-130327883D01*
X122340748Y-131660218D01*
X122329689Y-131660141D01*
X122121738Y-131699810D01*
X121925452Y-131779115D01*
X121748308Y-131895034D01*
X121597054Y-132043153D01*
X121477450Y-132217831D01*
X121394052Y-132412412D01*
X121350037Y-132619487D01*
X121347081Y-132831167D01*
X109702600Y-132831167D01*
X109702600Y-127243167D01*
X112888881Y-127243167D01*
X112927097Y-127451390D01*
X113005030Y-127648225D01*
X113119710Y-127826173D01*
X113266769Y-127978458D01*
X113440607Y-128099279D01*
X113634602Y-128184033D01*
X113841364Y-128229493D01*
X114053019Y-128233926D01*
X114261504Y-128197165D01*
X114458877Y-128120608D01*
X114637622Y-128007173D01*
X114668362Y-127977900D01*
X136056066Y-127977900D01*
X136231540Y-128153374D01*
X136231481Y-128157567D01*
X136269697Y-128365790D01*
X136347630Y-128562625D01*
X136462310Y-128740573D01*
X136609369Y-128892858D01*
X136783207Y-129013679D01*
X136977202Y-129098433D01*
X137183964Y-129143893D01*
X137395619Y-129148326D01*
X137604104Y-129111565D01*
X137801477Y-129035008D01*
X137980222Y-128921573D01*
X138093192Y-128813993D01*
X143955000Y-128813993D01*
X143955000Y-129291450D01*
X144036750Y-129373200D01*
X144684000Y-129373200D01*
X144684000Y-128600950D01*
X145130000Y-128600950D01*
X145130000Y-129373200D01*
X145777250Y-129373200D01*
X145859000Y-129291450D01*
X145859000Y-128813993D01*
X145846434Y-128750817D01*
X145821784Y-128691307D01*
X145785997Y-128637749D01*
X145740450Y-128592202D01*
X145686892Y-128556416D01*
X145627382Y-128531766D01*
X145564206Y-128519200D01*
X145211750Y-128519200D01*
X145130000Y-128600950D01*
X144684000Y-128600950D01*
X144602250Y-128519200D01*
X144249794Y-128519200D01*
X144186618Y-128531766D01*
X144127108Y-128556416D01*
X144073550Y-128592202D01*
X144028003Y-128637749D01*
X143992216Y-128691307D01*
X143967566Y-128750817D01*
X143955000Y-128813993D01*
X138093192Y-128813993D01*
X138133530Y-128775580D01*
X138255561Y-128602590D01*
X138341668Y-128409192D01*
X138388570Y-128202752D01*
X138391946Y-127960950D01*
X138350826Y-127753281D01*
X138270154Y-127557553D01*
X138153000Y-127381223D01*
X138003828Y-127231007D01*
X137964401Y-127204413D01*
X137980222Y-127194373D01*
X138096455Y-127083686D01*
X138576985Y-127564216D01*
X138631429Y-127608937D01*
X138685295Y-127654136D01*
X138688803Y-127656064D01*
X138691903Y-127658611D01*
X138754004Y-127691909D01*
X138815616Y-127725781D01*
X138819432Y-127726991D01*
X138822967Y-127728887D01*
X138890351Y-127749488D01*
X138957371Y-127770748D01*
X138961349Y-127771194D01*
X138965185Y-127772367D01*
X139035222Y-127779481D01*
X139105161Y-127787326D01*
X139112997Y-127787381D01*
X139113140Y-127787395D01*
X139113273Y-127787382D01*
X139115800Y-127787400D01*
X143643928Y-127787400D01*
X143643928Y-127846200D01*
X143656188Y-127970682D01*
X143692498Y-128090380D01*
X143751463Y-128200694D01*
X143830815Y-128297385D01*
X143927506Y-128376737D01*
X144037820Y-128435702D01*
X144157518Y-128472012D01*
X144282000Y-128484272D01*
X145532000Y-128484272D01*
X145656482Y-128472012D01*
X145776180Y-128435702D01*
X145886494Y-128376737D01*
X145983185Y-128297385D01*
X146062537Y-128200694D01*
X146121502Y-128090380D01*
X146157812Y-127970682D01*
X146168890Y-127858200D01*
X146220269Y-127858200D01*
X146384407Y-127972279D01*
X146578402Y-128057033D01*
X146785164Y-128102493D01*
X146996819Y-128106926D01*
X147205304Y-128070165D01*
X147402677Y-127993608D01*
X147464008Y-127954686D01*
X151899620Y-127954686D01*
X151899620Y-128468474D01*
X151921243Y-128689004D01*
X151985289Y-128901134D01*
X152089318Y-129096784D01*
X152223756Y-129261621D01*
X152098183Y-129411274D01*
X151991432Y-129605452D01*
X151924431Y-129816667D01*
X151899731Y-130036874D01*
X151899620Y-130052726D01*
X151899620Y-130566514D01*
X151921243Y-130787044D01*
X151985289Y-130999174D01*
X152089318Y-131194824D01*
X152229368Y-131366542D01*
X152400104Y-131507787D01*
X152595023Y-131613179D01*
X152806700Y-131678704D01*
X153027074Y-131701866D01*
X153247749Y-131681783D01*
X153460321Y-131619220D01*
X153656692Y-131516559D01*
X153829384Y-131377712D01*
X153971817Y-131207966D01*
X154078568Y-131013788D01*
X154145569Y-130802573D01*
X154170269Y-130582366D01*
X154170380Y-130566514D01*
X154170380Y-130052726D01*
X154148757Y-129832196D01*
X154084711Y-129620066D01*
X153980682Y-129424416D01*
X153846244Y-129259579D01*
X153971817Y-129109926D01*
X154078568Y-128915748D01*
X154145569Y-128704533D01*
X154170269Y-128484326D01*
X154170380Y-128468474D01*
X154170380Y-127954686D01*
X154148757Y-127734156D01*
X154084711Y-127522026D01*
X153980682Y-127326376D01*
X153840632Y-127154658D01*
X153669896Y-127013413D01*
X153474977Y-126908021D01*
X153263300Y-126842496D01*
X153042926Y-126819334D01*
X152822251Y-126839417D01*
X152609679Y-126901980D01*
X152413308Y-127004641D01*
X152240616Y-127143488D01*
X152098183Y-127313234D01*
X151991432Y-127507412D01*
X151924431Y-127718627D01*
X151899731Y-127938834D01*
X151899620Y-127954686D01*
X147464008Y-127954686D01*
X147581422Y-127880173D01*
X147734730Y-127734180D01*
X147856761Y-127561190D01*
X147942868Y-127367792D01*
X147989770Y-127161352D01*
X147993146Y-126919550D01*
X147952026Y-126711881D01*
X147871354Y-126516153D01*
X147754200Y-126339823D01*
X147605028Y-126189607D01*
X147429521Y-126071225D01*
X147234361Y-125989188D01*
X147026984Y-125946619D01*
X146815289Y-125945141D01*
X146607338Y-125984810D01*
X146411052Y-126064115D01*
X146233908Y-126180034D01*
X146160761Y-126251665D01*
X146157812Y-126221718D01*
X146121502Y-126102020D01*
X146062537Y-125991706D01*
X145983185Y-125895015D01*
X145886494Y-125815663D01*
X145776180Y-125756698D01*
X145656482Y-125720388D01*
X145532000Y-125708128D01*
X144282000Y-125708128D01*
X144157518Y-125720388D01*
X144037820Y-125756698D01*
X143927506Y-125815663D01*
X143830815Y-125895015D01*
X143751463Y-125991706D01*
X143692498Y-126102020D01*
X143656188Y-126221718D01*
X143652083Y-126263400D01*
X139431431Y-126263400D01*
X138415862Y-125247832D01*
X138417346Y-125141550D01*
X138376226Y-124933881D01*
X138295554Y-124738153D01*
X138178400Y-124561823D01*
X138047107Y-124429611D01*
X138031620Y-124400485D01*
X137998169Y-124335952D01*
X137995588Y-124332719D01*
X137993642Y-124329059D01*
X137947622Y-124272633D01*
X137902295Y-124215853D01*
X137896613Y-124210090D01*
X137896516Y-124209971D01*
X137896406Y-124209880D01*
X137894576Y-124208024D01*
X133412557Y-119726005D01*
X133413546Y-119655150D01*
X133372426Y-119447481D01*
X133291754Y-119251753D01*
X133174600Y-119075423D01*
X133025428Y-118925207D01*
X132849921Y-118806825D01*
X132654761Y-118724788D01*
X132447384Y-118682219D01*
X132235689Y-118680741D01*
X132027738Y-118720410D01*
X131831452Y-118799715D01*
X131654308Y-118915634D01*
X131503054Y-119063753D01*
X131383450Y-119238431D01*
X131300052Y-119433012D01*
X131256037Y-119640087D01*
X131253081Y-119851767D01*
X131291297Y-120059990D01*
X131369230Y-120256825D01*
X131483910Y-120434773D01*
X131630969Y-120587058D01*
X131804807Y-120707879D01*
X131998802Y-120792633D01*
X132205564Y-120838093D01*
X132299509Y-120840061D01*
X136326356Y-124866908D01*
X136303852Y-124919412D01*
X136259837Y-125126487D01*
X136256881Y-125338167D01*
X136295097Y-125546390D01*
X136342652Y-125666500D01*
X123941106Y-125666500D01*
X124133842Y-125393278D01*
X124275665Y-125074740D01*
X124352915Y-124734721D01*
X124358476Y-124336458D01*
X124290750Y-123994415D01*
X124157877Y-123672041D01*
X123964918Y-123381615D01*
X123719224Y-123134199D01*
X123430152Y-122939217D01*
X123108713Y-122804097D01*
X122767151Y-122733984D01*
X122418476Y-122731550D01*
X122075968Y-122796887D01*
X121752674Y-122927506D01*
X121460908Y-123118432D01*
X121211783Y-123362394D01*
X121014788Y-123650097D01*
X120877427Y-123970585D01*
X120804931Y-124311649D01*
X120800063Y-124660299D01*
X120863007Y-125003255D01*
X120991366Y-125327453D01*
X121180251Y-125620544D01*
X121224630Y-125666500D01*
X116149585Y-125666500D01*
X116070554Y-125474753D01*
X115953400Y-125298423D01*
X115804228Y-125148207D01*
X115628721Y-125029825D01*
X115433561Y-124947788D01*
X115226184Y-124905219D01*
X115014489Y-124903741D01*
X114806538Y-124943410D01*
X114610252Y-125022715D01*
X114433108Y-125138634D01*
X114281854Y-125286753D01*
X114162250Y-125461431D01*
X114078852Y-125656012D01*
X114034837Y-125863087D01*
X114031902Y-126073261D01*
X113871489Y-126072141D01*
X113663538Y-126111810D01*
X113467252Y-126191115D01*
X113290108Y-126307034D01*
X113138854Y-126455153D01*
X113019250Y-126629831D01*
X112935852Y-126824412D01*
X112891837Y-127031487D01*
X112888881Y-127243167D01*
X109702600Y-127243167D01*
X109702600Y-124679446D01*
X116980706Y-117401340D01*
X212800668Y-117401340D01*
X212800668Y-120901460D01*
X212812928Y-121025942D01*
X212849238Y-121145640D01*
X212908203Y-121255954D01*
X212987555Y-121352645D01*
X213084246Y-121431997D01*
X213194560Y-121490962D01*
X213314258Y-121527272D01*
X213438740Y-121539532D01*
X216938860Y-121539532D01*
X217063342Y-121527272D01*
X217183040Y-121490962D01*
X217293354Y-121431997D01*
X217390045Y-121352645D01*
X217469397Y-121255954D01*
X217499668Y-121199322D01*
X217499668Y-123901200D01*
X217511928Y-124025682D01*
X217548238Y-124145380D01*
X217607203Y-124255694D01*
X217686555Y-124352385D01*
X217783246Y-124431737D01*
X217893560Y-124490702D01*
X218013258Y-124527012D01*
X218137740Y-124539272D01*
X221637860Y-124539272D01*
X221762342Y-124527012D01*
X221882040Y-124490702D01*
X221992354Y-124431737D01*
X222089045Y-124352385D01*
X222168397Y-124255694D01*
X222227362Y-124145380D01*
X222263672Y-124025682D01*
X222275932Y-123901200D01*
X222275932Y-120401080D01*
X222263672Y-120276598D01*
X222227362Y-120156900D01*
X222168397Y-120046586D01*
X222089045Y-119949895D01*
X221992354Y-119870543D01*
X221882040Y-119811578D01*
X221762342Y-119775268D01*
X221637860Y-119763008D01*
X218137740Y-119763008D01*
X218013258Y-119775268D01*
X217893560Y-119811578D01*
X217783246Y-119870543D01*
X217686555Y-119949895D01*
X217607203Y-120046586D01*
X217576932Y-120103218D01*
X217576932Y-117401340D01*
X217564672Y-117276858D01*
X217528362Y-117157160D01*
X217469397Y-117046846D01*
X217390045Y-116950155D01*
X217293354Y-116870803D01*
X217183040Y-116811838D01*
X217063342Y-116775528D01*
X216938860Y-116763268D01*
X213438740Y-116763268D01*
X213314258Y-116775528D01*
X213194560Y-116811838D01*
X213084246Y-116870803D01*
X212987555Y-116950155D01*
X212908203Y-117046846D01*
X212849238Y-117157160D01*
X212812928Y-117276858D01*
X212800668Y-117401340D01*
X116980706Y-117401340D01*
X117925636Y-116456410D01*
X217810740Y-116456410D01*
X217810740Y-117933927D01*
X217823306Y-117997103D01*
X217847956Y-118056613D01*
X217883743Y-118110171D01*
X217929290Y-118155718D01*
X217982848Y-118191504D01*
X218042358Y-118216154D01*
X218105534Y-118228720D01*
X219583050Y-118228720D01*
X219664800Y-118146970D01*
X219664800Y-116374660D01*
X220110800Y-116374660D01*
X220110800Y-118146970D01*
X220192550Y-118228720D01*
X221670066Y-118228720D01*
X221733242Y-118216154D01*
X221792752Y-118191504D01*
X221846310Y-118155718D01*
X221891857Y-118110171D01*
X221927644Y-118056613D01*
X221952294Y-117997103D01*
X221964860Y-117933927D01*
X221964860Y-116456410D01*
X221883110Y-116374660D01*
X220110800Y-116374660D01*
X219664800Y-116374660D01*
X217892490Y-116374660D01*
X217810740Y-116456410D01*
X117925636Y-116456410D01*
X120005846Y-114376200D01*
X165896845Y-114376200D01*
X166015363Y-114458572D01*
X166266415Y-114568254D01*
X166533989Y-114627084D01*
X166807895Y-114632822D01*
X167077699Y-114585248D01*
X167333123Y-114486175D01*
X167517142Y-114369393D01*
X217810740Y-114369393D01*
X217810740Y-115846910D01*
X217892490Y-115928660D01*
X219664800Y-115928660D01*
X219664800Y-114156350D01*
X220110800Y-114156350D01*
X220110800Y-115928660D01*
X221883110Y-115928660D01*
X221964860Y-115846910D01*
X221964860Y-114369393D01*
X221952294Y-114306217D01*
X221927644Y-114246707D01*
X221891857Y-114193149D01*
X221846310Y-114147602D01*
X221792752Y-114111816D01*
X221733242Y-114087166D01*
X221670066Y-114074600D01*
X220192550Y-114074600D01*
X220110800Y-114156350D01*
X219664800Y-114156350D01*
X219583050Y-114074600D01*
X218105534Y-114074600D01*
X218042358Y-114087166D01*
X217982848Y-114111816D01*
X217929290Y-114147602D01*
X217883743Y-114193149D01*
X217847956Y-114246707D01*
X217823306Y-114306217D01*
X217810740Y-114369393D01*
X167517142Y-114369393D01*
X167564440Y-114339377D01*
X167762839Y-114150445D01*
X167920761Y-113926575D01*
X168032193Y-113676295D01*
X168092890Y-113409138D01*
X168097259Y-113096217D01*
X168053735Y-112876400D01*
X227610600Y-112876400D01*
X227610600Y-152553600D01*
X60298400Y-152553600D01*
X60298400Y-125642473D01*
X98904096Y-125642473D01*
X99042536Y-125823189D01*
X99311596Y-125930216D01*
X99596365Y-125982697D01*
X99885901Y-125978612D01*
X100169077Y-125918121D01*
X100398264Y-125823189D01*
X100536704Y-125642473D01*
X99720400Y-124826170D01*
X98904096Y-125642473D01*
X60298400Y-125642473D01*
X60298400Y-124386765D01*
X98248503Y-124386765D01*
X98252588Y-124676301D01*
X98313079Y-124959477D01*
X98408011Y-125188664D01*
X98588727Y-125327104D01*
X99405030Y-124510800D01*
X100035770Y-124510800D01*
X100852073Y-125327104D01*
X101032789Y-125188664D01*
X101139816Y-124919604D01*
X101192297Y-124634835D01*
X101188212Y-124345299D01*
X101127721Y-124062123D01*
X101032789Y-123832936D01*
X100852073Y-123694496D01*
X100035770Y-124510800D01*
X99405030Y-124510800D01*
X98588727Y-123694496D01*
X98408011Y-123832936D01*
X98300984Y-124101996D01*
X98248503Y-124386765D01*
X60298400Y-124386765D01*
X60298400Y-123379127D01*
X98904096Y-123379127D01*
X99720400Y-124195430D01*
X100536704Y-123379127D01*
X100398264Y-123198411D01*
X100129204Y-123091384D01*
X99844435Y-123038903D01*
X99554899Y-123042988D01*
X99271723Y-123103479D01*
X99042536Y-123198411D01*
X98904096Y-123379127D01*
X60298400Y-123379127D01*
X60298400Y-112876400D01*
X118272754Y-112876400D01*
X107751377Y-123397777D01*
M02*
