G04 #@! TF.GenerationSoftware,KiCad,Pcbnew,no-vcs-found-7406~56~ubuntu16.10.1*
G04 #@! TF.CreationDate,2016-12-22T13:28:21+01:00*
G04 #@! TF.ProjectId,nixie-clock,6E697869652D636C6F636B2E6B696361,rev?*
G04 #@! TF.FileFunction,Legend,Bot*
G04 #@! TF.FilePolarity,Positive*
%FSLAX46Y46*%
G04 Gerber Fmt 4.6, Leading zero omitted, Abs format (unit mm)*
G04 Created by KiCad (PCBNEW no-vcs-found-7406~56~ubuntu16.10.1) date Thu Dec 22 13:28:21 2016*
%MOMM*%
%LPD*%
G01*
G04 APERTURE LIST*
%ADD10C,0.100000*%
%ADD11C,0.150000*%
G04 APERTURE END LIST*
D10*
D11*
X144057000Y-128846200D02*
X144057000Y-127846200D01*
X145757000Y-127846200D02*
X145757000Y-128846200D01*
X183211500Y-130400500D02*
X183211500Y-131600500D01*
X184961500Y-131600500D02*
X184961500Y-130400500D01*
X161840600Y-128336800D02*
X161840600Y-130336800D01*
X163990600Y-130336800D02*
X163990600Y-128336800D01*
X159376800Y-124298200D02*
X159376800Y-126298200D01*
X161526800Y-126298200D02*
X161526800Y-124298200D01*
X172366600Y-131390800D02*
X172366600Y-127790800D01*
X175816600Y-127790800D02*
X175816600Y-131390800D01*
X143164142Y-128179533D02*
X143211761Y-128131914D01*
X143259380Y-127989057D01*
X143259380Y-127893819D01*
X143211761Y-127750961D01*
X143116523Y-127655723D01*
X143021285Y-127608104D01*
X142830809Y-127560485D01*
X142687952Y-127560485D01*
X142497476Y-127608104D01*
X142402238Y-127655723D01*
X142307000Y-127750961D01*
X142259380Y-127893819D01*
X142259380Y-127989057D01*
X142307000Y-128131914D01*
X142354619Y-128179533D01*
X142592714Y-129036676D02*
X143259380Y-129036676D01*
X142211761Y-128798580D02*
X142926047Y-128560485D01*
X142926047Y-129179533D01*
X186638880Y-130833833D02*
X186162690Y-130500500D01*
X186638880Y-130262404D02*
X185638880Y-130262404D01*
X185638880Y-130643357D01*
X185686500Y-130738595D01*
X185734119Y-130786214D01*
X185829357Y-130833833D01*
X185972214Y-130833833D01*
X186067452Y-130786214D01*
X186115071Y-130738595D01*
X186162690Y-130643357D01*
X186162690Y-130262404D01*
X186638880Y-131310023D02*
X186638880Y-131500500D01*
X186591261Y-131595738D01*
X186543642Y-131643357D01*
X186400785Y-131738595D01*
X186210309Y-131786214D01*
X185829357Y-131786214D01*
X185734119Y-131738595D01*
X185686500Y-131690976D01*
X185638880Y-131595738D01*
X185638880Y-131405261D01*
X185686500Y-131310023D01*
X185734119Y-131262404D01*
X185829357Y-131214785D01*
X186067452Y-131214785D01*
X186162690Y-131262404D01*
X186210309Y-131310023D01*
X186257928Y-131405261D01*
X186257928Y-131595738D01*
X186210309Y-131690976D01*
X186162690Y-131738595D01*
X186067452Y-131786214D01*
X165667980Y-128693942D02*
X165191790Y-128360609D01*
X165667980Y-128122514D02*
X164667980Y-128122514D01*
X164667980Y-128503466D01*
X164715600Y-128598704D01*
X164763219Y-128646323D01*
X164858457Y-128693942D01*
X165001314Y-128693942D01*
X165096552Y-128646323D01*
X165144171Y-128598704D01*
X165191790Y-128503466D01*
X165191790Y-128122514D01*
X165667980Y-129646323D02*
X165667980Y-129074895D01*
X165667980Y-129360609D02*
X164667980Y-129360609D01*
X164810838Y-129265371D01*
X164906076Y-129170133D01*
X164953695Y-129074895D01*
X164667980Y-130265371D02*
X164667980Y-130360609D01*
X164715600Y-130455847D01*
X164763219Y-130503466D01*
X164858457Y-130551085D01*
X165048933Y-130598704D01*
X165287028Y-130598704D01*
X165477504Y-130551085D01*
X165572742Y-130503466D01*
X165620361Y-130455847D01*
X165667980Y-130360609D01*
X165667980Y-130265371D01*
X165620361Y-130170133D01*
X165572742Y-130122514D01*
X165477504Y-130074895D01*
X165287028Y-130027276D01*
X165048933Y-130027276D01*
X164858457Y-130074895D01*
X164763219Y-130122514D01*
X164715600Y-130170133D01*
X164667980Y-130265371D01*
X163204180Y-124655342D02*
X162727990Y-124322009D01*
X163204180Y-124083914D02*
X162204180Y-124083914D01*
X162204180Y-124464866D01*
X162251800Y-124560104D01*
X162299419Y-124607723D01*
X162394657Y-124655342D01*
X162537514Y-124655342D01*
X162632752Y-124607723D01*
X162680371Y-124560104D01*
X162727990Y-124464866D01*
X162727990Y-124083914D01*
X163204180Y-125607723D02*
X163204180Y-125036295D01*
X163204180Y-125322009D02*
X162204180Y-125322009D01*
X162347038Y-125226771D01*
X162442276Y-125131533D01*
X162489895Y-125036295D01*
X163204180Y-126560104D02*
X163204180Y-125988676D01*
X163204180Y-126274390D02*
X162204180Y-126274390D01*
X162347038Y-126179152D01*
X162442276Y-126083914D01*
X162489895Y-125988676D01*
X171448742Y-128947942D02*
X171496361Y-128900323D01*
X171543980Y-128757466D01*
X171543980Y-128662228D01*
X171496361Y-128519371D01*
X171401123Y-128424133D01*
X171305885Y-128376514D01*
X171115409Y-128328895D01*
X170972552Y-128328895D01*
X170782076Y-128376514D01*
X170686838Y-128424133D01*
X170591600Y-128519371D01*
X170543980Y-128662228D01*
X170543980Y-128757466D01*
X170591600Y-128900323D01*
X170639219Y-128947942D01*
X170639219Y-129328895D02*
X170591600Y-129376514D01*
X170543980Y-129471752D01*
X170543980Y-129709847D01*
X170591600Y-129805085D01*
X170639219Y-129852704D01*
X170734457Y-129900323D01*
X170829695Y-129900323D01*
X170972552Y-129852704D01*
X171543980Y-129281276D01*
X171543980Y-129900323D01*
X170543980Y-130519371D02*
X170543980Y-130614609D01*
X170591600Y-130709847D01*
X170639219Y-130757466D01*
X170734457Y-130805085D01*
X170924933Y-130852704D01*
X171163028Y-130852704D01*
X171353504Y-130805085D01*
X171448742Y-130757466D01*
X171496361Y-130709847D01*
X171543980Y-130614609D01*
X171543980Y-130519371D01*
X171496361Y-130424133D01*
X171448742Y-130376514D01*
X171353504Y-130328895D01*
X171163028Y-130281276D01*
X170924933Y-130281276D01*
X170734457Y-130328895D01*
X170639219Y-130376514D01*
X170591600Y-130424133D01*
X170543980Y-130519371D01*
M02*
